<svg xmlns="http://www.w3.org/2000/svg" xmlns:xlink="http://www.w3.org/1999/xlink" viewBox="0 0 653.6 695.8"><defs><style>.cls-1{fill:none;}.cls-2,.cls-6{fill:#b3ebf8;}.cls-3{isolation:isolate;}.cls-4{fill:url(#New_Pattern_Swatch_1);}.cls-5{fill:url(#New_Pattern_Swatch_1-3);}.cls-12,.cls-15,.cls-16,.cls-17,.cls-19,.cls-20,.cls-21,.cls-23,.cls-24,.cls-6,.cls-7{mix-blend-mode:multiply;}.cls-8{clip-path:url(#clip-path);}.cls-12,.cls-15,.cls-21,.cls-9{fill:#c08570;}.cls-10,.cls-17{fill:#52c4c8;}.cls-11{fill:#fff;}.cls-12{opacity:0.4;}.cls-13{fill:#110039;}.cls-14,.cls-16{fill:#ebebeb;}.cls-18,.cls-19,.cls-20,.cls-23,.cls-24{fill:#f9ba96;}.cls-19,.cls-21,.cls-22{opacity:0.5;}.cls-20{opacity:0.59;}.cls-24{opacity:0.49;}.cls-25{opacity:0.34;}</style><pattern id="New_Pattern_Swatch_1" data-name="New Pattern Swatch 1" width="7.6" height="7.6" patternUnits="userSpaceOnUse" viewBox="0 0 7.6 7.6"><rect class="cls-1" width="7.6" height="7.6"/><circle class="cls-2" cx="3.8" cy="3.8" r="1.7"/></pattern><pattern id="New_Pattern_Swatch_1-3" data-name="New Pattern Swatch 1" x="-9.6" width="7.6" height="7.6" patternUnits="userSpaceOnUse" viewBox="0 0 7.6 7.6"><rect class="cls-1" width="7.6" height="7.6"/><circle class="cls-2" cx="3.8" cy="3.8" r="1.7"/></pattern><clipPath id="clip-path" transform="translate(-9.6)"><rect class="cls-1" x="58.9" y="37.4" width="554.9" height="333.27"/></clipPath></defs><title>36704402</title><g class="cls-3"><g id="BACKGROUND"><path class="cls-2" d="M538.2,306.8c-4.1,17.8-15.7,34.2-31.7,45.9a95,95,0,0,1-26.7,13.7c-12.3,4-25.6,5.5-38.7,6s-28.5.1-42.6,0l-44.3-.5-88.4-.8-87.9-.8c-.4,0-.5-.3-.4-.6s-25.6-24.9-28.9-28.3c-10.3-10.7-20.4-21.8-25.8-35-6.6-15.9-5.1-35.3,8.6-47.2,19.5-16.8,53.3-16.4,49.8-47.2-2-17.8-15.7-31.8-21.8-48.4-15.3-42.2,4.7-92.4,54.1-109.6,20.7-7.2,44.3-7.1,65.3-1,16.6,4.7,28.3,15.2,40,25.9s26.5,27.1,44.6,22.2c12.6-3.4,21.5-12.2,33.2-17a78.9,78.9,0,0,1,40.3-5c18.1,2.7,34.8,12.5,43.6,26.4,16.6,26.3-3.7,47.6-13,71.9-3.3,8.8-4.2,18.9,1,27,8.3,12.9,27.7,17.2,40,26.7a82.7,82.7,0,0,1,19.8,22C538.5,269.4,542.5,288.6,538.2,306.8Z" transform="translate(-9.6)"/><circle class="cls-4" cx="134.8" cy="98.8" r="62.9" transform="translate(-40 124.2) rotate(-45)"/><circle class="cls-5" cx="568.4" cy="314" r="62.9"/><circle class="cls-2" cx="608.6" cy="185.9" r="11.6" transform="translate(278.3 735.5) rotate(-76.7)"/><path class="cls-2" d="M642.2,166.2a6.1,6.1,0,1,1-6-6A6,6,0,0,1,642.2,166.2Z" transform="translate(-9.6)"/><circle class="cls-2" cx="411.3" cy="54.7" r="11.6"/><circle class="cls-2" cx="438.8" cy="35" r="6"/><circle class="cls-2" cx="65.7" cy="326.1" r="11.6" transform="translate(-110.3 38.1) rotate(-18.6)"/><path class="cls-2" d="M514.7,105.5A6,6,0,1,1,511.1,94a6,6,0,0,1,3.6,11.5Z" transform="translate(-9.6)"/><path class="cls-2" d="M198.5,46.7a6.2,6.2,0,0,1-7.6-4,6.1,6.1,0,0,1,4-7.6,5.9,5.9,0,0,1,7.5,4A6.1,6.1,0,0,1,198.5,46.7Z" transform="translate(-9.6)"/><path class="cls-2" d="M605.4,319.8a6,6,0,0,1-3.6-11.5,6,6,0,1,1,3.6,11.5Z" transform="translate(-9.6)"/><circle class="cls-2" cx="42.1" cy="185.9" r="11.6" transform="translate(-78 30.6) rotate(-22.7)"/><path class="cls-2" d="M75.7,166.2a6.1,6.1,0,1,1-6.1-6A6.1,6.1,0,0,1,75.7,166.2Z" transform="translate(-9.6)"/><path class="cls-2" d="M518.2,371.1c-.1-.3.1.3,0-.2s-.4-1.3-.7-2.2c-3.7-10-9.4-17.9-13.3-28.4-2.9-8-3.8-18.4-1.4-27.1a13.4,13.4,0,0,1,.7-1.8c1.5-2.8,2.7-5.4,5-7.8,5.9-6.3,12.5-10.8,15.7-19.4a9.7,9.7,0,0,1,.3-1.1c.1-.6.2-1.8.3-2.6.2-4.2-.7-8.9-1.3-12.9s-.5-11.1,3.8-14.1,11,.4,16.7-1.3,9.6-6.6,12.9-12.3a26.8,26.8,0,0,0,1.2-2.4c4.8-8.9,8.5-16.5,19.5-18.1,6.2-1,12.9,1.7,19.1,2.4l2,.3,1.9.2c11.1,0,21.9-2.3,33-3.6.1-.1-.1-.1.3-.1h2.2c7.8-.3,15.3-.1,21.8,4.5,1.9,1.4,2.7,3,3.8,4.8a3.5,3.5,0,0,1,.6,1.4c1.3,5.2,1.4,10.2-2.4,14.5s-9.1,4.7-14.5,5.7l-2.1.4a20.6,20.6,0,0,0-6.5,2.6c-4.6,3.3-5.5,9.5-10.9,11.6s-11.3-1.9-16.9-.2l-1.3.7a2.7,2.7,0,0,0-1.2.9c-3.5,3.7-4.2,8.9-8,12.5s-7,3.2-10.6,4.8l-1.9.9c-.1.1,2.4-1.5-.8.6s-3.2,10.6-2.8,16.6-7.7,6.1-11.5,6.2a20.4,20.4,0,0,0-3.7.6,12,12,0,0,0-2.7.8c-2.1,1.1-3.7,2.5-4,5s1,6.9,1.8,10.1a11.5,11.5,0,0,1,.2,1.6v.4c-.2,4.7-2.7,7.7-5.9,11-.7.7-1.2,1.4-1.9,2.2A159,159,0,0,1,518.2,371.1Z" transform="translate(-9.6)"/><path class="cls-6" d="M514.1,370.5l-.6-2.2c2.7-5.6,5.6-11,8.5-16.6a49.8,49.8,0,0,0,2.9-6.2l-7.1-9.4a269.3,269.3,0,0,0-19-23.4,8.7,8.7,0,0,1,.7-1.7c9.4,10.3,17.4,21.6,25.9,32.6a277.9,277.9,0,0,1,12.9-33.9,1.2,1.2,0,0,1,.4-.9c-2-3.5-4.2-7.1-6.4-10.5a112.8,112.8,0,0,0-11.9-15.6,12.2,12.2,0,0,0,.3-2.6,187.1,187.1,0,0,1,18.8,27.1,5.6,5.6,0,0,1,.5-.8,135.2,135.2,0,0,1,20.3-27.7.8.8,0,0,1,.5-.9c-.4-3.5-.9-6.9-1.5-10.4-1.8-9.5-4.2-18.6-6.4-27.9l1.2-2.4.3.9c3,12.9,6.1,25.6,7.9,38.8l9.2-8.1a154.9,154.9,0,0,1,14.7-12.1c.9-4.1,1.9-8.1,2.8-12.3a148.9,148.9,0,0,0,3.7-23l2,.3c-1,11.5-3.9,22.6-6.7,33.7a131.5,131.5,0,0,1,25-12.9c3.8-1.5,7.9-2.7,11.8-3.9h.2a39.4,39.4,0,0,1,4.8-20.2l2.2-.2a37.9,37.9,0,0,0-5.2,20c10.8-2.8,20.8-5.7,30.9-10.7,0,.4.7,1,.5,1.4s-.8.4-1.2.7a160.8,160.8,0,0,1-29.6,9.9c4.6,3.4,9.1,6.7,13.9,9.6l-2,.4c-4.8-2.9-9.2-6.2-13.8-9.4a166.6,166.6,0,0,0-16.8,5.8,128,128,0,0,0-21.1,11.8c-.1.1,0,.3-.1.4h0a111.2,111.2,0,0,1,16.1,6.1l-1.2.9a128.5,128.5,0,0,0-16.1-5.8.9.9,0,0,1-.5-.3,218.6,218.6,0,0,0-17.2,14.7l-4.9,4.2a63.1,63.1,0,0,1,20.2,4.5l-1.7.8h-.1a63.8,63.8,0,0,0-19.8-3.8l-.7.4A131.9,131.9,0,0,0,541,307.7a34.8,34.8,0,0,1,22.1-.6l-2.6.8c-7.3-1.3-14-.8-20.7,2.4l-.9,1.8a267.2,267.2,0,0,0-12.2,32.7c2.9-2.3,5.9-5.1,8.7-7.4A95.4,95.4,0,0,1,558.2,323a12.2,12.2,0,0,1,.3,1.7c-12,5.5-21,13.3-30.9,21.8h0c.5,1-.3,1.8-1.1,1l-.4-.5a77.3,77.3,0,0,1-4.9,9.5C518.7,361.2,516.4,365.8,514.1,370.5Z" transform="translate(-9.6)"/><path class="cls-2" d="M578.2,174.7c.3,12.9-4.8,24.7-10.8,36l-1,2L560,224.1c-4.1,7.6-8.1,15.9-11.9,24.7l-.9,2.2c-3.6,8.4-6.9,17.2-9.9,26.2-.3.7-.5,1.4-.8,2.2l-.6,1.8-.9,2.9c-3.9,12.1-7.3,24.6-10.1,36.9l-.3,1.4c-.1.3-.1.6-.2.9l-.6,3-.6,2.9c-1.9,9.3-3.5,18.5-4.6,27.3-.3,2.4-.5,4.7-.8,7s-.6,5.9-.8,8.9l-1,.3H499.1c-.5-14.6-1-29.1-1.1-43.6a16.2,16.2,0,0,1,0-2.2c-.1-14.7.2-29.4,1.3-44.1.1-.8.1-1.5.2-2.3s.1-.4.1-.6c.3-4.7.8-9.3,1.3-13.9s1-7.8,1.7-11.6l.3-2.1a262.3,262.3,0,0,1,12.4-48.4l.8-2.1a192.6,192.6,0,0,1,20.1-39.1h.1l1.1-1.6c4.9-6.9,11.3-13.4,19.5-13.6a15.9,15.9,0,0,1,8.2,2.1,14,14,0,0,1,1.7.9,24.4,24.4,0,0,1,6.1,5.9,30.7,30.7,0,0,1,4.8,12.5l.3,1.8C578.1,171.9,578.2,173.4,578.2,174.7Z" transform="translate(-9.6)"/><path class="cls-6" d="M542.4,215.9a213.3,213.3,0,0,1,25-5.2l-1,2a218.7,218.7,0,0,0-37.5,9.3h-.3c-1.8,4.9-3.5,9.8-5,14.7-2.6,8.2-4.8,16.4-6.8,24.7a292.2,292.2,0,0,1,31.3-12.6l-.9,2.2a284.2,284.2,0,0,0-30.8,12.6h-.1c-1.6,6.6-3,13.3-4.2,20l-.9,6.2a156.9,156.9,0,0,1,26.1-12.6c-.3.7-.5,1.4-.8,2.2A163.3,163.3,0,0,0,511,292h-.2c-.4,3-.9,5.9-1.2,8.8-1.3,10.1-2.2,20.2-2.7,30.4l3.2-1.9.7-.5q4.6-2.9,9.6-5.4l2.3-1.2,1.6-.9c.2-.1.4-.1.6-.3l-.3,1.4c-.1.3-.1.6-.2.9l-1.3.7-1.9,1c-3.4,1.8-6.8,3.8-10.1,5.8l-1.7,1-.3.2-2.1,1.3h-.1v.6c-.1,1.8-.2,3.6-.2,5.3-.2,7.9-.1,15.9.2,23.8.1,1.1.1,2.2.2,3.4s.2,4.2.4,6.3h-1.8c-.2-3.1-.4-6.1-.5-9.1-.1-1.3-.1-2.5-.2-3.7-.2-4.8-.2-9.5-.2-14.2s.1-7.7.3-11.5l-7.1-5.1a16.2,16.2,0,0,1,0-2.2l7.2,5.2c0-2.3.1-4.6.2-6.9.6-9.2,1.5-18.3,2.8-27.4.2-1.8.5-3.6.7-5.4-2.1-2.3-4.3-4.5-6.5-6.7l-3.1-2.9c.1-.8.1-1.5.2-2.3l.7.6q4.7,4.3,9,9c.7-4.4,1.5-8.9,2.4-13.3s1.6-8.1,2.5-12.2h-.2a133.8,133.8,0,0,0-11.3-10.1l.3-2.1c4,3.3,8,6.7,11.7,10.4,2.6-11.2,5.7-22.2,9.4-33.1.8-2.6,1.8-5.2,2.7-7.7l-11.4-18,.8-2.1c3.8,6,7.6,11.9,11.3,17.9a373.9,373.9,0,0,1,15-35.1l1.8-3.6a166,166,0,0,0-8-18.3h.1l1.1-1.6c2.9,5.8,5.5,11.7,7.9,17.8,2.7-5.4,5.6-10.8,8.8-15.9s6.6-9.7,11-13.4a14,14,0,0,1,1.7.9h-.2c-6.2,5.3-10.6,12.4-14.5,19.4-2.1,3.7-4,7.3-5.8,11q5.3-2.6,10.8-4.8a209.6,209.6,0,0,1,20.6-7.3l.3,1.8A213.9,213.9,0,0,0,546,183h-.8c-1.4,2.8-2.8,5.6-4.1,8.5-4.3,9.3-8.2,18.8-11.8,28.4C533.6,218.4,538,217.1,542.4,215.9Z" transform="translate(-9.6)"/><path class="cls-2" d="M154.5,371.1v-.2a10.6,10.6,0,0,1,.7-2.2c3.7-10,9.3-17.9,13.2-28.4a46.2,46.2,0,0,0,1.4-27.1,13.4,13.4,0,0,0-.7-1.8c-1.5-2.8-2.6-5.4-4.9-7.8-6-6.3-12.6-10.8-15.8-19.4-.1-.4-.1-.5-.2-1.1a10.3,10.3,0,0,1-.3-2.6c-.3-4.2.7-8.9,1.2-12.9s.5-11.1-3.7-14.1-11.1.4-16.8-1.3-9.6-6.6-12.9-12.3l-1.2-2.4c-4.8-8.9-8.5-16.5-19.5-18.1-6.2-1-12.8,1.7-19.1,2.4l-2,.3-1.8.2c-11.2,0-21.9-2.3-33-3.6H36.7c-7.8-.3-15.3-.1-21.9,4.5-1.9,1.4-2.6,3-3.8,4.8a5.9,5.9,0,0,0-.6,1.4c-1.3,5.2-1.4,10.2,2.4,14.5s9.1,4.7,14.5,5.7l2.1.4a18.9,18.9,0,0,1,6.5,2.6c4.6,3.3,5.5,9.5,10.9,11.6s11.4-1.9,16.9-.2l1.4.7a4.7,4.7,0,0,1,1.2.9c3.5,3.7,4.1,8.9,7.9,12.5s7,3.2,10.6,4.8a9.6,9.6,0,0,1,2,.9c0,.1-2.4-1.5.8.6s3.1,10.6,2.7,16.6,7.7,6.1,11.5,6.2a20.4,20.4,0,0,1,3.7.6,10.7,10.7,0,0,1,2.7.8c2.1,1.1,3.8,2.5,4.1,5s-1.1,6.9-1.8,10.1a5.5,5.5,0,0,0-.3,1.6v.4c.2,4.7,2.8,7.7,5.9,11,.7.7,1.2,1.4,1.9,2.2A161.1,161.1,0,0,0,154.5,371.1Z" transform="translate(-9.6)"/><path class="cls-6" d="M158.6,370.5a18.7,18.7,0,0,1,.7-2.2c-2.7-5.6-5.7-11-8.5-16.6a38.7,38.7,0,0,1-2.9-6.2l7-9.4A253,253,0,0,1,174,312.7c-.3-.6-.5-1.2-.7-1.7-9.5,10.3-17.5,21.6-26,32.6a262.4,262.4,0,0,0-12.9-33.9,1.2,1.2,0,0,0-.4-.9c2-3.5,4.2-7.1,6.4-10.5a121.2,121.2,0,0,1,11.9-15.6l-.3-2.6a187.1,187.1,0,0,0-18.8,27.1,5.9,5.9,0,0,0-.4-.8,132.1,132.1,0,0,0-20.4-27.7.8.8,0,0,0-.5-.9c.4-3.5.9-6.9,1.6-10.4,1.8-9.5,4.1-18.6,6.4-27.9-.5-.8-.9-1.6-1.3-2.4a2.9,2.9,0,0,0-.2.9c-3.1,12.9-6.2,25.6-7.9,38.8l-9.2-8.1a168.6,168.6,0,0,0-14.7-12.1c-.9-4.1-2-8.1-2.9-12.3-1.6-7.6-3.2-15.2-3.7-23l-1.9.3c.9,11.5,3.8,22.6,6.6,33.7a131.5,131.5,0,0,0-25-12.9c-3.8-1.5-7.9-2.7-11.8-3.9h-.2a37.5,37.5,0,0,0-4.8-20.2l-2.2-.2A38.9,38.9,0,0,1,46,238c-10.9-2.8-20.9-5.7-31-10.7,0,.4-.7,1-.5,1.4s.8.4,1.2.7a160.8,160.8,0,0,0,29.6,9.9,163.6,163.6,0,0,1-13.9,9.6l2.1.4c4.7-2.9,9.1-6.2,13.7-9.4A166.6,166.6,0,0,1,64,245.7a124.1,124.1,0,0,1,21.1,11.8c.1.1,0,.3.1.4h0A115.8,115.8,0,0,0,69.1,264l1.2.9a130,130,0,0,1,16.2-5.8c.2,0,.3-.2.4-.3a218.6,218.6,0,0,1,17.2,14.7l4.9,4.2a64.3,64.3,0,0,0-20.2,4.5l1.7.8h.1a63.8,63.8,0,0,1,19.9-3.8,1.3,1.3,0,0,0,.6.4,135.9,135.9,0,0,1,20.7,28.1,35.1,35.1,0,0,0-22.2-.6l2.7.8c7.3-1.3,13.9-.8,20.7,2.4l.8,1.8A251.7,251.7,0,0,1,146,344.8c-2.9-2.3-5.9-5.1-8.7-7.4A95.4,95.4,0,0,0,114.5,323l-.3,1.7c12,5.5,21.1,13.3,31,21.8a.1.1,0,0,0-.1.1c-.5,1,.3,1.8,1.2,1a1,1,0,0,1,.4-.5,76.8,76.8,0,0,0,4.8,9.5C154,361.2,156.4,365.8,158.6,370.5Z" transform="translate(-9.6)"/><path class="cls-2" d="M94.5,174.7c-.2,12.9,4.8,24.7,10.8,36,.4.6.7,1.3,1.1,2,2,3.8,4.2,7.6,6.3,11.4,4.1,7.6,8.1,15.9,11.9,24.7.3.8.7,1.5.9,2.2,3.6,8.4,6.9,17.2,9.9,26.2.3.7.5,1.4.8,2.2l.6,1.8.9,2.9c3.9,12.1,7.3,24.6,10.1,36.9l.3,1.4a2.9,2.9,0,0,1,.2.9c.2,1,.5,2,.7,3l.6,2.9c1.9,9.3,3.4,18.5,4.5,27.3.3,2.4.6,4.7.8,7s.6,5.9.8,8.9l1,.3h16.9c.5-14.6,1.1-29.1,1.2-43.6v-2.2c0-14.7-.3-29.4-1.4-44.1a17.9,17.9,0,0,0-.2-2.3v-.6c-.4-4.7-.9-9.3-1.4-13.9s-1-7.8-1.6-11.6a15.5,15.5,0,0,0-.4-2.1,254.6,254.6,0,0,0-12.4-48.4,18,18,0,0,0-.8-2.1,183,183,0,0,0-20.1-39.1h-.1a9.1,9.1,0,0,0-1.1-1.6c-4.9-6.9-11.3-13.4-19.5-13.6a16.2,16.2,0,0,0-8.2,2.1,8.3,8.3,0,0,0-1.6.9,21.4,21.4,0,0,0-6.1,5.9A30.9,30.9,0,0,0,95,168.8a9.9,9.9,0,0,0-.2,1.8A28.3,28.3,0,0,0,94.5,174.7Z" transform="translate(-9.6)"/><path class="cls-6" d="M130.3,215.9a213.3,213.3,0,0,0-25-5.2c.4.6.7,1.3,1.1,2a221,221,0,0,1,37.5,9.3h.3c1.7,4.9,3.4,9.8,5,14.7,2.5,8.2,4.8,16.4,6.8,24.7a293.8,293.8,0,0,0-31.4-12.6c.3.8.7,1.5.9,2.2a284.2,284.2,0,0,1,30.8,12.6h.2c1.5,6.6,2.9,13.3,4.1,20,.3,2.1.6,4.1,1,6.2a161.8,161.8,0,0,0-26.2-12.6c.3.7.5,1.4.8,2.2A164.3,164.3,0,0,1,161.8,292h.1c.5,3,.9,5.9,1.2,8.8,1.4,10.1,2.2,20.2,2.7,30.4l-3.2-1.9-.7-.5q-4.7-2.9-9.6-5.4l-2.2-1.2-1.7-.9-.6-.3.3,1.4a2.9,2.9,0,0,1,.2.9l1.3.7,2,1c3.4,1.8,6.7,3.8,10.1,5.8l1.6,1,.3.2,2.1,1.3h.1a.4.4,0,0,1,.1.3.2.2,0,0,0,0,.3c0,1.8.1,3.6.1,5.3.2,7.9.1,15.9-.2,23.8,0,1.1-.1,2.2-.2,3.4s-.2,4.2-.4,6.3H167c.3-3.1.4-6.1.6-9.1,0-1.3.1-2.5.1-3.7.2-4.8.2-9.5.2-14.2s-.1-7.7-.2-11.5l7.1-5.1v-2.2c-2.5,1.7-4.9,3.4-7.2,5.2l-.3-6.9c-.6-9.2-1.5-18.3-2.7-27.4-.3-1.8-.5-3.6-.8-5.4,2.1-2.3,4.3-4.5,6.5-6.7s2.1-1.9,3.1-2.9a17.9,17.9,0,0,0-.2-2.3l-.7.6q-4.6,4.3-9,9c-.7-4.4-1.5-8.9-2.3-13.3s-1.7-8.1-2.6-12.2h.2a135,135,0,0,1,11.4-10.1,15.5,15.5,0,0,0-.4-2.1c-4,3.3-7.9,6.7-11.7,10.4-2.6-11.2-5.7-22.2-9.3-33.1-.9-2.6-1.8-5.2-2.8-7.7l11.4-18a18,18,0,0,0-.8-2.1c-3.8,6-7.6,11.9-11.3,17.9a373.9,373.9,0,0,0-15-35.1l-1.8-3.6a166,166,0,0,1,8-18.3h-.1a9.1,9.1,0,0,0-1.1-1.6,188,188,0,0,0-7.8,17.8c-2.8-5.4-5.6-10.8-8.8-15.9a57.5,57.5,0,0,0-11.1-13.4,8.3,8.3,0,0,0-1.6.9h.1c6.3,5.3,10.7,12.4,14.6,19.4l5.8,11c-3.6-1.7-7.2-3.3-10.9-4.8A209.6,209.6,0,0,0,95,168.8a9.9,9.9,0,0,0-.2,1.8A217,217,0,0,1,126.7,183h.8c1.4,2.8,2.8,5.6,4.1,8.5,4.4,9.3,8.3,18.8,11.8,28.4C139.1,218.4,134.7,217.1,130.3,215.9Z" transform="translate(-9.6)"/></g><g id="OBJECTS"><text x="-9.6"/><path class="cls-2" d="M336.4,0C319,20.8,298.3,32.7,274.1,35.2l6.5,64.8c.9,25.2,22,45.9,55.8,64,33.7-18.1,54.8-38.8,55.8-64l6.4-64.8C374.4,32.7,353.8,20.8,336.4,0Z" transform="translate(-9.6)"/><path class="cls-6" d="M336.4,0C319,20.8,298.3,32.7,274.1,35.2l6.5,64.8c.9,25.2,22,45.9,55.8,64,33.7-18.1,54.8-38.8,55.8-64l6.4-64.8C374.4,32.7,353.8,20.8,336.4,0Z" transform="translate(-9.6)"/><path class="cls-2" d="M390.9,41l-1.4,14.6-1.7,17.1-2.5,25.1c-.8,22-19.4,40.3-48.9,56.1-21.1-11.3-36.5-23.8-44-38a43,43,0,0,1-4.6-14.2c-.2-1.3-.3-2.6-.4-3.9L281.8,41c21.2-2.2,39.3-12.6,54.6-30.9C351.6,28.4,369.8,38.8,390.9,41Z" transform="translate(-9.6)"/><g class="cls-7"><path class="cls-6" d="M337.7,31.8l-1-.4a5.2,5.2,0,0,0-4.7.5c-.9.5-1.9,1.9-.8,2.8a2.6,2.6,0,0,0,1.3.6,8.2,8.2,0,0,0,4.1-.2,4.7,4.7,0,0,0,1.2-.7,1.5,1.5,0,0,0,.7-1.2A2,2,0,0,0,337.7,31.8Z" transform="translate(-9.6)"/><path class="cls-6" d="M372.3,48.3l-.3-1a5.6,5.6,0,0,0-3.8-2.9c-1-.3-2.7,0-2.6,1.4a3.1,3.1,0,0,0,.6,1.3,6.8,6.8,0,0,0,3.1,2.7,3.3,3.3,0,0,0,1.3.4,1.5,1.5,0,0,0,1.3-.4A1.7,1.7,0,0,0,372.3,48.3Z" transform="translate(-9.6)"/><path class="cls-6" d="M353.8,42.5l-.4-.5a3.8,3.8,0,0,0-1.5-.9,4.4,4.4,0,0,0-1.6-.2c-.7.1-1.7.6-1.3,1.5a1.6,1.6,0,0,0,.6.8,6.4,6.4,0,0,0,2.4,1h1.2a1.1,1.1,0,0,0,.7-.6A1.1,1.1,0,0,0,353.8,42.5Z" transform="translate(-9.6)"/><path class="cls-6" d="M380.1,62.4c-.9-.7-2.5-1.1-2.9.2a2.6,2.6,0,0,0-.1,1.5,7.8,7.8,0,0,0,1.7,3.7,3.1,3.1,0,0,0,1.1.9,1.7,1.7,0,0,0,1.4.1,1.6,1.6,0,0,0,.9-1.2,2.1,2.1,0,0,0,.1-1.1A5.2,5.2,0,0,0,380.1,62.4Z" transform="translate(-9.6)"/><path class="cls-6" d="M382,100.6c-.2-1.1-1-2.5-2.3-1.9a3.2,3.2,0,0,0-1,1,8,8,0,0,0-1.4,3.9,6.1,6.1,0,0,0,.1,1.4,2,2,0,0,0,.9,1.1,1.8,1.8,0,0,0,1.6-.3,2.4,2.4,0,0,0,.8-.6A6,6,0,0,0,382,100.6Z" transform="translate(-9.6)"/><path class="cls-6" d="M378.5,82.7c-.3-.7-1.2-1.4-1.9-.7a2.5,2.5,0,0,0-.4.9,4.5,4.5,0,0,0,0,2.8,3.6,3.6,0,0,0,.4.9,1.2,1.2,0,0,0,.8.4,1.1,1.1,0,0,0,.9-.5l.4-.6A4,4,0,0,0,378.5,82.7Z" transform="translate(-9.6)"/><path class="cls-6" d="M352.3,118.1h-.8a5.4,5.4,0,0,0-2.1.8l-.5.6a.9.9,0,0,0-.1.7,1.1,1.1,0,0,0,.7.6h.5a3.2,3.2,0,0,0,2.4-1.1C352.8,119.2,353,118.4,352.3,118.1Z" transform="translate(-9.6)"/><path class="cls-6" d="M370.1,114.6a1.8,1.8,0,0,0-1.2.3,6.4,6.4,0,0,0-2.9,2.5,1.6,1.6,0,0,0-.5,1.1,1.5,1.5,0,0,0,.2,1.3,1.5,1.5,0,0,0,1.3.5l1-.2a5.1,5.1,0,0,0,3.1-3C371.5,116.2,371.5,114.6,370.1,114.6Z" transform="translate(-9.6)"/><path class="cls-6" d="M300.5,49.8a1.5,1.5,0,0,0,1.3.4,2.8,2.8,0,0,0,1.3-.4,6.8,6.8,0,0,0,3.1-2.7,3.1,3.1,0,0,0,.6-1.3c.1-1.4-1.5-1.7-2.6-1.4a5.6,5.6,0,0,0-3.8,2.9l-.3,1A1.7,1.7,0,0,0,300.5,49.8Z" transform="translate(-9.6)"/><path class="cls-6" d="M322.1,40.9A4.1,4.1,0,0,0,319,42l-.4.5a1.4,1.4,0,0,0-.1,1.1,1.2,1.2,0,0,0,.8.6h.9a5.5,5.5,0,0,0,2.6-1,2.7,2.7,0,0,0,.7-.8C323.8,41.5,322.9,41,322.1,40.9Z" transform="translate(-9.6)"/><path class="cls-6" d="M294.6,68.7a2.1,2.1,0,0,0,1.1-.1,3.4,3.4,0,0,0,.9-.8,7.3,7.3,0,0,0,1.4-3.1,2.4,2.4,0,0,0,0-1.2c-.4-1.1-1.7-.8-2.5-.2a5,5,0,0,0-1.8,3.5,2.5,2.5,0,0,0,.1.8A1.3,1.3,0,0,0,294.6,68.7Z" transform="translate(-9.6)"/><path class="cls-6" d="M294.1,106.1a2,2,0,0,0,.9-1.1,6.1,6.1,0,0,0,.1-1.4,8,8,0,0,0-1.4-3.9,2.4,2.4,0,0,0-1-1c-1.3-.6-2.1.8-2.3,1.9a6.4,6.4,0,0,0,1.3,4.6c.3.2.5.5.8.6A1.9,1.9,0,0,0,294.1,106.1Z" transform="translate(-9.6)"/><path class="cls-6" d="M295,87a.9.9,0,0,0,.8-.4,1.8,1.8,0,0,0,.4-.9,4.5,4.5,0,0,0,0-2.8,1.5,1.5,0,0,0-.4-.9c-.7-.7-1.6,0-1.9.7a4,4,0,0,0-.2,3.2,2.1,2.1,0,0,0,.4.6A1.2,1.2,0,0,0,295,87Z" transform="translate(-9.6)"/><path class="cls-6" d="M322.2,125.3a7.6,7.6,0,0,0-.9-.9,7.1,7.1,0,0,0-3.4-1.3,1.6,1.6,0,0,0-1.2.1c-1.2.5-.8,1.9-.1,2.6a4.9,4.9,0,0,0,3.8,1.8h.9a1.4,1.4,0,0,0,1-1A1.3,1.3,0,0,0,322.2,125.3Z" transform="translate(-9.6)"/><path class="cls-6" d="M308.8,115.6a1.3,1.3,0,0,0,.1-.9,1.2,1.2,0,0,0-.4-.8,4.8,4.8,0,0,0-2.1-1.9l-.9-.2c-1,0-1,1.2-.8,1.9a4,4,0,0,0,2.4,2.2h.7A1.4,1.4,0,0,0,308.8,115.6Z" transform="translate(-9.6)"/><path class="cls-6" d="M379.8,96.4a3.1,3.1,0,0,0-2.8,2,21,21,0,0,1-10.5-3.9,32.8,32.8,0,0,0,2-9.4l2.4-.2h1.6l1.4.4a1.5,1.5,0,0,1,.9,1l.6,1.3a2,2,0,0,0,2.3.6,2.7,2.7,0,0,0,1.8-1.9,6.9,6.9,0,0,0,.2-3.2,4.9,4.9,0,0,0-1.1-2.3,2.1,2.1,0,0,0-2.4-.4,2.2,2.2,0,0,0-1.4,1.9,14.4,14.4,0,0,1-6.2.2,34.7,34.7,0,0,0-1.6-9.8,15.7,15.7,0,0,1,4.4-2.8l2.2-.9a5.1,5.1,0,0,1,2.1-.3,2.5,2.5,0,0,1,1.8.8l1.6,1.3a3,3,0,0,0,3.4-.5,4.2,4.2,0,0,0,1.2-3.7,8.6,8.6,0,0,0-1.8-4.3,5.3,5.3,0,0,0-2.7-2.4,3.4,3.4,0,0,0-3.6.8,3.3,3.3,0,0,0-.6,3.4,20.7,20.7,0,0,1-9.6,4.5,32.7,32.7,0,0,0-5.5-8.2,19.9,19.9,0,0,1,3.5-5.7c.5-.5,1-1.1,1.6-1.6a7.1,7.1,0,0,1,1.8-1.2,2.8,2.8,0,0,1,2,0,15.2,15.2,0,0,0,2,.6,3.1,3.1,0,0,0,2.9-1.9,4.2,4.2,0,0,0-.4-3.8,9.8,9.8,0,0,0-3.4-3.3,6.3,6.3,0,0,0-3.5-1.1,3.5,3.5,0,0,0-2.9,2.3,3.3,3.3,0,0,0,.8,3.4,20.8,20.8,0,0,1-7.7,8.4l-.6.3a42.7,42.7,0,0,0-4.4-3l-3-1.4a11.2,11.2,0,0,1,.9-3.7l.7-1.5a4.8,4.8,0,0,1,.9-1.1,1.6,1.6,0,0,1,.9-.5h1.8a1.9,1.9,0,0,0,1.4-1.8,2.9,2.9,0,0,0-1.1-2.4,5.9,5.9,0,0,0-2.2-1.2h-.7a3.6,3.6,0,0,0-2.5.1,2.1,2.1,0,0,0-1.3,2,2,2,0,0,0,1.2,2,14.1,14.1,0,0,1-3,7.1,36.2,36.2,0,0,0-8.1-1.5,18.8,18.8,0,0,1-1.6-7,9.6,9.6,0,0,1,0-2.4,5.2,5.2,0,0,1,.4-2.1,3.4,3.4,0,0,1,1.5-1.4l1.8-.9a3.3,3.3,0,0,0,.8-3.4,4.4,4.4,0,0,0-3-2.5,9.4,9.4,0,0,0-4.7.1,6,6,0,0,0-3.3,1.6,3.8,3.8,0,0,0-.5,3.7,3.2,3.2,0,0,0,2.9,1.8,20.1,20.1,0,0,1,.4,11.4,5.6,5.6,0,0,1-.4,1.2,31,31,0,0,0-5.3,1,13.3,13.3,0,0,1-2.7-6.7,2.2,2.2,0,0,0,1.3-2,2.3,2.3,0,0,0-1.4-2,3.6,3.6,0,0,0-2.5-.1,6.4,6.4,0,0,0-2.9,1.3,2.9,2.9,0,0,0-1.1,2.4,1.9,1.9,0,0,0,1.4,1.8H320a1.5,1.5,0,0,1,1.3.5,3.1,3.1,0,0,1,.9,1.1,10.1,10.1,0,0,1,.7,1.5,10.2,10.2,0,0,1,.8,3,34.3,34.3,0,0,0-8.2,4.5,20.6,20.6,0,0,1-7.4-8.1,3.3,3.3,0,0,0,.8-3.4,3.4,3.4,0,0,0-2.9-2.3,6.3,6.3,0,0,0-3.5,1.1,9.8,9.8,0,0,0-3.4,3.3,4.6,4.6,0,0,0-.4,3.8,3.1,3.1,0,0,0,2.9,1.9,11.7,11.7,0,0,0,2-.6,2.8,2.8,0,0,1,2,0,5.7,5.7,0,0,1,1.8,1.2c.6.5,1.1,1.1,1.6,1.6a20.2,20.2,0,0,1,3,4.6,31.3,31.3,0,0,0-6.3,8.6,16.1,16.1,0,0,1-5.9-3.2,2.7,2.7,0,0,0-.5-2.8,2.8,2.8,0,0,0-3-.7,5,5,0,0,0-2.3,2,8.2,8.2,0,0,0-1.5,3.6,3.6,3.6,0,0,0,1,3,2.6,2.6,0,0,0,2.9.5,15,15,0,0,0,1.3-1.1,2.1,2.1,0,0,1,1.5-.7,5.7,5.7,0,0,1,1.8.3l1.8.7a9.5,9.5,0,0,1,1.7,1,34.4,34.4,0,0,0-2.4,12.2,13.8,13.8,0,0,1-4.5-.4,2.2,2.2,0,0,0-1.4-1.9,2.1,2.1,0,0,0-2.4.4,4,4,0,0,0-1,2.3,6.9,6.9,0,0,0,.1,3.2,2.7,2.7,0,0,0,1.8,1.9,2,2,0,0,0,2.3-.6,7.5,7.5,0,0,0,.6-1.3,1.8,1.8,0,0,1,.9-1l1.4-.4h2.3a30.9,30.9,0,0,0,2.4,10.5,21.3,21.3,0,0,1-9.2,3,3.3,3.3,0,0,0-2.8-2,3.3,3.3,0,0,0-3.2,1.8,6.6,6.6,0,0,0-.3,3.7,11.9,11.9,0,0,0,1.7,4.4,4.4,4.4,0,0,0,3.5,1.7,3,3,0,0,0,2.8-2,12.3,12.3,0,0,0,.2-2,2.9,2.9,0,0,1,.8-1.9,7.4,7.4,0,0,1,1.7-1.2l2.2-.9a20.7,20.7,0,0,1,4.3-1,34.1,34.1,0,0,0,5,6.8,14.5,14.5,0,0,1-4.4,4.8,2.1,2.1,0,0,0-2.3-.2,2.6,2.6,0,0,0-1.3,2.2,5.4,5.4,0,0,0,1.1,2.3,6.9,6.9,0,0,0,2.5,2,3,3,0,0,0,2.6-.2,2,2,0,0,0,1-2.1,5.2,5.2,0,0,0-.6-1.3,1.5,1.5,0,0,1-.1-1.3,3.1,3.1,0,0,1,.6-1.3,6.4,6.4,0,0,1,1-1.3,10.2,10.2,0,0,1,1.8-1.8,31.8,31.8,0,0,0,8.1,5.4,18.5,18.5,0,0,1-3.3,8.2,2.9,2.9,0,0,0-3.6,3.9,5.3,5.3,0,0,0,2.3,2.4,7.6,7.6,0,0,0,3.9,1.3,3.8,3.8,0,0,0,3.2-1.2,2.7,2.7,0,0,0,.3-3.1l-1.3-1.3a3.5,3.5,0,0,1-.8-1.6,12.3,12.3,0,0,1,.2-1.9,10.7,10.7,0,0,1,.7-1.9,13.5,13.5,0,0,1,1.7-3.4,35.4,35.4,0,0,0,8.6,1.7,17.4,17.4,0,0,1,.6,5.1,16.9,16.9,0,0,1-.1,2.3,7.3,7.3,0,0,1-.6,2.1,2.8,2.8,0,0,1-1.5,1.3,10.1,10.1,0,0,0-1.8.9,2.8,2.8,0,0,0-1,3.3,4.4,4.4,0,0,0,2.8,2.7,10.2,10.2,0,0,0,4.6.2,5.9,5.9,0,0,0,3.4-1.5,3.4,3.4,0,0,0,.7-3.6,3,3,0,0,0-2.8-2,20.8,20.8,0,0,1,.2-10.8,32.4,32.4,0,0,0,10.3-2.5l.5,1.1c.1.4.3.8.4,1.2a4.9,4.9,0,0,1,.1,1.2,1.4,1.4,0,0,1-.5,1,2,2,0,0,0-.8.8,1.9,1.9,0,0,0,.2,1.9,2.5,2.5,0,0,0,2,.7,5.3,5.3,0,0,0,2.4-.8,3.4,3.4,0,0,0,1.4-1.5,1.7,1.7,0,0,0-.4-1.9,1.7,1.7,0,0,0-1.8-.5,10.9,10.9,0,0,1-1.9-3.9h0a31.8,31.8,0,0,0,8.1-5.4,18.2,18.2,0,0,1,4.5,3.8l1.3,1.7a7.1,7.1,0,0,1,.8,1.8,2.2,2.2,0,0,1-.2,1.8,13,13,0,0,0-.8,1.7,2.9,2.9,0,0,0,1.3,3,4.1,4.1,0,0,0,3.6.1,8.9,8.9,0,0,0,3.4-2.7,5.6,5.6,0,0,0,1.4-3,3,3,0,0,0-4.8-2.7,18.3,18.3,0,0,1-6.7-8.1,3,3,0,0,1-.4-1,29.3,29.3,0,0,0,3.4-5,21.1,21.1,0,0,1,6,1.1l2.1.9a11.3,11.3,0,0,1,1.8,1.2,2.8,2.8,0,0,1,.7,1.9,12.3,12.3,0,0,0,.2,2,3,3,0,0,0,2.9,2,4.2,4.2,0,0,0,3.4-1.7,10.4,10.4,0,0,0,1.7-4.4,5.9,5.9,0,0,0-.3-3.7A3.2,3.2,0,0,0,379.8,96.4Z" transform="translate(-9.6)"/><path class="cls-6" d="M338,129.5a2.7,2.7,0,0,0-1.2-.6,7.2,7.2,0,0,0-4.1,0l-1.3.5a1.7,1.7,0,0,0-.7,1.2,1.7,1.7,0,0,0,.7,1.4l.9.6a5.5,5.5,0,0,0,4.7-.3C338,131.8,339.1,130.5,338,129.5Z" transform="translate(-9.6)"/><path class="cls-6" d="M341.1,62.8a4.9,4.9,0,0,1-4.9,4.8,4.9,4.9,0,0,1,0-9.7A4.9,4.9,0,0,1,341.1,62.8Z" transform="translate(-9.6)"/><path class="cls-6" d="M340.6,82.9a3.4,3.4,0,0,1-3.3,3.4,3.4,3.4,0,0,1,0-6.8A3.4,3.4,0,0,1,340.6,82.9Z" transform="translate(-9.6)"/><path class="cls-6" d="M353.5,95.2a3.4,3.4,0,0,1-3.3,3.4,3.4,3.4,0,0,1,0-6.8A3.4,3.4,0,0,1,353.5,95.2Z" transform="translate(-9.6)"/><path class="cls-6" d="M323.1,72.1a3.4,3.4,0,0,1-3.2,3.5,3.5,3.5,0,0,1,0-6.9A3.3,3.3,0,0,1,323.1,72.1Z" transform="translate(-9.6)"/><path class="cls-6" d="M313.2,81.7a1.7,1.7,0,0,1-2.1,1.1,1.6,1.6,0,0,1-1-2.1,1.6,1.6,0,0,1,2-1.1A1.6,1.6,0,0,1,313.2,81.7Z" transform="translate(-9.6)"/><path class="cls-6" d="M358.4,83.4a1.6,1.6,0,1,1-3.1-1,1.7,1.7,0,0,1,2.1-1.1A1.6,1.6,0,0,1,358.4,83.4Z" transform="translate(-9.6)"/><path class="cls-6" d="M325.1,104.2a1.6,1.6,0,0,1-2.1,1.1,1.7,1.7,0,0,1-1-2.1,1.6,1.6,0,1,1,3.1,1Z" transform="translate(-9.6)"/><path class="cls-6" d="M348.5,84.9a1.6,1.6,0,0,1-2,1.1,1.6,1.6,0,0,1-1.1-2.1,1.8,1.8,0,0,1,2.1-1.2A1.7,1.7,0,0,1,348.5,84.9Z" transform="translate(-9.6)"/><path class="cls-6" d="M342.2,105.1c0,2.1-2.8,3.8-6.3,3.8s-6.2-1.7-6.2-3.8,2.8-3.9,6.2-3.9S342.2,102.9,342.2,105.1Z" transform="translate(-9.6)"/><path class="cls-6" d="M358.1,70.1c0,4-2.8,7.3-6.3,7.3s-6.3-3.3-6.3-7.3,2.8-7.3,6.3-7.3S358.1,66,358.1,70.1Z" transform="translate(-9.6)"/><path class="cls-6" d="M325.1,89.5c1.3,3.8-.3,7.9-3.6,9s-7-1-8.3-4.9.3-7.8,3.6-8.9S323.8,85.7,325.1,89.5Z" transform="translate(-9.6)"/><path class="cls-6" d="M383,98.2a5.9,5.9,0,0,1,.3,3.7,10.4,10.4,0,0,1-1.7,4.4,4.2,4.2,0,0,1-3.4,1.7,3,3,0,0,1-2.9-2,12.3,12.3,0,0,1-.2-2,2.8,2.8,0,0,0-.7-1.9,11.3,11.3,0,0,0-1.8-1.2l-2.1-.9a21.1,21.1,0,0,0-6-1.1,29.3,29.3,0,0,1-3.4,5,3,3,0,0,0,.4,1,18.3,18.3,0,0,0,6.7,8.1,3,3,0,0,1,4.8,2.7,5.6,5.6,0,0,1-1.4,3,8.9,8.9,0,0,1-3.4,2.7,4.1,4.1,0,0,1-3.6-.1,2.9,2.9,0,0,1-1.3-3,13,13,0,0,1,.8-1.7,2.2,2.2,0,0,0,.2-1.8,7.1,7.1,0,0,0-.8-1.8l-1.3-1.7a18.2,18.2,0,0,0-4.5-3.8,31.8,31.8,0,0,1-8.1,5.4h0a10.9,10.9,0,0,0,1.9,3.9,1.7,1.7,0,0,1,1.8.5,1.7,1.7,0,0,1,.4,1.9,3.4,3.4,0,0,1-1.4,1.5,5.3,5.3,0,0,1-2.4.8,2.5,2.5,0,0,1-2-.7,1.9,1.9,0,0,1-.2-1.9,2,2,0,0,1,.8-.8,1.4,1.4,0,0,0,.5-1,4.9,4.9,0,0,0-.1-1.2c-.1-.4-.3-.8-.4-1.2l-.5-1.1a32.4,32.4,0,0,1-10.3,2.5,20.8,20.8,0,0,0-.2,10.8,3,3,0,0,1,2.8,2,3.4,3.4,0,0,1-.7,3.6,5.9,5.9,0,0,1-3.4,1.5,10.2,10.2,0,0,1-4.6-.2,4.4,4.4,0,0,1-2.8-2.7,2.8,2.8,0,0,1,1-3.3,10.1,10.1,0,0,1,1.8-.9,2.8,2.8,0,0,0,1.5-1.3,7.3,7.3,0,0,0,.6-2.1,16.9,16.9,0,0,0,.1-2.3,17.4,17.4,0,0,0-.6-5.1,35.4,35.4,0,0,1-8.6-1.7,13.5,13.5,0,0,0-1.7,3.4,10.7,10.7,0,0,0-.7,1.9,12.3,12.3,0,0,0-.2,1.9,3.5,3.5,0,0,0,.8,1.6l1.3,1.3a2.7,2.7,0,0,1-.3,3.1,3.8,3.8,0,0,1-3.2,1.2,7.6,7.6,0,0,1-3.9-1.3,5.3,5.3,0,0,1-2.3-2.4,2.9,2.9,0,0,1,3.6-3.9,18.5,18.5,0,0,0,3.3-8.2,33.1,33.1,0,0,1-9.5-6.6c19.3-5.7,29.7-17.9,35.1-31.6A71.9,71.9,0,0,0,350.3,63c.6-3,1-6.1,1.3-9.1a42.7,42.7,0,0,1,4.4,3l.6-.3a20.8,20.8,0,0,0,7.7-8.4,3.3,3.3,0,0,1-.8-3.4,3.5,3.5,0,0,1,2.9-2.3,6.3,6.3,0,0,1,3.5,1.1,9.8,9.8,0,0,1,3.4,3.3,4.2,4.2,0,0,1,.4,3.8,3.1,3.1,0,0,1-2.9,1.9,15.2,15.2,0,0,1-2-.6,2.8,2.8,0,0,0-2,0,7.1,7.1,0,0,0-1.8,1.2c-.6.5-1.1,1.1-1.6,1.6a19.9,19.9,0,0,0-3.5,5.7,32.7,32.7,0,0,1,5.5,8.2,20.7,20.7,0,0,0,9.6-4.5,3.3,3.3,0,0,1,.6-3.4,3.4,3.4,0,0,1,3.6-.8,5.3,5.3,0,0,1,2.7,2.4,8.6,8.6,0,0,1,1.8,4.3,4.2,4.2,0,0,1-1.2,3.7,3,3,0,0,1-3.4.5l-1.6-1.3a2.5,2.5,0,0,0-1.8-.8,5.1,5.1,0,0,0-2.1.3l-2.2.9a15.7,15.7,0,0,0-4.4,2.8,34.7,34.7,0,0,1,1.6,9.8,14.4,14.4,0,0,0,6.2-.2,2.2,2.2,0,0,1,1.4-1.9,2.1,2.1,0,0,1,2.4.4,4.9,4.9,0,0,1,1.1,2.3,6.9,6.9,0,0,1-.2,3.2,2.7,2.7,0,0,1-1.8,1.9,2,2,0,0,1-2.3-.6l-.6-1.3a1.5,1.5,0,0,0-.9-1l-1.4-.4h-1.6l-2.4.2a32.8,32.8,0,0,1-2,9.4A21,21,0,0,0,377,98.4a3.1,3.1,0,0,1,2.8-2A3.2,3.2,0,0,1,383,98.2Z" transform="translate(-9.6)"/></g><path class="cls-2" d="M395,53.5l-1.8,18.3L291.1,118a45.9,45.9,0,0,1-4.9-15.2Z" transform="translate(-9.6)"/><path class="cls-2" d="M395,53.5l-1.8,18.3L291.1,118a45.9,45.9,0,0,1-4.9-15.2Z" transform="translate(-9.6)"/><path class="cls-6" d="M395,53.5l-1.8,18.3L291.1,118a45.9,45.9,0,0,1-4.9-15.2Z" transform="translate(-9.6)"/><g class="cls-8"><path class="cls-9" d="M579.1,346.8a20.1,20.1,0,0,1-14.4,5.8l-18.9-78.3-1.5-6.3-1.8-7.6-4.3-56.9a43.5,43.5,0,0,1,14,6.4A39.4,39.4,0,0,1,567,229.4l.6,2.2c3.2,11.4,6.1,23.6,8.8,36.4,3.7,17.6,7,36.2,10.1,55.7C587.8,332.1,585.3,341,579.1,346.8Z" transform="translate(-9.6)"/><path class="cls-10" d="M507.2,678.6l10.4-18.1L507.2,398.8h-9.1l-48,279.8H386.3s12.3-17.5,41.4-14.8c4-103.2,7.8-208.6,17.2-278.5H548.7L539,660.5s36.2,6,37.9,18.1Z" transform="translate(-9.6)"/><path class="cls-10" d="M548.7,385.3H444.9c2.5-18.6,5.4-34.7,8.8-47.6L442.3,221.1c.7-6.2,3.2-10.4,17.9-16.4a91.3,91.3,0,0,1,34.2-6.6h0a85.4,85.4,0,0,1,13.4,1l31.4,4.6a4.2,4.2,0,0,1,3.5,3.7l3.8,37.1a169.8,169.8,0,0,1-.5,40.3c-1.6,12.5-3.3,26.6-3.1,29Z" transform="translate(-9.6)"/><rect class="cls-11" x="455" y="245" width="27.2" height="6.28" rx="3.1"/><path class="cls-9" d="M479,199v.2c.3,12.4,20.4,27.8,20.4,27.8s12.5-15.8,12.6-27.7l-5.8-.5-5.7-.6H490.4l-5.4.2Z" transform="translate(-9.6)"/><path class="cls-9" d="M485.1,203.1a12.1,12.1,0,0,0,6.6,10.4,13.1,13.1,0,0,0,3.2,1,10.3,10.3,0,0,0,11.7-11v-.9l-.4-3.1-.7-7.9a2.3,2.3,0,0,0-1.4-1.9l-7.1-3.5-4.8-2.8-7.3-4.4-.3-.2.2,2,.2,14.8v7.5Z" transform="translate(-9.6)"/><path class="cls-12" d="M489.6,182.1c0,9.8,7.1,18.7,17,21.4v-.9l-.4-3.1-.7-7.9a2.3,2.3,0,0,0-1.4-1.9l-7.1-3.5-4.8-2.8Z" transform="translate(-9.6)"/><path class="cls-9" d="M523.6,170a33.7,33.7,0,0,1-4.4,12.1,20.2,20.2,0,0,1-23.2,9c-4.4-1.4-9.7-4.2-15.7-9.4a34.2,34.2,0,0,1-9.2-14.7s-9.7.4-9.3-9.4c0,0,.3-9.9,8-6.4-.1-.6-5.6-19.4,5.3-25.3,0,0,15.3-12.9,32.5-1.8a29.8,29.8,0,0,1,7.4,7.2c2.8,4,6.6,10.4,6.7,16.1a33.3,33.3,0,0,0,1.1,10.3,32.9,32.9,0,0,1,1.1,7A30.8,30.8,0,0,1,523.6,170Z" transform="translate(-9.6)"/><path class="cls-13" d="M494.2,159.3c.3,1.7,1.4,2.8,2.6,2.7s1.7-1.7,1.4-3.3-1.4-2.8-2.5-2.6S493.9,157.7,494.2,159.3Z" transform="translate(-9.6)"/><path class="cls-13" d="M512.5,157c.3,1.6,1.5,2.8,2.6,2.6s1.8-1.7,1.5-3.3-1.5-2.8-2.6-2.6S512.2,155.3,512.5,157Z" transform="translate(-9.6)"/><path class="cls-13" d="M489.1,154.7h-.2a9.2,9.2,0,0,1,6-6.7,2.6,2.6,0,0,1,1.5-.2,1.3,1.3,0,0,1,1,1,1.8,1.8,0,0,1-.9,1.3,14.1,14.1,0,0,1-3.1,1.4,11.4,11.4,0,0,0-3.1,1.6A4.8,4.8,0,0,0,489.1,154.7Z" transform="translate(-9.6)"/><path class="cls-13" d="M507.5,146.5a2.2,2.2,0,0,1,1.3-.8,9.1,9.1,0,0,1,9.2,1.5,3.3,3.3,0,0,0-1.4-.4h-.1l-.9-.2a9.9,9.9,0,0,0-3.4.8,11.5,11.5,0,0,1-3.3.9,1.7,1.7,0,0,1-1.5-.5A1.1,1.1,0,0,1,507.5,146.5Z" transform="translate(-9.6)"/><path class="cls-12" d="M507.8,168.3a5.8,5.8,0,0,0,2.9-.6,3.5,3.5,0,0,0,1.3-.8c.1,0,.2-.2.2-.3h0c-.1-.3-.3-.5-.4-.8a53.4,53.4,0,0,0-4.1-5.6c-.3-.4-.4-.9,0-1.2a.8.8,0,0,1,1.2-.1,29.7,29.7,0,0,1,2.7,3.5l1.2,1.7a11.8,11.8,0,0,1,1.1,1.9c.5,1.5-.9,2.6-2.1,3.2a7.8,7.8,0,0,1-4,.8.8.8,0,0,1-.9-.8C506.9,168.7,507.3,168.2,507.8,168.3Z" transform="translate(-9.6)"/><path class="cls-14" d="M523.9,164.7a21.3,21.3,0,0,0-5-1.1,85.1,85.1,0,0,0-30.6,1.5l-3.3.8h-.3c-4.2-4.4-8.5-8.7-13.7-12.1-.5-.3-1,.6-.5.9a68.8,68.8,0,0,1,11.9,10.3l1.4,1.3.6.6a18,18,0,0,1,.2,2.2c0,4-2.4,7.8-3.8,11.4a6.9,6.9,0,0,0-.5,1.3c6,5.2,11.3,8,15.7,9.4a20.2,20.2,0,0,0,23.2-9,33.7,33.7,0,0,0,4.4-12.1A30.8,30.8,0,0,0,523.9,164.7Z" transform="translate(-9.6)"/><g class="cls-7"><path class="cls-14" d="M519.5,169.4a81.8,81.8,0,0,0-30,.2c-.6.1-.4,1.1.2.9a81.3,81.3,0,0,1,29.5-.1C519.9,170.5,520.1,169.5,519.5,169.4Z" transform="translate(-9.6)"/><path class="cls-14" d="M511.1,176.1a102.8,102.8,0,0,1-18.4-1.1c-.6-.1-.9.9-.2,1a105,105,0,0,0,18.6,1.1A.5.5,0,0,0,511.1,176.1Z" transform="translate(-9.6)"/><path class="cls-14" d="M515,181.6a60.9,60.9,0,0,1-22.9-1c-.6-.1-.9.8-.3,1a64.1,64.1,0,0,0,23.5,1C515.9,182.5,515.7,181.5,515,181.6Z" transform="translate(-9.6)"/></g><path class="cls-13" d="M463.4,148.9a5.6,5.6,0,0,0,.4,1.2,8.3,8.3,0,0,0,2.9,3.3l.4.3a8.2,8.2,0,0,1,2.7,2.1,3.1,3.1,0,0,1,.5,1.2,7.2,7.2,0,0,1,.3,2.5c0,2.7-.2,5.4.8,7.9a7.5,7.5,0,0,0,1,2,1.5,1.5,0,0,0,.5.6l.2.3h0a6.7,6.7,0,0,0,2.5,1.9,6.1,6.1,0,0,0,3,.5,8.2,8.2,0,0,0,2.6-1c1.9-1.4,2.1-3.7,2.1-5.9,0-.5.1-.9.1-1.4h0c.5-3.9,2.6-7.1,4.6-10.6a23.6,23.6,0,0,0,2.7-5.8,13.2,13.2,0,0,0,.6-3.9c.1-1.2.1-2.4.1-3.6a10.6,10.6,0,0,1,.9-4c.5-.7,1.2-2,2.2-1.5l.7.4c1.6,1.4.9,4.6.9,6.4a7.4,7.4,0,0,0,2.5,5.8,5.2,5.2,0,0,0,5.5.8,4.8,4.8,0,0,0,2.7-4.9,10.7,10.7,0,0,0-1.1-3.7,14.3,14.3,0,0,1-1.4-3.4c-.1-.8,0-2.5,1.2-2.1l.5.3a2.4,2.4,0,0,1,.6,1.1c.2.7.3,1.5.5,2a7.1,7.1,0,0,0,2.1,2.7l1.3.8c3,1.5,7.3,1.8,8.4,5.5.1.3.1.6.2.8h0a16.6,16.6,0,0,0,.6,2.1h0a3.5,3.5,0,0,0,1.4,2h0a3.2,3.2,0,0,0,2.3.6,3.6,3.6,0,0,0,2.5-1.1l.3-.3c1.5-1.7,1.6-4.1,1.4-6.2a8.6,8.6,0,0,0,.6-3.9c-.2-8.6-6.1-16.9-13.4-21.1a31.5,31.5,0,0,0-14.7-3.8,60.5,60.5,0,0,0-15.3,1.2,25.6,25.6,0,0,0-12.7,6.4,27.7,27.7,0,0,0-7,11.9,44.6,44.6,0,0,0-1.7,7A14.3,14.3,0,0,0,463.4,148.9Z" transform="translate(-9.6)"/><polygon class="cls-14" points="517.8 334.7 551.8 344.2 587.1 278.7 576.1 279.4 551.1 281 540 281.7 517.8 334.7"/><path class="cls-9" d="M533.7,306.4l4.6-.9a1.5,1.5,0,0,1,1.5,2.2l-1.1,2,9.1,4.5a7.1,7.1,0,0,1,3.8,6.2l.2,14s6.9,3.7,17.8-5.4c6.9,5,8.3,12.1,5.2,21,0,0-12.7,9.8-35-5.8l-14.4-9.5a7,7,0,0,1-3.2-5.9v-7.5a7.9,7.9,0,0,1,1.6-4.8l6.3-8A5.8,5.8,0,0,1,533.7,306.4Z" transform="translate(-9.6)"/><path class="cls-15" d="M537.3,310.1c-1-.8-1.8.1-1.9,1s.7,2.7,1.5,3.7a29.9,29.9,0,0,0,7.2,5.5c1.1.6.1,2.4-1,1.7-3.3-2-6.9-4.2-8.9-7.6a4.7,4.7,0,0,1-.1-5.3,3,3,0,0,1,4.6-.4,1,1,0,0,1-1.4,1.4Z" transform="translate(-9.6)"/><path class="cls-16" d="M566.8,294.6c6,2.7,13.7-1.5,17.2-9.3a19.6,19.6,0,0,0,1.7-5.9l-25,1.6C559.9,287,562.2,292.5,566.8,294.6Z" transform="translate(-9.6)"/><path class="cls-10" d="M576.4,268H544.3l-1.8-7.6-4.3-56.9a43.5,43.5,0,0,1,14,6.4A39.4,39.4,0,0,1,567,229.4l.6,2.2C570.8,243,573.7,255.2,576.4,268Z" transform="translate(-9.6)"/><path class="cls-17" d="M547.4,238.8c-.2-4.1-.5-8.1-.8-12.1-.1-.7-1.2-.7-1.1,0a356.4,356.4,0,0,1,1,42.6c-.2,4-.4,8-.7,12-.1.7,1,.7,1.1,0A354.6,354.6,0,0,0,547.4,238.8Z" transform="translate(-9.6)"/><path class="cls-9" d="M458.3,256.6l-12.2,49.8-.6,2.3-.6,2.5-7.3,30-1.6,6.5-5.6,23H407.6c1.5-15.1,3-29.6,4.7-43.4,3.6-28.8,7.9-54.4,13.4-74.3h0c4.5-15.8,9.7-28.1,15.9-35.6,3.8-4.6,8.1-7.4,12.7-8.2h0Z" transform="translate(-9.6)"/><path class="cls-10" d="M458.3,205.5s-36.6,7.4-42.8,79.3c12.4,7.2,24.6,10.8,36.6,10.7l13.3-36.3Z" transform="translate(-9.6)"/><path class="cls-17" d="M458.2,242.4c-.1-.6-1.1-.7-1,0a107.4,107.4,0,0,1-6.1,41.3c-1.4,3.7-3,7.3-4.7,10.9-.3.5.5,1,.8.5a103.6,103.6,0,0,0,10.9-40.7A96.1,96.1,0,0,0,458.2,242.4Z" transform="translate(-9.6)"/><path class="cls-17" d="M497.2,231.6a66.7,66.7,0,0,1-19.5-21.1,72.1,72.1,0,0,1-3.6-7.4c-.3-.6-1.2-.4-1,.2a66.3,66.3,0,0,0,23.6,29.2A.5.5,0,1,0,497.2,231.6Z" transform="translate(-9.6)"/><path class="cls-17" d="M513.2,206.9a46,46,0,0,1-11.6,22.9c-.4.5.3,1.2.7.7a46.4,46.4,0,0,0,11.9-23.4A.5.5,0,0,0,513.2,206.9Z" transform="translate(-9.6)"/><path class="cls-13" d="M406.8,193.7a36.9,36.9,0,0,0,4-2.9c2.1-2,3.5-5.7,4.1-9.5a42.4,42.4,0,0,0-.1-11.8c-1.2-8.9-4.1-16.8-7.2-24.4s-5-12.3-8.5-17.1-7.9-8.1-12.5-7.7-11.1,7.1-14.6,14.4-5.1,13.1-7.7,19.7a56.9,56.9,0,0,0-4.6,21.5c.1,6,1.7,12.3,5,15.4,1.2,1.1,2.6,1.7,3.9,2.8a7.3,7.3,0,0,1,2.5,5.1,9.1,9.1,0,0,1-2,6.2c-1.2,1.5-2.6,2.5-3.8,4-3,3.7-4.2,10.9-2.4,16.3s6.3,8.1,9.7,5.3c.2,5.3,2.5,10.3,5.6,12.3s6.9.9,9.3-2.7c2.5,3.6,6.3,4.7,9.4,2.7s5.3-6.9,5.5-12.2c3.4,2.6,7.9.2,9.7-5s.8-12.3-2-16.2c-1.3-1.6-2.8-2.7-4.1-4.3a10.2,10.2,0,0,1-2.1-6.6,8,8,0,0,1,2.8-5.2Z" transform="translate(-9.6)"/><path class="cls-18" d="M408.1,214.8h0c4.2,8.1,16.3,5.9,17.5-3.1l.2-.9a26.6,26.6,0,0,0,1-9.3l-.3-3.3V186.9l-22-2.4.3,8.8c.1,1.6.1,3.3.3,4.9v4.2a6.1,6.1,0,0,0,.1,1.4A25.2,25.2,0,0,0,408.1,214.8Z" transform="translate(-9.6)"/><path class="cls-19" d="M405.9,203.9a26.1,26.1,0,0,0,10-.7h.2A14.3,14.3,0,0,0,426.4,189v-2.1l-22-2.4.3,8.8c.1,1.6.1,3.3.3,4.9v4.7Z" transform="translate(-9.6)"/><path class="cls-18" d="M450,147.7a7.1,7.1,0,0,0-4.2,1.3,54.2,54.2,0,0,0-12.5-23.7,18.4,18.4,0,0,0-8-6.2,12.3,12.3,0,0,0-4.9-1.3h-3.2l-3.3.2a13.6,13.6,0,0,0-4.7,1.5,18.6,18.6,0,0,0-7.8,6.6,55.5,55.5,0,0,0-11.5,24.2,7.5,7.5,0,0,0-4.1-1.1c-4.3.5-5.5,7.3-4.3,12.4s6.6,8.4,11.2,9.6a50.5,50.5,0,0,0,8.7,11.9,26.5,26.5,0,0,0,13.7,8.3h.4l.9.2h4.8l.9-.3h.5a25.8,25.8,0,0,0,13.2-8.9A49.3,49.3,0,0,0,444,170c4.5-1.4,9.4-3.6,10.7-10.1S454.2,148,450,147.7Z" transform="translate(-9.6)"/><path class="cls-13" d="M376.3,140.2a7.7,7.7,0,0,0,6.6-2.5,31,31,0,0,0,4.1-5.9c2.4-4.3,5.3-8.5,9.3-11.3a47.8,47.8,0,0,1,8.8-4.3c6.3-2.4,13-5,19.6-3.6s11.4,6.1,16.4,10.4,10.6,8.6,17.2,8.6l-8.5,1.1c5.5,3.8,9.2,10.6,8.3,17.2-.6,4.3-3,8-4.5,12s-2,9,.8,12.3a6.8,6.8,0,0,1-4.4-3.9,11.8,11.8,0,0,1-12.9,12.9c2.4-1.1,3.4-4,3.4-6.6s-.9-5.2-1.3-7.8a10.5,10.5,0,0,1,.7-6.8,4.2,4.2,0,0,1-3.3,1.6,18.2,18.2,0,0,0,2-17.6,34.5,34.5,0,0,1-16.1-12.4,10.5,10.5,0,0,1-4,12.4,59.2,59.2,0,0,0-6-16.3c.9,3.7-1.6,7.4-4.5,10s-6.2,4.7-8,8.1-1.3,8.5,2.3,9.8a5.2,5.2,0,0,1-6.9-2.2,20.4,20.4,0,0,1,1.8,13.9,16.4,16.4,0,0,0-.5,3.7,2.8,2.8,0,0,0,2.2,2.7,4.3,4.3,0,0,1-3.8-1.5,6.1,6.1,0,0,1,1.2,6.4,6,6,0,0,1-5.4,3.7c2-1.2,1.9-4.2.7-6.1s-3.3-3.2-5.1-4.6a22.1,22.1,0,0,1-3.5-30.7A6.1,6.1,0,0,1,376.3,140.2Z" transform="translate(-9.6)"/><path class="cls-19" d="M427.6,167.7a7.8,7.8,0,0,0-1.5-2.2,13.5,13.5,0,0,1-1.5-2.6,17.3,17.3,0,0,1-1.6-5.8.9.9,0,0,0-1.1-.8.9.9,0,0,0-.8,1.1,17.8,17.8,0,0,0,3.6,9.3c.7,1.1,1.8,2.2.7,3.4s-3,.9-4.4.7-1.4,1.8-.2,2,4,.4,5.6-.8A3.6,3.6,0,0,0,427.6,167.7Z" transform="translate(-9.6)"/><path class="cls-13" d="M408,158.1c.2,1.9,1.4,3.3,2.7,3.2s2.1-1.7,1.8-3.5-1.5-3.3-2.7-3.2S407.7,156.3,408,158.1Z" transform="translate(-9.6)"/><path class="cls-13" d="M427.7,158c.2,1.9,1.5,3.3,2.7,3.2s2.1-1.7,1.8-3.5-1.4-3.3-2.7-3.2S427.4,156.2,427.7,158Z" transform="translate(-9.6)"/><path class="cls-13" d="M428.4,144.9a2,2,0,0,1,1.3-.1c2.8.3,4.8,2.7,5.2,5.9a3.5,3.5,0,0,0-.7-1.2h0l-.6-.5a5.9,5.9,0,0,0-2.6-1,9,9,0,0,1-2.8-.8,1.1,1.1,0,0,1-.7-1.1A1.9,1.9,0,0,1,428.4,144.9Z" transform="translate(-9.6)"/><path class="cls-13" d="M411.3,144.1a1.9,1.9,0,0,0-1.2-.4c-2.8-.3-5.1,1.6-5.9,4.6a2.7,2.7,0,0,1,.8-1h.1l.6-.4a4.9,4.9,0,0,1,2.7-.3,12.9,12.9,0,0,0,2.8-.1,1.3,1.3,0,0,0,.9-1A2,2,0,0,0,411.3,144.1Z" transform="translate(-9.6)"/><path class="cls-19" d="M411.8,173.9a12.4,12.4,0,0,0,11.5,2.7.9.9,0,0,1,.4,1.8,14.1,14.1,0,0,1-13.2-3.2C409.6,174.4,410.9,173.1,411.8,173.9Z" transform="translate(-9.6)"/><path class="cls-10" d="M367.6,673.6s3.4,6.6,2,22.2H357.2v-3.9l-8.9,3.9H303.2s-1.8-6.2,14.3-5.6l31-19.8h18.8Z" transform="translate(-9.6)"/><path class="cls-10" d="M437.5,673.6s-3.4,6.6-2,22.2h12.4v-3.9l8.9,3.9h45.1s1.8-6.2-14.3-5.6l-31-19.8H437.8Z" transform="translate(-9.6)"/><path class="cls-13" d="M472.6,331.3V483.7l-1,11.6-15,175.1-19.4-.3s-15.7-119.5-6.5-180.6c.5-3.4,1.1-6.7,1.8-9.7l-5-92.2H414.8l-17.3,106L368,674.9H346.2l6.1-185.7.3-11.9s3.9-113.4,30.2-153.2l-36.5-94.4,51.3-35.1,20,6.8,18.8-6.8L462.2,206Z" transform="translate(-9.6)"/><path class="cls-14" d="M472.6,331.3V483.7l-1,11.6c-17.1,2.6-31.7-1.8-40.9-5.8a65.5,65.5,0,0,1-10.3-5.6,57.9,57.9,0,0,1-22.9,9.7c-18.4,3.7-36.3-1.2-45.2-4.4l.3-11.9s3.9-113.4,30.2-153.2l-36.5-94.4,51.3-35.1,20,6.8,18.8-6.8L462.2,206Z" transform="translate(-9.6)"/><path class="cls-16" d="M429,290l-35.7.3c-1.1.1-1.1,1.8,0,1.7l35.7-.3A.9.9,0,0,0,429,290Z" transform="translate(-9.6)"/><path class="cls-16" d="M414.9,265.9H385a.9.9,0,0,0-.9.7.9.9,0,0,0-.3.6v8.6a1.1,1.1,0,0,0,.6.9,1,1,0,0,0,.9.8h28.6a.7.7,0,0,0,.6-.3.9.9,0,0,0,1.1-.9v-8.7A1,1,0,0,0,414.9,265.9Zm-1.3,9.6H385.8v-7.6h27.8Z" transform="translate(-9.6)"/><path class="cls-10" d="M381.4,256.8h2.2a1.5,1.5,0,0,1,1.5,1.5v7.6a0,0,0,0,1,0,0h-5.2a0,0,0,0,1,0,0v-7.6a1.5,1.5,0,0,1,1.5-1.5Z"/><path class="cls-13" d="M386.6,256.8h2.2a1.5,1.5,0,0,1,1.5,1.5v7.6a0,0,0,0,1,0,0h-5.2a0,0,0,0,1,0,0v-7.6A1.5,1.5,0,0,1,386.6,256.8Z"/><path class="cls-10" d="M391.7,256.8H394a1.5,1.5,0,0,1,1.5,1.5v7.6a0,0,0,0,1,0,0h-5.2a0,0,0,0,1,0,0v-7.6A1.5,1.5,0,0,1,391.7,256.8Z"/><path class="cls-13" d="M396.9,256.8h2.2a1.5,1.5,0,0,1,1.5,1.5v7.6a0,0,0,0,1,0,0h-5.2a0,0,0,0,1,0,0v-7.6A1.5,1.5,0,0,1,396.9,256.8Z"/><path class="cls-16" d="M445.4,335.4c-.5-20.2-3-40.5-8.6-60a281.6,281.6,0,0,0-9.1-26.8c-1.9-5-4-9.9-6.1-14.8a1.6,1.6,0,0,0-2-.5,1.4,1.4,0,0,0-.5,2,307.5,307.5,0,0,1,18.1,52.8c6.2,25,6.2,51.7,5,77.3a13.4,13.4,0,0,0-.1,2c-.7,12.2-1.9,24.3-3.6,36.4s-4.1,24.2-6.9,36.1-6.2,23.7-10.1,35.4l-1.5,4.2c-.6,1.8,2.2,2.5,2.8.8,4-11.6,7.6-23.4,10.5-35.3s5.5-24,7.3-36.1,3.3-24.4,4.1-36.7S445.7,347.7,445.4,335.4Z" transform="translate(-9.6)"/><path class="cls-14" d="M346.3,229.7c-3.6,4.7-4.4,13.8-.8,29.8,4.3,18.8,5,85.8,27.3,85.8,0,0,23.1,4.3,78.8-41.4l-14.4-15.8L381,305.3l-7.4-33.6c-2.1-9.4-.1-14.9-6.9-21.7Z" transform="translate(-9.6)"/><path class="cls-14" d="M428.7,321.3s62.6,10.7,68.2-13.5a12.5,12.5,0,0,0,.2-4.3c-1.2-8.9-6.5-47.4-18.5-83.5,0,0-2.6-8-16.4-14l5.1,85.6Z" transform="translate(-9.6)"/><path class="cls-18" d="M440,291.1l11.6,12.8,15.7-12.3C453.7,277.5,440,291.1,440,291.1Z" transform="translate(-9.6)"/><path class="cls-16" d="M483.3,295.1a16,16,0,0,0-14.7-4.3,24.8,24.8,0,0,1,13.1-12.2c.9-.4.5-1.8-.4-1.4a26.7,26.7,0,0,0-14.5,13.9v.3h-.1c-.8.3-.5,1.7.4,1.4a14.5,14.5,0,0,1,15.2,3.3C482.9,296.8,483.9,295.8,483.3,295.1Z" transform="translate(-9.6)"/><path class="cls-16" d="M383.2,303c-3.2-11.7-6.2-23.4-9.4-35.1a85.1,85.1,0,0,0-5.3-14.9c-2.4-4.6-9.4-16.4-16.6-19.4a.7.7,0,0,0-.7,1.3c8.3,5.6,10.3,8.4,15.3,17.5a69.4,69.4,0,0,1,5.6,14.8c1.5,5.5,3,11.1,4.4,16.6s3.5,13.1,5.3,19.6C382,304.3,383.4,303.9,383.2,303Z" transform="translate(-9.6)"/><path class="cls-18" d="M380.4,288.8s-15-1.9-20-4.3a2,2,0,0,0-2.8,1c-.4.8-.3,1.9.9,3.4a8.5,8.5,0,0,0,3.9,2.5l3.7,1.3S378.3,295.5,380.4,288.8Z" transform="translate(-9.6)"/><path class="cls-18" d="M392.6,291l4.1,9.5-15.4,4.4s-15.8,13.9-25.3,12.3c-1.3-.2-1.6-2-.7-2.9l1.5-1.1a5.2,5.2,0,0,1-3.3,1.9,1,1,0,0,1-.8-1.6l1.8-2.6s-1.6,1.7-3,1.7a1,1,0,0,1-.9-1.5c2-3.1,9.3-14.1,18.1-20.5C368.7,290.6,374.2,286,392.6,291Z" transform="translate(-9.6)"/><path class="cls-16" d="M436.6,287.8l-33.7,11.9a.9.9,0,0,0,.6,1.6l33.7-11.9A.9.9,0,0,0,436.6,287.8Z" transform="translate(-9.6)"/><path class="cls-20" d="M368.5,301.6l-13.3,12.1c-.7.6.2,1.8.9,1.1l13.3-12.1C370.1,302.1,369.2,300.9,368.5,301.6Z" transform="translate(-9.6)"/><path class="cls-20" d="M366.2,297.3A162,162,0,0,0,353,311.6c-.6.7.5,1.6,1.1.9a157.2,157.2,0,0,1,13-14C367.8,297.8,366.9,296.7,366.2,297.3Z" transform="translate(-9.6)"/><path class="cls-16" d="M471,321.2a134.5,134.5,0,0,1-42-.7h-.2l5.5-4c5.4-4,10.6-8.2,15.7-12.6.7-.6-.3-1.6-1-1a341.2,341.2,0,0,1-28.1,21.4c-9.7,6.4-19.7,12.9-30.7,16.7a57.9,57.9,0,0,1-19.8,3.2c-.9,0-.9,1.4,0,1.5,12,.3,23.5-3.9,33.9-9.5A218.2,218.2,0,0,0,428.1,321a.7.7,0,0,0,.5.9,136.5,136.5,0,0,0,42.8.7C472.3,322.4,471.9,321,471,321.2Z" transform="translate(-9.6)"/><path class="cls-16" d="M466.2,241.7c-2.3-3.9-4.9-7.6-7.5-11.3a1.6,1.6,0,0,0-2-.5,1.4,1.4,0,0,0-.6,2c4.5,6.4,9,12.8,11.8,20.1a34.1,34.1,0,0,1,2.6,10.8,38.4,38.4,0,0,1-1.3,12.2,127.8,127.8,0,0,1-4.9,13.5,1.5,1.5,0,0,0,1.1,1.9,1.5,1.5,0,0,0,1.8-1.1c3.3-7.9,6.6-16.2,6.4-25S470.2,248.6,466.2,241.7Z" transform="translate(-9.6)"/><polygon class="cls-10" points="423 194.3 417.9 194.3 408 200.8 398.1 194.3 393 194.3 398.4 213.2 408 227.9 417.6 213.2 423 194.3"/><path class="cls-14" d="M426.1,201.5v.6l-8.7,23.5-9.6-23.5v-.4a13,13,0,0,0-10.3-12.5l-.8-.2v10.4l7,28.5h26.1l6.3-28.5V189h0A13,13,0,0,0,426.1,201.5Z" transform="translate(-9.6)"/><path class="cls-10" d="M452.6,202.3a38,38,0,0,0-16.5-8v1.6a36.4,36.4,0,0,1,17,9c5.9,5.7,9.4,14.1,7.9,22.3-.2,1,1.3,1.4,1.5.4C464.3,218.1,459.9,208.5,452.6,202.3Z" transform="translate(-9.6)"/><path class="cls-13" d="M450.1,235.2v28.7a.5.5,0,0,0,.4.6h0l5.9,4.2h.1a1.5,1.5,0,0,0,0,1.3,3.1,3.1,0,0,0,1,1.3,2.4,2.4,0,0,0,2.8.1,1.5,1.5,0,0,0,.4-1.7,6.7,6.7,0,0,0-.9-1.4,4.2,4.2,0,0,0-1.4-.9h-1.1l-5.6-4v-28l10.5-7.6c.8-.6,0-2-.8-1.4l-10.7,7.7-.2.3A.8.8,0,0,0,450.1,235.2Z" transform="translate(-9.6)"/><path class="cls-13" d="M473.3,234.5l-.3-.3-10.6-7.7c-.9-.6-1.6.8-.8,1.4l10.5,7.6v28l-5.7,4h-1.1a3,3,0,0,0-1.3.9,4.5,4.5,0,0,0-1,1.4,1.7,1.7,0,0,0,.4,1.7,2.4,2.4,0,0,0,2.8-.1,3.1,3.1,0,0,0,1-1.3,2,2,0,0,0,.1-1.3h0l5.9-4.2a.1.1,0,0,0,.1-.1.7.7,0,0,0,.4-.6V235.2A1,1,0,0,0,473.3,234.5Z" transform="translate(-9.6)"/><path class="cls-10" d="M368.5,252.2c-.1,1.1,1.5,1.1,1.7,0,1.1-10.6-.8-21.7,2.4-32.1a35.1,35.1,0,0,1,24.3-22.9v-1.8a41,41,0,0,0-12.5,5.9,35.8,35.8,0,0,0-14,20.6C368,231.8,369.6,242.1,368.5,252.2Z" transform="translate(-9.6)"/><path class="cls-13" d="M364.4,253.9a4.8,4.8,0,1,0,4.7-4.7A4.7,4.7,0,0,0,364.4,253.9Z" transform="translate(-9.6)"/><circle class="cls-10" cx="359.6" cy="253.9" r="3.3"/><path class="cls-16" d="M396.3,195.3c-.1,4.8-.2,9.6-.2,14.5-.1.9,1.4.9,1.4,0,.1-4.9.2-9.7.2-14.5C397.8,194.3,396.3,194.3,396.3,195.3Z" transform="translate(-9.6)"/><path class="cls-16" d="M434.7,193.5c-.1,4.9-.2,9.7-.2,14.5-.1,1,1.4,1,1.4,0,.1-4.8.2-9.6.2-14.5C436.2,192.6,434.7,192.6,434.7,193.5Z" transform="translate(-9.6)"/><path class="cls-14" d="M198.2,195l-.3-11.4a3.3,3.3,0,0,0-4.9-2.7l-13,7.7a44.9,44.9,0,0,0-20.3,26.1h0l6.9,13.8Z" transform="translate(-9.6)"/><path class="cls-14" d="M123,451.6l11.6,1.7c24.5,3.2,67.3,8,102.6-3a830.3,830.3,0,0,1-9.6-126.9c0-19,.6-37.9,1.8-56.8.7-10.6.8-19.3.1-23.7-3-20.1-14.7-35.4-23.1-44.2a97.9,97.9,0,0,0-9.1-8.3s-23.3,6.5-35.2,20.1H162a87.2,87.2,0,0,0-8.1,11.6c-2.9,4.8-5.9,10.3-8.7,15.8a106.5,106.5,0,0,0-11.4,61l.4,3.7c.5,4.3,3.6,45.5,3.6,45.5Z" transform="translate(-9.6)"/><path class="cls-9" d="M171.5,217.4a43.2,43.2,0,0,0,11.7-4.3c9.3-5.2,17.2-12.9,20.9-16.7a71.5,71.5,0,0,0-6.6-5.8,78.7,78.7,0,0,0-9.2,3l-1.5.6a88.9,88.9,0,0,0-14,7.2l-1.1,1.1a56.9,56.9,0,0,0-3.8,11.2A3,3,0,0,0,171.5,217.4Z" transform="translate(-9.6)"/><path class="cls-9" d="M197.3,198.5a12.2,12.2,0,0,1-6.9,11.2,12.7,12.7,0,0,1-3.6,1.2c-7.1,1.4-14.2-3.4-14.1-10.6v-4.2l.4-8.2a2.7,2.7,0,0,1,1.4-2.2l8-3.9,5.3-3.3,8-5,.4-.2v2l.6,15.4.2,3.7Z" transform="translate(-9.6)"/><path class="cls-12" d="M190.8,177c.7,10.2-6.9,19.8-18.1,23.3v-4.2l.4-8.2a2.7,2.7,0,0,1,1.4-2.2l8-3.9,5.3-3.3Z" transform="translate(-9.6)"/><path class="cls-9" d="M218.7,150.3s-1-10.9-9-6.6c0,0,5.1-21.5-7.2-27.4,0,0-17.2-13.3-35,0a31.3,31.3,0,0,0-7.4,8.4c-2.8,4.5-6.5,11.7-6.2,18.1a36.7,36.7,0,0,1-.6,11.3,32.8,32.8,0,0,0-.1,13.6,36.4,36.4,0,0,0,5.4,13c5.6,8.4,16.1,12.1,25.4,8.5,4.7-1.8,10.2-5.2,16.3-11.3a36.9,36.9,0,0,0,9-16.8S219.7,161.1,218.7,150.3Z" transform="translate(-9.6)"/><path class="cls-13" d="M189.3,152.9h.3a9.9,9.9,0,0,0-6.9-6.8,2.2,2.2,0,0,0-1.6-.1,1.3,1.3,0,0,0-1,1.1c0,.6.6,1.1,1.1,1.4a17.1,17.1,0,0,0,3.4,1.3,7.7,7.7,0,0,1,3.3,1.5A4.3,4.3,0,0,1,189.3,152.9Z" transform="translate(-9.6)"/><path class="cls-13" d="M169.1,145.2a3.9,3.9,0,0,0-1.4-.8,10,10,0,0,0-9.8,2.2l1.5-.6h1.1a9.1,9.1,0,0,1,3.6.6,15.3,15.3,0,0,0,3.6.7,1.5,1.5,0,0,0,1.6-.5A1.4,1.4,0,0,0,169.1,145.2Z" transform="translate(-9.6)"/><path class="cls-12" d="M183.2,172.5a13,13,0,0,1-12.1,2.8c-1.2-.3-1.6,1.6-.4,1.9a14.8,14.8,0,0,0,13.9-3.4C185.5,173,184.1,171.6,183.2,172.5Z" transform="translate(-9.6)"/><path class="cls-12" d="M169.8,168.5a6.9,6.9,0,0,1-3.2-.4,4.2,4.2,0,0,1-1.4-.9l-.2-.2h0c0-.3.3-.6.4-.8a47.1,47.1,0,0,1,4-6.5,1,1,0,1,0-1.4-1.3c-.9,1.2-1.8,2.6-2.7,3.9l-1.1,2a8.8,8.8,0,0,0-1,2.2c-.5,1.6,1.1,2.7,2.3,3.3a8.4,8.4,0,0,0,4.4.7,1,1,0,1,0-.1-1.9Z" transform="translate(-9.6)"/><path class="cls-13" d="M184.2,157.8c-.3,1.8-1.4,3.1-2.6,3s-2-1.7-1.8-3.4,1.4-3.1,2.6-3S184.4,156.1,184.2,157.8Z" transform="translate(-9.6)"/><path class="cls-13" d="M164.4,156.4c-.3,1.7-1.4,3.1-2.6,2.9s-2-1.6-1.8-3.4,1.4-3.1,2.6-2.9S164.6,154.6,164.4,156.4Z" transform="translate(-9.6)"/><path class="cls-18" d="M144.2,125.2a11.8,11.8,0,0,1,10-9c1.9-8.3,10.7-14.4,19.1-13.2a26.8,26.8,0,0,1,21.8-3.9c3.2.8,6.6,2.8,6.8,6.1a23.3,23.3,0,0,1,13.3,6,8.4,8.4,0,0,1,2.7,3.8,4,4,0,0,1-1.1,4.4,17.3,17.3,0,0,1,10.4,9.9,8.3,8.3,0,0,1,.7,4.6,3.8,3.8,0,0,1-3.2,3.1,12.8,12.8,0,0,1,3.6,10.5,13,13,0,0,1-5.9,9.4,8.7,8.7,0,0,1-.3,10.4,8.6,8.6,0,0,1-10.2,2.2c0,2.9-.9,5.9-3.1,7.7s-6,1.9-7.7-.4a8.9,8.9,0,0,1-4.1-15.4,20.3,20.3,0,0,1-1.4-20.1c-1.1,1-10.9,3.8-12.7-5.5a8,8,0,0,1-7.8,3.4,8.1,8.1,0,0,1-6.6-5.5,6.2,6.2,0,0,1-11,3.2,6.4,6.4,0,0,1-3.2,8.3,13,13,0,0,1-1.6,9.8c-2.8-1.3-4.5-4.3-5.4-7.3s-.9-6.1-1.5-9.2S143.3,129.6,144.2,125.2Z" transform="translate(-9.6)"/><path class="cls-14" d="M206.4,198.7l-.4-11.4a3.2,3.2,0,0,0-4.9-2.6l-13,7.7a45,45,0,0,0-20.3,26h0l6.9,13.8Z" transform="translate(-9.6)"/><path class="cls-16" d="M160.8,233.2c.6-1.6,1.2-3.2,1.9-4.7a63.5,63.5,0,0,0,1.8-13.7c.1-.7,1.2-.7,1.2,0a69.9,69.9,0,0,1-.9,9.2c1.1-2.4,2.4-4.7,3.7-7.1.1-.3.5-.3.7-.2l.3-.3a156.2,156.2,0,0,0,25.5-12c2.3-1.4,4.6-2.8,6.8-4.3.6-.4,1.2.6.6,1a163.6,163.6,0,0,1-25.1,13.4l-7.5,3h-.4c-2,3.6-3.9,7.4-5.6,11.2l-.6,2.5a.5.5,0,0,1-.6.4c-.2.6-.5,1.2-.7,1.9S160.5,233.8,160.8,233.2Z" transform="translate(-9.6)"/><polygon class="cls-10" points="155.4 355.3 84.4 361.4 68.5 265 84 263.5 124.3 259.6 138.5 258.2 155.4 355.3"/><path class="cls-17" d="M133,270.6a20.3,20.3,0,0,1-39.4-7.1l40.3-3.9A19.9,19.9,0,0,1,133,270.6Z" transform="translate(-9.6)"/><path class="cls-14" d="M216.4,302.5l-36,.3,5.1,29.5,43.5-3.4a18,18,0,0,0,7.7-.7h0A17.2,17.2,0,0,0,247.1,318a16.6,16.6,0,0,0,.4-9.9l-9.3-35.9-7.4-28.5a100.2,100.2,0,0,0-8.3-21.7l-26.9,27,14,35.8,6.9,17.7Z" transform="translate(-9.6)"/><polygon class="cls-9" points="144.1 303 145.9 320.4 153.6 321.2 154 321.3 174.4 323.6 170.8 302.8 156.2 302.9 155.4 302.9 144.1 303"/><polygon class="cls-21" points="144.1 303 145.9 320.4 153.6 321.2 154 321.3 174.4 323.6 170.8 302.8 156.2 302.9 155.4 302.9 144.1 303"/><path class="cls-9" d="M158.7,317.6a3,3,0,0,0,1.9-3.1,3.1,3.1,0,0,0-2.7-2.5,2.4,2.4,0,0,0,2.2-2.1c.1-1-1.2-2.3-2-2.8.7-1.2,1.5-2.4.7-3.6a5.4,5.4,0,0,0-3.7-2.1,21.2,21.2,0,0,0-4.4.3c-5.5.9-10.9,1.8-16.3,3a5.4,5.4,0,0,0-2.2.9,1.9,1.9,0,0,0-.9,2c.2,1,1.3,1.4,2.3,1.6a2.3,2.3,0,0,0-2.2,2.2,2.3,2.3,0,0,0,1.8,2.1,2,2,0,0,0-1.2,1.6,2.7,2.7,0,0,0,2.1,2.6,4.2,4.2,0,0,0,2.7-.1,2,2,0,0,0-.6,2.4,4.9,4.9,0,0,0,2.7,2.2c5,2.3,10.6,3.5,16,2.3a7.2,7.2,0,0,0,4.3-2.4C160.2,320.7,160.1,318.5,158.7,317.6Z" transform="translate(-9.6)"/><path class="cls-21" d="M150.4,306.4c-5.7.9-11.5,1.7-17.3,2.4-.7.1-.6,1.1,0,1q8.7-1.1,17.4-2.4C151.1,307.3,151.1,306.3,150.4,306.4Z" transform="translate(-9.6)"/><path class="cls-21" d="M151.6,311.1a96.2,96.2,0,0,1-18.5,2.1c-.7,0-.6,1,0,1a108.2,108.2,0,0,0,18.8-2.1C152.5,311.9,152.2,311,151.6,311.1Z" transform="translate(-9.6)"/><path class="cls-21" d="M151.5,316.5a43.5,43.5,0,0,1-14.8.8c-.6-.1-.8.9-.2,1a46.3,46.3,0,0,0,15.3-.8C152.4,317.3,152.1,316.4,151.5,316.5Z" transform="translate(-9.6)"/><path class="cls-9" d="M75.9,317a2.8,2.8,0,0,1,.8-5.5,2.5,2.5,0,0,1-2.2-2.2c-.1-.9,1.2-2.3,2-2.7s-1.5-2.5-.7-3.6a5.1,5.1,0,0,1,3.7-2.1,12.9,12.9,0,0,1,4.4.3c5.5.9,10.9,1.7,16.3,3a7.2,7.2,0,0,1,2.2.8,2,2,0,0,1,.9,2.1c-.2,1-1.3,1.4-2.3,1.5a2.5,2.5,0,0,1,2.2,2.3,2.1,2.1,0,0,1-1.8,2,1.9,1.9,0,0,1,1.2,1.7,2.8,2.8,0,0,1-2,2.6,6.6,6.6,0,0,1-2.8-.1,2,2,0,0,1,.6,2.4,4.9,4.9,0,0,1-2.7,2.2c-4.9,2.3-10.6,3.5-16,2.3a7.3,7.3,0,0,1-4.3-2.5C74.4,320.1,74.5,317.9,75.9,317Z" transform="translate(-9.6)"/><path class="cls-21" d="M84.2,305.8c5.7,1,11.5,1.8,17.3,2.5.7.1.6,1.1,0,1-5.8-.7-11.6-1.5-17.4-2.5C83.5,306.7,83.5,305.7,84.2,305.8Z" transform="translate(-9.6)"/><path class="cls-21" d="M83,310.6a104.7,104.7,0,0,0,18.5,2c.7,0,.6,1,0,1a99.3,99.3,0,0,1-18.8-2.1C82.1,311.4,82.4,310.4,83,310.6Z" transform="translate(-9.6)"/><path class="cls-21" d="M83.1,316a43.4,43.4,0,0,0,14.8.7c.6-.1.8.9.2,1a43.7,43.7,0,0,1-15.3-.8C82.2,316.8,82.5,315.8,83.1,316Z" transform="translate(-9.6)"/><path class="cls-16" d="M198.8,238.5l12.6,45.9,3.6,12.9c.2.7-.9.9-1.1.2l-12.6-45.8-3.6-13C197.5,238,198.6,237.8,198.8,238.5Z" transform="translate(-9.6)"/><g class="cls-22"><path class="cls-23" d="M200.8,142.7a1.1,1.1,0,1,1,1.9,1.1,19.1,19.1,0,0,0-.9,13.7,1.1,1.1,0,0,1-2.2.6A21.1,21.1,0,0,1,200.8,142.7Z" transform="translate(-9.6)"/><path class="cls-23" d="M208.6,163a7.1,7.1,0,0,0,4.6-2.7,6.9,6.9,0,0,0,.8-5.9c-.4-1.3,1.7-1.9,2.1-.6a8.6,8.6,0,0,1-7,11.3c-.6.1-1.2-.1-1.3-.7A1.1,1.1,0,0,1,208.6,163Z" transform="translate(-9.6)"/><path class="cls-23" d="M202.3,164.2a1.2,1.2,0,0,1,1.4.8l.9,3.4a1,1,0,0,1-.7,1.4,1.2,1.2,0,0,1-1.4-.8c-.3-1.1-.6-2.3-1-3.4A1.2,1.2,0,0,1,202.3,164.2Z" transform="translate(-9.6)"/><path class="cls-23" d="M158.1,128.9a.9.9,0,0,1,1.5,0l4.1,3.6a1.1,1.1,0,0,1-1.6,1.6l-4-3.7A.9.9,0,0,1,158.1,128.9Z" transform="translate(-9.6)"/><path class="cls-23" d="M150.1,133.8a1.2,1.2,0,0,1,1.2-1.1,1.2,1.2,0,0,1,1.1,1.1,34.3,34.3,0,0,0,.8,9.6c.3,1.4-1.8,2-2.1.6A38.8,38.8,0,0,1,150.1,133.8Z" transform="translate(-9.6)"/><path class="cls-23" d="M171.1,127.9a1.2,1.2,0,0,1,1.5.4,25.4,25.4,0,0,0,5.3,6.9,1.1,1.1,0,0,1-1.5,1.5,28.3,28.3,0,0,1-5.7-7.2A1.2,1.2,0,0,1,171.1,127.9Z" transform="translate(-9.6)"/><path class="cls-23" d="M186.4,129.3a1.1,1.1,0,0,1,1.4.8,17.1,17.1,0,0,0,5.9,7.9,1.2,1.2,0,0,1,.4,1.5,1.3,1.3,0,0,1-1.6.4,20.4,20.4,0,0,1-6.9-9.2A1.1,1.1,0,0,1,186.4,129.3Z" transform="translate(-9.6)"/><path class="cls-23" d="M207.6,149.9a26.3,26.3,0,0,0,1.3-13.9,1.1,1.1,0,1,1,2.2-.6,28.7,28.7,0,0,1-1.3,15.1C209.3,151.8,207.1,151.3,207.6,149.9Z" transform="translate(-9.6)"/><path class="cls-23" d="M148.3,124.4a6.5,6.5,0,0,1,3.1-2.8,1.1,1.1,0,0,1,1.1,1.9l-.7.4h-.4c0,.1-.1.1-.2.2l-.5.6h0l-.2.2-.2.4-.2.3c0,.1,0,.1-.1.2h0a2.4,2.4,0,0,0-.2.8c0,.1,0,.2-.1.2h0v1h0c.1.6-.1,1.3-.8,1.4a1.1,1.1,0,0,1-1.3-.8A7,7,0,0,1,148.3,124.4Z" transform="translate(-9.6)"/><path class="cls-23" d="M149.7,127h0Z" transform="translate(-9.6)"/><path class="cls-23" d="M196.2,126.2a1.1,1.1,0,0,1,1.6,0,17.7,17.7,0,0,1,4,8.1,1.1,1.1,0,0,1-.8,1.3,1.2,1.2,0,0,1-1.4-.7,11.3,11.3,0,0,0-1.2-3.8,12.7,12.7,0,0,0-2.2-3.3A1.3,1.3,0,0,1,196.2,126.2Z" transform="translate(-9.6)"/></g><path class="cls-16" d="M192,252.8H158.8a1,1,0,0,0-1,.7.9.9,0,0,0-.3.7v9.6a.9.9,0,0,0,.6.9,1.1,1.1,0,0,0,1.1.9h31.7l.7-.2a1.1,1.1,0,0,0,1.2-1.1v-9.6A1.1,1.1,0,0,0,192,252.8Zm-1.5,10.6H159.7V255h30.8Z" transform="translate(-9.6)"/><path class="cls-10" d="M155.7,242.7h2.8a1.5,1.5,0,0,1,1.5,1.5v8.6a0,0,0,0,1,0,0h-5.7a0,0,0,0,1,0,0v-8.6a1.5,1.5,0,0,1,1.5-1.5Z"/><path class="cls-13" d="M161.4,242.7h2.8a1.5,1.5,0,0,1,1.5,1.5v8.6a0,0,0,0,1,0,0H160a0,0,0,0,1,0,0v-8.6A1.5,1.5,0,0,1,161.4,242.7Z"/><path class="cls-10" d="M167.2,242.7H170a1.5,1.5,0,0,1,1.5,1.5v8.6a0,0,0,0,1,0,0h-5.7a0,0,0,0,1,0,0v-8.6a1.5,1.5,0,0,1,1.5-1.5Z"/><path class="cls-13" d="M172.9,242.7h2.8a1.5,1.5,0,0,1,1.5,1.5v8.6a0,0,0,0,1,0,0h-5.7a0,0,0,0,1,0,0v-8.6A1.5,1.5,0,0,1,172.9,242.7Z"/><path class="cls-9" d="M311.9,155.9c-7.9-7.7-5.6-22.5-12.1-31.7-4.8-6.8-13.4-8.6-20.8-8.2-11.9.6-29.5,5.8-35.6,18.5-2.6,5.3-3.5,11.4-5.1,17.2s-4,11.6-8.4,15.1a10.9,10.9,0,0,0,7.7-3,25.6,25.6,0,0,0-2.2,22.4c1,2.6,2.4,5,3.3,7.6s1.5,5.7.6,8.3a14.3,14.3,0,0,0,3.7-7.7c2,6.5,7.9,11.3,14.1,11.6a15.8,15.8,0,0,1,6.7-7.5c-.1,5.1,4.2,9.7,8.8,9.4a15.9,15.9,0,0,1,1.7-11.1,10.6,10.6,0,0,1,4.9,9.8c6.5-4.3,10.6-12.6,10.4-21,2.1,7.5,9.8,12.6,16.7,11-2.9-1.9-6.2-4.4-6.4-8.2s1.5-5.2,2.8-7.5a37.5,37.5,0,0,0,3.2-27.7A7,7,0,0,0,311.9,155.9Z" transform="translate(-9.6)"/><path class="cls-10" d="M324,499.3c-6.7,47.2-16.7,97.7-25.4,146.8H285.9l-1.4-150-1.1-119.3H272.6l-1.2,130.9-1.2,141.4-17.4.6c-6.1-53-13-107.5-17.4-156.8-7.7-85.5-8.2-155.4,14.7-175.2l59.4-6.9C337.8,349.5,335.5,419.7,324,499.3Z" transform="translate(-9.6)"/><path class="cls-10" d="M319.8,680.3H287.7a5.1,5.1,0,0,1-5.1-4.3c-1-7.1-2.2-21.2,3.3-28.6v-1.3l12.7-.5v.5l12,26.6S319.4,672.1,319.8,680.3Z" transform="translate(-9.6)"/><path class="cls-10" d="M271.6,680.3h-7.7V669.6a1.2,1.2,0,0,0-2.4-.3c-2.5,7.2-7.6,11.3-15.2,11H215a2.2,2.2,0,0,1-1.2-4.1c13.3-3.9,33.3-16.7,39-26.5l17.4-.6-.5,1.8C271.6,655.3,274.2,666.9,271.6,680.3Z" transform="translate(-9.6)"/><path class="cls-18" d="M249.6,303.2l-21.5,42.1L221,359l-16,31.4c1.8,12.1,1.8,18.4,1.3,21.6a1.5,1.5,0,0,1-2.9.2l-2.4-9.3-1.3,13.6a33.8,33.8,0,0,1,7.9,8.1,1.5,1.5,0,0,1-1.8,2.1l-4.1-1.9a13.6,13.6,0,0,1-7.9-13.5l1.6-22.2,11.8-39.8,4.1-13.9,11.8-40.1a157,157,0,0,1,.5-22.4,476.2,476.2,0,0,1,6.6-47.4,21.2,21.2,0,0,1,4.8-10,21.6,21.6,0,0,1,9.6-6.6l.4,6.6,3,57.4Z" transform="translate(-9.6)"/><path class="cls-10" d="M248,272.9H223.6a476.2,476.2,0,0,1,6.6-47.4,21.2,21.2,0,0,1,4.8-10h10Z" transform="translate(-9.6)"/><path class="cls-10" d="M328.7,220.4c-6.2,31.8-18.4,61.2-33,92.3l-45.6,5.1-11.4-40.6-6.5-8.6a18.6,18.6,0,0,1-3.3-15.3l1.6-7.6a14.7,14.7,0,0,0,.4-3.6,15.5,15.5,0,0,0-.7-4.8,23.7,23.7,0,0,1,12.2-28.2,85.9,85.9,0,0,1,9.1-3.6,88.6,88.6,0,0,1,30-4.3,102.4,102.4,0,0,1,19.1,2.9c13.8,3.6,22.7,9.3,26.5,12.2A4,4,0,0,1,328.7,220.4Z" transform="translate(-9.6)"/><rect class="cls-11" x="267.8" y="251" width="27.4" height="6.38" rx="3.2"/><path class="cls-17" d="M266.2,240.8a138.9,138.9,0,0,1-14.5-23.5c-1.2-2.4-2.2-4.8-3.2-7.3-.3-.6-1.4-.3-1.1.3a126.6,126.6,0,0,0,13.2,24.6c1.5,2.2,3,4.3,4.6,6.4C265.6,241.9,266.6,241.3,266.2,240.8Z" transform="translate(-9.6)"/><path class="cls-17" d="M303.3,206.1c-8.1,9.1-16.6,17.8-25.6,26.1-2.6,2.4-5.2,4.8-7.9,7.1-.5.5.1,1.4.7.9a339.4,339.4,0,0,0,26.6-25.7c2.4-2.5,4.7-5.1,7-7.7A.5.5,0,1,0,303.3,206.1Z" transform="translate(-9.6)"/><path class="cls-18" d="M300.6,204.1c-7.1,6.5-33.4,31.6-33.4,31.6s-10.2-19.4-15.7-30.2a88.6,88.6,0,0,1,30-4.3A102.4,102.4,0,0,1,300.6,204.1Z" transform="translate(-9.6)"/><path class="cls-18" d="M283.3,175.4v28.7a13.1,13.1,0,0,1-4.9,10.5h0c-7.1,5.4-16.6-.6-16.6-10.5V175.4Z" transform="translate(-9.6)"/><path class="cls-19" d="M283.4,175.9v7c-1.9,9-7.2,20.3-21.6,22.3V175.9Z" transform="translate(-9.6)"/><path class="cls-18" d="M244.7,162.3c.4-3.6.8-7.1.9-10.7s3.1-10.3,6-14.7a27.5,27.5,0,0,1,6.8-7.2c7.2-5.3,18-6.4,26.2-3.2,11.4,4.5,12.8,16,9.9,26.4,7.3-3.8,7.8,5.5,7.8,5.5.5,9.4-8.6,9.5-8.6,9.5a33.9,33.9,0,0,1-8.4,14.5c-5.6,5.3-10.5,8.3-14.7,9.9a18.5,18.5,0,0,1-22.1-7.1c-3.8-5.9-4.9-12.7-4.2-19.7A31.1,31.1,0,0,0,244.7,162.3Z" transform="translate(-9.6)"/><path class="cls-19" d="M255.4,171.1a11.5,11.5,0,0,1,1.4-1.9,11.8,11.8,0,0,0,1.4-2.2,13.9,13.9,0,0,0,1.5-5,.9.9,0,0,1,1.1-.6c.5,0,.7.5.6,1a15.9,15.9,0,0,1-3.4,8c-.7.9-1.7,1.9-.8,2.9s2.6.8,3.9.7,1.2,1.7.1,1.8-3.5.2-4.8-.9A3.1,3.1,0,0,1,255.4,171.1Z" transform="translate(-9.6)"/><path class="cls-13" d="M272.8,163.4c-.2,1.6-1.4,2.8-2.4,2.7s-1.8-1.5-1.5-3.1,1.4-2.8,2.5-2.7S273.1,161.8,272.8,163.4Z" transform="translate(-9.6)"/><path class="cls-13" d="M255.6,162.7c-.2,1.6-1.3,2.8-2.4,2.7s-1.8-1.5-1.5-3.1,1.4-2.8,2.5-2.7S255.9,161.1,255.6,162.7Z" transform="translate(-9.6)"/><path class="cls-13" d="M255.4,151.3a2.3,2.3,0,0,0-1.1-.2,5.5,5.5,0,0,0-4.7,5,3.3,3.3,0,0,1,.6-1h.1a1.2,1.2,0,0,1,.5-.5,5.6,5.6,0,0,1,2.3-.7,6.5,6.5,0,0,0,2.4-.6,1.3,1.3,0,0,0,.7-1A1.4,1.4,0,0,0,255.4,151.3Z" transform="translate(-9.6)"/><path class="cls-13" d="M270.3,151.1a1.9,1.9,0,0,1,1.1-.4,5,5,0,0,1,5,4.2l-.7-.9h0l-.5-.4a6.3,6.3,0,0,0-2.4-.3,6.3,6.3,0,0,1-2.4-.2c-.4-.1-.8-.3-.8-.8A1.4,1.4,0,0,1,270.3,151.1Z" transform="translate(-9.6)"/><path class="cls-19" d="M272.3,175.7a12.3,12.3,0,0,1-10.8,3.8.9.9,0,0,0-.3,1.7,14.2,14.2,0,0,0,12.4-4.4C274.4,176,273,174.9,272.3,175.7Z" transform="translate(-9.6)"/><path class="cls-17" d="M251,318.3c-3.4-12.4-6.8-24.8-10.3-37.2a25.8,25.8,0,0,0-3.3-7.6,46,46,0,0,0-4.6-5.3,15.4,15.4,0,0,1-3.8-5.9,14.2,14.2,0,0,1,.1-7.1c1.2-5.1,3.9-10.3,2.3-15.6-.3-.9-1.8-.5-1.5.4,1.5,4.7-.8,9.5-2,14a18.1,18.1,0,0,0-.7,6.9,12.5,12.5,0,0,0,2.7,6.1c1.4,1.9,3.1,3.5,4.6,5.3a19,19,0,0,1,4.1,7c.9,2.9,1.7,5.9,2.5,8.9s1.7,6.2,2.6,9.3c1.9,7.1,3.9,14.2,5.8,21.2A.8.8,0,0,0,251,318.3Z" transform="translate(-9.6)"/><polygon class="cls-14" points="349.5 328.7 291.3 355.8 248.1 279.3 260.7 273.2 293.6 257.5 305.2 251.9 349.5 328.7"/><path class="cls-16" d="M305.8,267a18.3,18.3,0,0,1-35.5,6.2l32.8-15.7A17.9,17.9,0,0,1,305.8,267Z" transform="translate(-9.6)"/><path class="cls-24" d="M307.8,318.9l-6.8,1.6-6.8-14.1,9.5-3.6A22.6,22.6,0,0,1,307.8,318.9Z" transform="translate(-9.6)"/><path class="cls-18" d="M302.9,317.2a2.8,2.8,0,0,0,.7-3.2,2.7,2.7,0,0,0-3-1.3,2.3,2.3,0,0,0,1.2-2.5c-.2-.8-1.8-1.5-2.6-1.7s.5-2.5-.5-3.2a4.6,4.6,0,0,0-3.8-.6,13.4,13.4,0,0,0-3.7,1.6c-4.3,2.4-8.6,4.8-12.8,7.5a5.4,5.4,0,0,0-1.6,1.4,2,2,0,0,0-.1,2.1,2.3,2.3,0,0,0,2.4.5,2.3,2.3,0,0,0-1.2,2.6,2.1,2.1,0,0,0,2.2,1.2,1.8,1.8,0,0,0-.5,1.8,2.4,2.4,0,0,0,2.5,1.5,3.9,3.9,0,0,0,2.3-.9,1.8,1.8,0,0,0,.3,2.2,3.8,3.8,0,0,0,2.9,1c4.9.4,10.1-.3,14.2-3a6.2,6.2,0,0,0,3-3.4A2.9,2.9,0,0,0,302.9,317.2Z" transform="translate(-9.6)"/><path class="cls-19" d="M292.5,310.3l-13.9,7.4a.5.5,0,0,0,.3.9c4.7-2.4,9.3-4.9,13.9-7.5C293.3,310.8,293,310,292.5,310.3Z" transform="translate(-9.6)"/><path class="cls-19" d="M294.9,313.9a87.5,87.5,0,0,1-15,7.5c-.5.2-.2,1,.3.8a86.3,86.3,0,0,0,15.2-7.6C295.9,314.3,295.4,313.6,294.9,313.9Z" transform="translate(-9.6)"/><path class="cls-19" d="M296.5,318.5a39.8,39.8,0,0,1-12.2,5.2c-.6.1-.5,1,.1.9a36.2,36.2,0,0,0,12.6-5.4C297.5,318.9,297,318.2,296.5,318.5Z" transform="translate(-9.6)"/><path class="cls-18" d="M377.8,290.2a15.1,15.1,0,0,1-5.7,11.8h0a14.8,14.8,0,0,1-6.3,3l-57.6,13.8h-.4l-6.8,1.6-6.8-14.1,9.5-3.6.7-.2,42.6-16h.1l-11.3-12.9L313,247.8l14.3-31.2h0A102.9,102.9,0,0,1,341,232.4l15.1,21.8,19,27.5A15.2,15.2,0,0,1,377.8,290.2Z" transform="translate(-9.6)"/><path class="cls-10" d="M356.1,254.2l-20.3,19.5L313,247.8l14.3-31.2h0A102.9,102.9,0,0,1,341,232.4Z" transform="translate(-9.6)"/><path class="cls-17" d="M322.4,257.8l-16-16.7c-.7-.7-1.7.4-1,1.1l16,16.7C322,259.6,323.1,258.5,322.4,257.8Z" transform="translate(-9.6)"/><path class="cls-9" d="M296.6,131.9c-4.6-7.2-12.9-12-21.5-11.7s-15.1,4.9-20.9,10.4a36.4,36.4,0,0,0-6.7,8.4,18.9,18.9,0,0,0-2.3,10.4l-1.5,7.4a56.2,56.2,0,0,0,14.5-16.2,8.9,8.9,0,0,0,5.1,9.1,29.6,29.6,0,0,0,6.5-14.4c-.2,3.9,2.7,7.2,5.5,9.9s5.9,5.7,6,9.6-2.9,7.5-3.2,11.5a8.9,8.9,0,0,0,7.2,9,4.2,4.2,0,0,1,.3-5,9.6,9.6,0,0,1,4.3-3.1,21.9,21.9,0,0,0,4.9-2.3c2.7-1.9,4.2-5.2,5.1-8.4C302.2,148.2,301.2,139,296.6,131.9Z" transform="translate(-9.6)"/><g class="cls-25"><path class="cls-15" d="M287.7,148.6c-1.7-4.7-5.9-7.4-8.9-11.1s-3.3-5.2-2.7-8.2c.1-.7-1-1-1.1-.3-.9,5.1,2.7,9.2,6,12.5a24.5,24.5,0,0,1,4.7,5.5,12.1,12.1,0,0,1,1.6,6.7,12.7,12.7,0,0,1-2.6,7.2c-.4.6.6,1.1,1,.6A14.2,14.2,0,0,0,287.7,148.6Z" transform="translate(-9.6)"/><path class="cls-15" d="M294.6,144.1a17.5,17.5,0,0,0-5.4-11.2c-.5-.5-1.3.2-.8.7a16.3,16.3,0,0,1,5,10.5,16.1,16.1,0,0,1-3.5,11.5c-.4.5.4,1.3.8.8A17.8,17.8,0,0,0,294.6,144.1Z" transform="translate(-9.6)"/><path class="cls-15" d="M286.7,138.8c-3.3-1.9-4.1-6-4.7-9.5-.1-.7-1.2-.4-1.1.3.7,3.8,1.6,8.1,5.3,10.1C286.8,140.1,287.4,139.1,286.7,138.8Z" transform="translate(-9.6)"/><path class="cls-15" d="M292,125.7c-.5-.6-1.3.2-.8.8a28.1,28.1,0,0,1,5.7,22.4c-.1.7.9,1,1.1.3A29.2,29.2,0,0,0,292,125.7Z" transform="translate(-9.6)"/><path class="cls-15" d="M268.3,129.7a29,29,0,0,1-5.2,11.1c-.5.6.3,1.4.8.8a29.4,29.4,0,0,0,5.4-11.6C269.5,129.3,268.4,129,268.3,129.7Z" transform="translate(-9.6)"/><path class="cls-15" d="M262.8,126.8a18.9,18.9,0,0,0-1.7,14c.1.7,1.2.4,1-.3a18.4,18.4,0,0,1,1.7-13.2C264.1,126.7,263.1,126.1,262.8,126.8Z" transform="translate(-9.6)"/><path class="cls-15" d="M252.9,138.6a66.2,66.2,0,0,1-8.9,12.1c-.5.6.3,1.4.8.8a68.2,68.2,0,0,0,9-12.3C254.2,138.6,253.2,138,252.9,138.6Z" transform="translate(-9.6)"/><path class="cls-15" d="M249.2,131.6a20.4,20.4,0,0,0-7.6,14.4.6.6,0,1,0,1.2,0,18.8,18.8,0,0,1,7.2-13.6C250.6,131.9,249.8,131.1,249.2,131.6Z" transform="translate(-9.6)"/><path class="cls-15" d="M240.8,179.9c-1.6-5.2-.4-10.8,1.1-15.9a.6.6,0,0,0-1.1-.3c-1.4,5.1-2.6,10.6-1.3,15.8s4.7,8.6,5,13.4c.1.7,1.2.8,1.1,0C245.3,188.2,242.1,184.4,240.8,179.9Z" transform="translate(-9.6)"/><path class="cls-15" d="M254.7,197a9.4,9.4,0,0,1-6.1-7.9c-.1-.7-1.2-.7-1.1,0a10.4,10.4,0,0,0,6.9,9C255.1,198.4,255.4,197.3,254.7,197Z" transform="translate(-9.6)"/><path class="cls-15" d="M258.7,198.2a20.1,20.1,0,0,0-1.6-4.3.5.5,0,0,0-.8-.2c-.3.1-.3.4-.2.7a28.6,28.6,0,0,1,1.5,4.1.6.6,0,0,0,.7.3A.5.5,0,0,0,258.7,198.2Z" transform="translate(-9.6)"/><path class="cls-15" d="M238.8,186.7a48.3,48.3,0,0,1-1.8-11.9c0-.8-1.2-.8-1.1,0a50.7,50.7,0,0,0,1.8,12.2C237.9,187.7,238.9,187.4,238.8,186.7Z" transform="translate(-9.6)"/><path class="cls-15" d="M302,168.1c-1,6.8-5.7,12.7-5.7,19.7a.6.6,0,1,0,1.1,0c0-6.9,4.7-12.7,5.7-19.4C303.2,167.7,302.2,167.4,302,168.1Z" transform="translate(-9.6)"/><path class="cls-15" d="M294.6,172.8a17.4,17.4,0,0,0-2.2,9.2.6.6,0,0,0,1.1,0,17,17,0,0,1,2-8.6C295.9,172.7,294.9,172.2,294.6,172.8Z" transform="translate(-9.6)"/><path class="cls-15" d="M286.9,188a.5.5,0,0,0-.5-.5.6.6,0,0,0-.6.5c0,1.4.1,2.7.1,4.1a.6.6,0,0,0,.6.6.6.6,0,0,0,.5-.6C287,190.7,286.9,189.4,286.9,188Z" transform="translate(-9.6)"/></g></g><rect class="cls-13" x="107.4" y="370.7" width="438.8" height="4.28" rx="2.1"/></g></g></svg>