<?xml version="1.0" encoding="utf-8"?>
<!-- Generator: Adobe Illustrator 23.0.3, SVG Export Plug-In . SVG Version: 6.00 Build 0)  -->
<svg version="1.1" xmlns="http://www.w3.org/2000/svg" xmlns:xlink="http://www.w3.org/1999/xlink" x="0px" y="0px"
	 viewBox="0 0 670.98 382.32" style="enable-background:new 0 0 670.98 382.32;" xml:space="preserve">
<style type="text/css">
	.st0{fill:none;}
	.st1{fill:#B3EBF8;}
	.st2{fill:url(#New_Pattern_Swatch_1);}
	.st3{clip-path:url(#SVGID_2_);}
	.st4{fill:#C08570;}
	.st5{fill:#52C4C8;}
	.st6{fill:#FFFFFF;}
	.st7{opacity:0.4;fill:#C08570;}
	.st8{fill:#110039;}
	.st9{fill:#EBEBEB;}
	.st10{fill:#F9BA96;}
	.st11{opacity:0.5;fill:#F9BA96;}
	.st12{opacity:0.59;fill:#F9BA96;}
	.st13{opacity:0.5;fill:#C08570;}
	.st14{opacity:0.5;}
	.st15{opacity:0.49;fill:#F9BA96;}
	.st16{opacity:0.34;}
</style>
<pattern  x="-556.28" y="-267.85" width="7.6" height="7.6" patternUnits="userSpaceOnUse" id="New_Pattern_Swatch_1" viewBox="0 -7.6 7.6 7.6" style="overflow:visible;">
	<g>
		<rect y="-7.6" class="st0" width="7.6" height="7.6"/>
		<circle class="st1" cx="3.8" cy="-3.8" r="1.7"/>
	</g>
</pattern>
<g id="BACKGROUND">
	<g>
		<path class="st1" d="M538.23,306.8c-4.18,17.83-15.78,34.19-31.76,45.91c-7.91,5.8-16.92,10.49-26.63,13.65
			c-12.37,4.04-25.64,5.51-38.78,6.01c-14.18,0.54-28.41,0.13-42.6,0c-14.75-0.14-29.49-0.28-44.24-0.41
			c-29.48-0.28-58.98-0.56-88.46-0.83c-29.3-0.28-58.59-0.56-87.88-0.83c-0.37,0-0.51-0.32-0.4-0.55
			c0.56-1.27-25.53-24.97-28.85-28.38c-10.34-10.63-20.4-21.73-25.87-34.97c-6.54-15.83-5.1-35.32,8.64-47.16
			c19.5-16.8,53.26-16.4,49.79-47.26c-2-17.76-15.71-31.75-21.76-48.39c-15.34-42.19,4.72-92.4,54.09-109.59
			c20.7-7.21,44.25-7.11,65.32-1.03c16.57,4.78,28.3,15.21,39.94,25.97c10.84,10.03,26.51,27.05,44.67,22.18
			c12.55-3.36,21.43-12.25,33.16-16.98c12.48-5.04,26.7-6.99,40.32-4.98c18.06,2.66,34.74,12.45,43.57,26.37
			c16.65,26.26-3.64,47.59-12.97,71.9c-3.37,8.8-4.26,18.91,0.97,27c8.32,12.88,27.73,17.14,39.96,26.67
			c8.02,6.25,14.75,13.74,19.88,21.96C538.54,269.35,542.5,288.57,538.23,306.8z"/>
		<g>
			<circle class="st2" cx="134.77" cy="98.81" r="62.93"/>
			<circle class="st2" cx="577.95" cy="314.02" r="62.93"/>
		</g>
		<g>
			
				<ellipse transform="matrix(0.2298 -0.9732 0.9732 0.2298 287.8968 735.5232)" class="st1" cx="608.63" cy="185.88" rx="11.59" ry="11.59"/>
			<path class="st1" d="M642.19,166.24c0,3.33-2.7,6.03-6.03,6.03c-3.33,0-6.03-2.7-6.03-6.03c0-3.33,2.7-6.03,6.03-6.03
				C639.49,160.2,642.19,162.9,642.19,166.24z"/>
		</g>
		<g>
			<circle class="st1" cx="420.86" cy="54.67" r="11.59"/>
			<circle class="st1" cx="448.39" cy="35.03" r="6.03"/>
		</g>
		<g>
			
				<ellipse transform="matrix(0.9477 -0.3193 0.3193 0.9477 -100.6975 38.052)" class="st1" cx="65.7" cy="326.14" rx="11.59" ry="11.59"/>
			<path class="st1" d="M514.66,105.54c-3.18,0.98-6.56-0.8-7.55-3.98c-0.98-3.18,0.8-6.56,3.98-7.55c3.18-0.98,6.56,0.8,7.55,3.98
				C519.62,101.18,517.84,104.56,514.66,105.54z"/>
		</g>
		<g>
			<path class="st1" d="M198.46,46.66c-3.18,0.98-6.56-0.8-7.55-3.98c-0.98-3.18,0.8-6.56,3.98-7.55c3.18-0.98,6.56,0.8,7.55,3.98
				C203.43,42.3,201.64,45.67,198.46,46.66z"/>
		</g>
		<g>
			<path class="st1" d="M605.41,319.79c-3.18,0.98-6.56-0.8-7.55-3.98c-0.98-3.18,0.8-6.56,3.98-7.55c3.18-0.98,6.56,0.8,7.55,3.98
				C610.38,315.43,608.6,318.81,605.41,319.79z"/>
		</g>
		<g>
			
				<ellipse transform="matrix(0.9227 -0.3854 0.3854 0.9227 -68.3827 30.5925)" class="st1" cx="42.12" cy="185.88" rx="11.59" ry="11.59"/>
			<path class="st1" d="M75.68,166.24c0,3.33-2.7,6.03-6.03,6.03s-6.03-2.7-6.03-6.03c0-3.33,2.7-6.03,6.03-6.03
				S75.68,162.9,75.68,166.24z"/>
		</g>
	</g>
	<g>
		<g>
			<g>
				<g>
					<path class="st1" d="M518.21,371.08c-0.09-0.3,0.09,0.32-0.05-0.18c-0.15-0.5-0.37-1.34-0.68-2.16
						c-3.71-10.07-9.36-17.89-13.25-28.4c-2.96-8.01-3.81-18.46-1.42-27.14c0.17-0.63,0.39-1.17,0.7-1.76
						c1.49-2.83,2.66-5.38,4.97-7.84c5.93-6.33,12.57-10.84,15.73-19.39c0.13-0.35,0.14-0.53,0.25-1.11
						c0.11-0.58,0.25-1.79,0.3-2.56c0.27-4.23-0.71-8.88-1.22-12.92c-0.65-5.1-0.55-11.06,3.71-14.08
						c5.15-3.66,11.06,0.35,16.74-1.33c6.43-1.9,9.63-6.58,12.9-12.27c0.43-0.75,0.79-1.57,1.23-2.39
						c4.82-8.9,8.49-16.56,19.48-18.18c6.21-0.92,12.86,1.75,19.13,2.44c0.59,0.06,1.35,0.28,1.97,0.32
						c0.62,0.05,1.23,0.18,1.86,0.18c11.18,0.01,21.9-2.3,33-3.64c0.11-0.01-0.03-0.01,0.36-0.03c0.39-0.03,1.46-0.14,2.12-0.15
						c7.8-0.22,15.32-0.02,21.87,4.56c1.91,1.34,2.65,2.93,3.77,4.77c0.27,0.44,0.51,0.9,0.64,1.42c1.3,5.16,1.4,10.23-2.42,14.51
						c-3.82,4.28-9.11,4.7-14.53,5.68c-0.65,0.12-1.47,0.26-2.09,0.39c-2.23,0.5-4.74,1.37-6.49,2.62
						c-4.58,3.26-5.52,9.53-10.91,11.55c-5.39,2.02-11.34-1.87-16.9-0.13c-0.51,0.16-0.9,0.36-1.34,0.64
						c-0.44,0.28-0.82,0.53-1.19,0.91c-3.52,3.67-4.18,8.94-7.96,12.47c-2.86,2.67-6.98,3.2-10.58,4.83
						c-0.56,0.25-0.86,0.29-1.97,0.96c-0.09,0.05,2.39-1.56-0.81,0.53c-3.2,2.09-3.13,10.64-2.77,16.67
						c0.29,4.92-7.68,6.08-11.46,6.19c-1.23,0.04-2.69,0.29-3.73,0.53c-1.03,0.23-1.81,0.41-2.69,0.86c-2.08,1.06-3.76,2.47-4.06,5
						c-0.39,3.28,1.02,6.89,1.81,10.06c0.14,0.55,0.23,1.34,0.26,1.66c0.03,0.33,0.03,0.22,0.03,0.32
						c-0.26,4.7-2.78,7.79-5.93,11.04c-0.73,0.75-1.22,1.37-1.93,2.21C543.54,351.96,532.77,361.53,518.21,371.08z"/>
				</g>
				<path class="st1" d="M514.15,370.53c-0.21-0.76-0.44-1.51-0.69-2.25c2.71-5.62,5.69-11,8.5-16.61c0.99-1.98,2.28-4.04,2.91-6.21
					c-2.35-3.1-4.75-6.28-7.04-9.39c-6.01-8.13-12.24-15.95-19.07-23.39c0.22-0.58,0.45-1.16,0.7-1.72
					c9.42,10.32,17.44,21.59,25.95,32.64c3.58-11.54,7.75-22.95,12.92-33.87c-0.05-0.37,0.05-0.65,0.35-0.88
					c-1.95-3.59-4.21-7.14-6.38-10.56c-3.54-5.55-7.52-10.72-11.89-15.61c0.16-0.86,0.25-1.74,0.31-2.62
					c7.08,8.55,13.3,17.5,18.8,27.15c0.14-0.27,0.27-0.58,0.42-0.84c5.8-10.16,12.22-19.22,20.36-27.65
					c-0.08-0.43,0.07-0.73,0.49-0.87c-0.42-3.5-0.88-6.98-1.54-10.45c-1.79-9.45-4.18-18.61-6.41-27.94
					c0.42-0.78,0.83-1.58,1.23-2.37c0.09,0.31,0.19,0.63,0.26,0.94c3.08,12.9,6.13,25.62,7.91,38.79c3.04-2.74,6.16-5.38,9.21-8.11
					c4.75-4.26,9.48-8.38,14.7-12.08c0.89-4.14,1.97-8.17,2.86-12.33c1.63-7.63,3.19-15.15,3.66-22.97
					c0.66,0.12,1.31,0.22,1.97,0.31c-0.98,11.43-3.84,22.57-6.62,33.67c7.99-5.21,16.07-9.47,25-12.95
					c3.75-1.46,7.9-2.65,11.78-3.84c0.06-0.02,0.17-0.03,0.17-0.1c-0.13-7.42,1.26-13.69,4.81-20.27c0.73-0.06,1.47-0.12,2.2-0.16
					c-3.6,6.4-5.27,12.65-5.24,19.99c10.86-2.73,20.83-5.68,30.92-10.65c0.02,0.39,0.72,1.02,0.53,1.38
					c-0.17,0.32-0.77,0.44-1.22,0.65c-9.69,4.42-19.21,7.41-29.58,9.99c4.55,3.35,9.11,6.61,13.92,9.59
					c-0.7,0.11-1.39,0.24-2.08,0.4c-4.73-2.96-9.17-6.25-13.75-9.45c-5.63,1.75-11.41,3.55-16.8,5.86
					c-7.54,3.24-14.42,7.14-21.1,11.8c-0.11,0.07-0.02,0.27-0.08,0.36c-0.01,0.02-0.03,0.03-0.01,0.03
					c5.54,1.67,10.87,3.55,16.11,6.07c-0.42,0.27-0.81,0.57-1.19,0.9c-5.28-2.41-10.61-4.15-16.17-5.78
					c-0.21-0.06-0.32-0.17-0.44-0.33c-6.13,4.48-11.59,9.6-17.23,14.67c-1.6,1.44-3.27,2.84-4.9,4.25
					c7.07,0.48,13.66,1.83,20.24,4.48c-0.58,0.25-1.17,0.53-1.73,0.81c-0.04,0.02-0.02,0.04-0.06,0.02
					c-6.51-2.4-12.94-3.51-19.87-3.78c-0.19,0.18-0.39,0.27-0.65,0.32c-8.28,8.62-14.8,17.76-20.65,28.16
					c7.55-2.59,14.48-2.78,22.16-0.64c-0.91,0.21-1.78,0.5-2.65,0.84c-7.31-1.37-13.94-0.84-20.72,2.33
					c-0.28,0.63-0.56,1.22-0.86,1.85c-4.92,10.53-8.73,21.62-12.16,32.71c2.87-2.36,5.85-5.09,8.66-7.42
					c7.2-5.98,14.31-10.6,22.83-14.37c0.12,0.58,0.21,1.14,0.25,1.72c-11.96,5.46-21.03,13.26-30.94,21.74
					c0.02,0.05,0.07,0.07,0.09,0.11c0.45,0.97-0.34,1.8-1.19,0.98c-0.16-0.15-0.24-0.34-0.39-0.5c-1.3,3.28-3.17,6.49-4.86,9.56
					C518.69,361.23,516.37,365.8,514.15,370.53z"/>
			</g>
			<g>
				<g>
					<path class="st1" d="M578.24,174.74c0.22,12.87-4.83,24.63-10.83,35.93c-0.34,0.67-0.7,1.33-1.05,1.98
						c-2.09,3.86-4.23,7.64-6.32,11.41c-4.16,7.64-8.16,15.95-11.93,24.76c-0.32,0.74-0.65,1.48-0.94,2.2
						c-3.55,8.38-6.85,17.15-9.89,26.15c-0.25,0.72-0.5,1.46-0.76,2.2c-0.2,0.61-0.41,1.23-0.59,1.86
						c-0.32,0.96-0.65,1.91-0.95,2.88c-3.89,12.13-7.28,24.58-10.05,36.94c-0.11,0.45-0.22,0.92-0.31,1.39
						c-0.07,0.29-0.14,0.58-0.2,0.87c-0.22,1.01-0.45,2.04-0.65,3.05c-0.22,0.95-0.41,1.89-0.59,2.85
						c-1.91,9.3-3.46,18.49-4.56,27.35c-0.31,2.32-0.56,4.65-0.77,6.92c-0.34,3.03-0.59,5.98-0.79,8.9l-1.01,0.31l-0.25,0.07
						c-0.04-0.02-0.07-0.04-0.09-0.07h-16.58c-0.54-14.52-1.05-29.07-1.15-43.55c0-0.74-0.02-1.48,0-2.2
						c-0.07-14.74,0.27-29.44,1.37-44.08c0.04-0.79,0.11-1.57,0.18-2.34c0.02-0.22,0.04-0.43,0.05-0.65
						c0.36-4.61,0.81-9.24,1.37-13.82c0.49-3.89,1.01-7.8,1.62-11.68c0.09-0.7,0.2-1.37,0.32-2.05c2.68-16.56,6.72-32.87,12.43-48.4
						c0.23-0.7,0.52-1.41,0.79-2.11c5.24-13.82,11.86-26.99,20.11-39.1c0.02-0.05,0.05-0.07,0.07-0.13c0.36-0.52,0.72-1.05,1.1-1.55
						c4.92-6.87,11.3-13.41,19.5-13.62c2.85-0.07,5.68,0.68,8.25,2.07c0.58,0.27,1.1,0.59,1.62,0.94c2.36,1.53,4.45,3.59,6.09,5.91
						c2.56,3.68,4.11,8,4.85,12.45c0.11,0.59,0.2,1.19,0.25,1.8C578.13,171.95,578.21,173.35,578.24,174.74z"/>
				</g>
				<path class="st1" d="M542.42,215.9c8.22-2.22,16.58-3.98,24.99-5.23c-0.34,0.67-0.7,1.33-1.05,1.98
					c-12.76,2-25.32,5.1-37.52,9.3c-0.11,0.04-0.2,0.04-0.29,0.04c-1.77,4.88-3.46,9.77-5.01,14.72c-2.56,8.16-4.79,16.4-6.79,24.72
					c10.2-4.81,20.67-9.03,31.35-12.61c-0.32,0.74-0.65,1.48-0.94,2.2c-10.49,3.59-20.78,7.78-30.8,12.54
					c-0.04,0.04-0.07,0.02-0.11,0.04c-1.55,6.63-2.94,13.28-4.13,19.98c-0.36,2.07-0.67,4.14-0.99,6.22
					c8.34-4.96,17.08-9.17,26.13-12.63c-0.25,0.72-0.5,1.46-0.76,2.2c-8.87,3.48-17.41,7.69-25.57,12.61
					c-0.05,0.04-0.11,0.04-0.16,0.07c-0.43,2.9-0.85,5.8-1.21,8.72c-1.32,10.11-2.2,20.25-2.65,30.44c1.05-0.67,2.09-1.32,3.15-1.95
					c0.22-0.14,0.45-0.29,0.68-0.43c3.15-1.89,6.34-3.71,9.6-5.46c0.76-0.4,1.51-0.79,2.29-1.17c0.54-0.29,1.1-0.58,1.66-0.85
					c0.2-0.11,0.4-0.2,0.59-0.31c-0.11,0.45-0.22,0.92-0.31,1.39c-0.07,0.29-0.14,0.58-0.2,0.87c-0.43,0.22-0.87,0.45-1.3,0.68
					c-0.65,0.32-1.3,0.67-1.95,1.03c-3.42,1.82-6.79,3.75-10.11,5.77c-0.56,0.32-1.1,0.67-1.64,1.03c-0.11,0.05-0.23,0.13-0.34,0.2
					c-0.68,0.41-1.35,0.85-2.04,1.28c-0.05,0.04-0.13,0.04-0.16,0.05c-0.02,0.07-0.02,0.16-0.02,0.23c0.02,0.13,0.02,0.23,0,0.34
					c-0.07,1.77-0.13,3.55-0.14,5.32c-0.2,7.91-0.13,15.84,0.22,23.75c0.04,1.12,0.09,2.25,0.18,3.39c0.09,2.11,0.22,4.2,0.38,6.31
					h-1.8c-0.23-3.03-0.4-6.07-0.52-9.12c-0.07-1.23-0.11-2.47-0.16-3.69c-0.16-4.72-0.22-9.44-0.18-14.16
					c0.02-3.84,0.09-7.66,0.23-11.48c-2.32-1.75-4.68-3.44-7.1-5.1c0-0.74-0.02-1.48,0-2.2c2.43,1.68,4.83,3.41,7.19,5.15
					c0.09-2.29,0.16-4.58,0.29-6.85c0.56-9.19,1.48-18.34,2.72-27.43c0.23-1.82,0.5-3.64,0.77-5.44c-2.14-2.25-4.32-4.47-6.56-6.61
					c-1.01-0.99-2.02-1.95-3.05-2.9c0.04-0.79,0.11-1.57,0.18-2.34c0.22,0.22,0.45,0.41,0.67,0.63c3.1,2.92,6.13,5.89,9.06,8.97
					c0.7-4.45,1.46-8.9,2.32-13.33c0.79-4.07,1.66-8.11,2.58-12.16c-0.09-0.02-0.18-0.07-0.25-0.14
					c-3.62-3.53-7.41-6.92-11.33-10.11c0.09-0.7,0.2-1.37,0.32-2.05c4.05,3.28,7.98,6.74,11.75,10.36
					c2.59-11.15,5.71-22.2,9.33-33.08c0.86-2.58,1.8-5.14,2.72-7.69c-3.78-5.98-7.57-12-11.37-17.98c0.23-0.7,0.52-1.41,0.79-2.11
					c3.78,5.98,7.57,11.95,11.33,17.93c4.38-11.96,9.37-23.7,14.94-35.14c0.61-1.21,1.21-2.4,1.8-3.6
					c-2.31-6.25-4.97-12.34-7.96-18.29c0.02-0.05,0.05-0.07,0.07-0.13c0.36-0.52,0.72-1.05,1.1-1.55
					c2.94,5.78,5.55,11.73,7.87,17.79c2.74-5.41,5.6-10.76,8.79-15.88c3.1-4.96,6.67-9.68,11.08-13.46c0.58,0.27,1.1,0.59,1.62,0.94
					c-0.05,0.04-0.07,0.05-0.13,0.09c-6.27,5.28-10.67,12.38-14.58,19.46c-2.02,3.6-3.95,7.26-5.8,10.92
					c3.57-1.68,7.19-3.28,10.87-4.79c6.72-2.77,13.59-5.23,20.58-7.32c0.11,0.59,0.2,1.19,0.25,1.8
					c-10.96,3.32-21.66,7.48-31.97,12.42c-0.25,0.13-0.52,0.11-0.76,0.02c-1.41,2.79-2.79,5.62-4.13,8.47
					c-4.34,9.3-8.23,18.81-11.77,28.43C533.64,218.42,538.01,217.09,542.42,215.9z"/>
			</g>
		</g>
		<g>
			<g>
				<g>
					<path class="st1" d="M154.52,371.08c0.09-0.3-0.09,0.32,0.05-0.18c0.15-0.5,0.37-1.34,0.68-2.16
						c3.71-10.07,9.36-17.89,13.25-28.4c2.96-8.01,3.81-18.46,1.42-27.14c-0.17-0.63-0.39-1.17-0.7-1.76
						c-1.49-2.83-2.66-5.38-4.97-7.84c-5.93-6.33-12.57-10.84-15.73-19.39c-0.13-0.35-0.14-0.53-0.25-1.11
						c-0.12-0.58-0.25-1.79-0.3-2.56c-0.27-4.23,0.71-8.88,1.22-12.92c0.65-5.1,0.55-11.06-3.71-14.08
						c-5.15-3.66-11.06,0.35-16.74-1.33c-6.43-1.9-9.63-6.58-12.9-12.27c-0.43-0.75-0.79-1.57-1.23-2.39
						c-4.82-8.9-8.49-16.56-19.48-18.18c-6.21-0.92-12.86,1.75-19.13,2.44c-0.59,0.06-1.35,0.28-1.97,0.32
						c-0.62,0.05-1.23,0.18-1.86,0.18c-11.18,0.01-21.9-2.3-33-3.64c-0.11-0.01,0.03-0.01-0.36-0.03c-0.39-0.03-1.46-0.14-2.12-0.15
						c-7.8-0.22-15.32-0.02-21.87,4.56c-1.91,1.34-2.65,2.93-3.77,4.77c-0.27,0.44-0.51,0.9-0.64,1.42
						c-1.3,5.16-1.4,10.23,2.42,14.51c3.82,4.28,9.11,4.7,14.53,5.68c0.65,0.12,1.47,0.26,2.09,0.39c2.23,0.5,4.74,1.37,6.49,2.62
						c4.58,3.26,5.52,9.53,10.91,11.55c5.39,2.02,11.34-1.87,16.9-0.13c0.51,0.16,0.9,0.36,1.34,0.64c0.44,0.28,0.82,0.53,1.19,0.91
						c3.52,3.67,4.18,8.94,7.96,12.47c2.86,2.67,6.98,3.2,10.58,4.83c0.56,0.25,0.86,0.29,1.97,0.96c0.09,0.05-2.39-1.56,0.81,0.53
						c3.2,2.09,3.13,10.64,2.77,16.67c-0.29,4.92,7.68,6.08,11.46,6.19c1.23,0.04,2.69,0.29,3.73,0.53
						c1.03,0.23,1.81,0.41,2.69,0.86c2.08,1.06,3.76,2.47,4.06,5c0.39,3.28-1.02,6.89-1.81,10.06c-0.14,0.55-0.23,1.34-0.26,1.66
						c-0.03,0.33-0.03,0.22-0.03,0.32c0.26,4.7,2.78,7.79,5.93,11.04c0.73,0.75,1.22,1.37,1.93,2.21
						C129.19,351.96,139.96,361.53,154.52,371.08z"/>
				</g>
				<path class="st1" d="M158.58,370.53c0.21-0.76,0.44-1.51,0.69-2.25c-2.71-5.62-5.69-11-8.5-16.61
					c-0.99-1.98-2.27-4.04-2.91-6.21c2.35-3.1,4.75-6.28,7.04-9.39c6.01-8.13,12.24-15.95,19.07-23.39
					c-0.22-0.58-0.45-1.16-0.7-1.72c-9.42,10.32-17.44,21.59-25.95,32.64c-3.58-11.54-7.75-22.95-12.92-33.87
					c0.05-0.37-0.05-0.65-0.35-0.88c1.95-3.59,4.21-7.14,6.38-10.56c3.54-5.55,7.52-10.72,11.89-15.61
					c-0.16-0.86-0.25-1.74-0.31-2.62c-7.08,8.55-13.3,17.5-18.8,27.15c-0.14-0.27-0.27-0.58-0.42-0.84
					c-5.8-10.16-12.22-19.22-20.36-27.65c0.08-0.43-0.07-0.73-0.49-0.87c0.42-3.5,0.88-6.98,1.54-10.45
					c1.79-9.45,4.18-18.61,6.41-27.94c-0.42-0.78-0.83-1.58-1.23-2.37c-0.09,0.31-0.19,0.63-0.26,0.94
					c-3.08,12.9-6.13,25.62-7.91,38.79c-3.04-2.74-6.16-5.38-9.21-8.11c-4.75-4.26-9.48-8.38-14.7-12.08
					c-0.89-4.14-1.97-8.17-2.86-12.33c-1.63-7.63-3.19-15.15-3.66-22.97c-0.66,0.12-1.31,0.22-1.97,0.31
					c0.98,11.43,3.84,22.57,6.62,33.67c-7.99-5.21-16.07-9.47-25-12.95c-3.75-1.46-7.9-2.65-11.78-3.84
					c-0.06-0.02-0.17-0.03-0.17-0.1c0.13-7.42-1.26-13.69-4.81-20.27c-0.73-0.06-1.47-0.12-2.2-0.16c3.6,6.4,5.27,12.65,5.24,19.99
					c-10.86-2.73-20.83-5.68-30.92-10.65c-0.02,0.39-0.72,1.02-0.53,1.38c0.17,0.32,0.77,0.44,1.22,0.65
					c9.69,4.42,19.21,7.41,29.58,9.99c-4.55,3.35-9.11,6.61-13.92,9.59c0.7,0.11,1.39,0.24,2.08,0.4c4.73-2.96,9.17-6.25,13.75-9.45
					c5.63,1.75,11.41,3.55,16.8,5.86c7.54,3.24,14.42,7.14,21.1,11.8c0.11,0.07,0.02,0.27,0.08,0.36c0.01,0.02,0.03,0.03,0.01,0.03
					c-5.54,1.67-10.87,3.55-16.11,6.07c0.42,0.27,0.81,0.57,1.19,0.9c5.28-2.41,10.61-4.15,16.17-5.78
					c0.21-0.06,0.32-0.17,0.44-0.33c6.13,4.48,11.59,9.6,17.23,14.67c1.6,1.44,3.27,2.84,4.9,4.25c-7.07,0.48-13.66,1.83-20.24,4.48
					c0.58,0.25,1.17,0.53,1.73,0.81c0.04,0.02,0.02,0.04,0.06,0.02c6.51-2.4,12.94-3.51,19.87-3.78c0.19,0.18,0.39,0.27,0.65,0.32
					c8.28,8.62,14.8,17.76,20.65,28.16c-7.55-2.59-14.48-2.78-22.16-0.64c0.91,0.21,1.78,0.5,2.65,0.84
					c7.31-1.37,13.94-0.84,20.72,2.33c0.28,0.63,0.56,1.22,0.86,1.85c4.92,10.53,8.73,21.62,12.16,32.71
					c-2.87-2.36-5.85-5.09-8.66-7.42c-7.2-5.98-14.31-10.6-22.83-14.37c-0.12,0.58-0.21,1.14-0.25,1.72
					c11.96,5.46,21.03,13.26,30.94,21.74c-0.02,0.05-0.07,0.07-0.09,0.11c-0.45,0.97,0.34,1.8,1.19,0.98
					c0.16-0.15,0.24-0.34,0.39-0.5c1.3,3.28,3.17,6.49,4.86,9.56C154.04,361.23,156.36,365.8,158.58,370.53z"/>
			</g>
			<g>
				<g>
					<path class="st1" d="M94.48,174.74c-0.22,12.87,4.83,24.63,10.83,35.93c0.34,0.67,0.7,1.33,1.05,1.98
						c2.09,3.86,4.23,7.64,6.32,11.41c4.16,7.64,8.16,15.95,11.93,24.76c0.32,0.74,0.65,1.48,0.94,2.2
						c3.55,8.38,6.85,17.15,9.89,26.15c0.25,0.72,0.5,1.46,0.76,2.2c0.2,0.61,0.41,1.23,0.59,1.86c0.32,0.96,0.65,1.91,0.96,2.88
						c3.89,12.13,7.28,24.58,10.06,36.94c0.11,0.45,0.22,0.92,0.31,1.39c0.07,0.29,0.14,0.58,0.2,0.87
						c0.22,1.01,0.45,2.04,0.65,3.05c0.22,0.95,0.41,1.89,0.59,2.85c1.91,9.3,3.46,18.49,4.56,27.35c0.31,2.32,0.56,4.65,0.77,6.92
						c0.34,3.03,0.59,5.98,0.79,8.9l1.01,0.31l0.25,0.07c0.04-0.02,0.07-0.04,0.09-0.07h16.58c0.54-14.52,1.04-29.07,1.15-43.55
						c0-0.74,0.02-1.48,0-2.2c0.07-14.74-0.27-29.44-1.37-44.08c-0.04-0.79-0.11-1.57-0.18-2.34c-0.02-0.22-0.04-0.43-0.05-0.65
						c-0.36-4.61-0.81-9.24-1.37-13.82c-0.49-3.89-1.01-7.8-1.62-11.68c-0.09-0.7-0.2-1.37-0.32-2.05
						c-2.68-16.56-6.72-32.87-12.43-48.4c-0.23-0.7-0.52-1.41-0.79-2.11c-5.24-13.82-11.86-26.99-20.11-39.1
						c-0.02-0.05-0.05-0.07-0.07-0.13c-0.36-0.52-0.72-1.05-1.1-1.55c-4.92-6.87-11.3-13.41-19.5-13.62
						c-2.85-0.07-5.68,0.68-8.25,2.07c-0.58,0.27-1.1,0.59-1.62,0.94c-2.36,1.53-4.45,3.59-6.09,5.91c-2.56,3.68-4.11,8-4.85,12.45
						c-0.11,0.59-0.2,1.19-0.25,1.8C94.59,171.95,94.52,173.35,94.48,174.74z"/>
				</g>
				<path class="st1" d="M130.31,215.9c-8.22-2.22-16.58-3.98-24.99-5.23c0.34,0.67,0.7,1.33,1.05,1.98c12.76,2,25.32,5.1,37.52,9.3
					c0.11,0.04,0.2,0.04,0.29,0.04c1.77,4.88,3.46,9.77,5.01,14.72c2.56,8.16,4.79,16.4,6.79,24.72
					c-10.2-4.81-20.67-9.03-31.35-12.61c0.32,0.74,0.65,1.48,0.94,2.2c10.49,3.59,20.78,7.78,30.8,12.54
					c0.04,0.04,0.07,0.02,0.11,0.04c1.55,6.63,2.94,13.28,4.13,19.98c0.36,2.07,0.67,4.14,0.99,6.22
					c-8.34-4.96-17.08-9.17-26.13-12.63c0.25,0.72,0.5,1.46,0.76,2.2c8.87,3.48,17.41,7.69,25.57,12.61
					c0.05,0.04,0.11,0.04,0.16,0.07c0.43,2.9,0.85,5.8,1.21,8.72c1.32,10.11,2.2,20.25,2.65,30.44c-1.05-0.67-2.09-1.32-3.15-1.95
					c-0.22-0.14-0.45-0.29-0.68-0.43c-3.15-1.89-6.34-3.71-9.6-5.46c-0.76-0.4-1.51-0.79-2.29-1.17c-0.54-0.29-1.1-0.58-1.66-0.85
					c-0.2-0.11-0.4-0.2-0.59-0.31c0.11,0.45,0.22,0.92,0.31,1.39c0.07,0.29,0.14,0.58,0.2,0.87c0.43,0.22,0.87,0.45,1.3,0.68
					c0.65,0.32,1.3,0.67,1.95,1.03c3.42,1.82,6.79,3.75,10.11,5.77c0.56,0.32,1.1,0.67,1.64,1.03c0.11,0.05,0.23,0.13,0.34,0.2
					c0.68,0.41,1.35,0.85,2.04,1.28c0.05,0.04,0.13,0.04,0.16,0.05c0.02,0.07,0.02,0.16,0.02,0.23c-0.02,0.13-0.02,0.23,0,0.34
					c0.07,1.77,0.13,3.55,0.14,5.32c0.2,7.91,0.13,15.84-0.22,23.75c-0.04,1.12-0.09,2.25-0.18,3.39c-0.09,2.11-0.22,4.2-0.38,6.31
					h1.8c0.23-3.03,0.4-6.07,0.52-9.12c0.07-1.23,0.11-2.47,0.16-3.69c0.16-4.72,0.22-9.44,0.18-14.16
					c-0.02-3.84-0.09-7.66-0.23-11.48c2.32-1.75,4.68-3.44,7.1-5.1c0-0.74,0.02-1.48,0-2.2c-2.43,1.68-4.83,3.41-7.19,5.15
					c-0.09-2.29-0.16-4.58-0.29-6.85c-0.56-9.19-1.48-18.34-2.72-27.43c-0.23-1.82-0.5-3.64-0.77-5.44
					c2.14-2.25,4.32-4.47,6.56-6.61c1.01-0.99,2.02-1.95,3.05-2.9c-0.04-0.79-0.11-1.57-0.18-2.34c-0.22,0.22-0.45,0.41-0.67,0.63
					c-3.1,2.92-6.13,5.89-9.06,8.97c-0.7-4.45-1.46-8.9-2.32-13.33c-0.79-4.07-1.66-8.11-2.58-12.16c0.09-0.02,0.18-0.07,0.25-0.14
					c3.62-3.53,7.41-6.92,11.33-10.11c-0.09-0.7-0.2-1.37-0.32-2.05c-4.05,3.28-7.98,6.74-11.75,10.36
					c-2.59-11.15-5.71-22.2-9.33-33.08c-0.87-2.58-1.8-5.14-2.72-7.69c3.78-5.98,7.57-12,11.37-17.98c-0.23-0.7-0.52-1.41-0.79-2.11
					c-3.78,5.98-7.57,11.95-11.33,17.93c-4.38-11.96-9.37-23.7-14.94-35.14c-0.61-1.21-1.21-2.4-1.8-3.6
					c2.31-6.25,4.97-12.34,7.96-18.29c-0.02-0.05-0.05-0.07-0.07-0.13c-0.36-0.52-0.72-1.05-1.1-1.55
					c-2.94,5.78-5.55,11.73-7.87,17.79c-2.74-5.41-5.6-10.76-8.79-15.88c-3.1-4.96-6.67-9.68-11.08-13.46
					c-0.58,0.27-1.1,0.59-1.62,0.94c0.05,0.04,0.07,0.05,0.13,0.09c6.27,5.28,10.67,12.38,14.58,19.46c2.02,3.6,3.95,7.26,5.8,10.92
					c-3.57-1.68-7.19-3.28-10.87-4.79c-6.72-2.77-13.59-5.23-20.58-7.32c-0.11,0.59-0.2,1.19-0.25,1.8
					c10.96,3.32,21.66,7.48,31.97,12.42c0.25,0.13,0.52,0.11,0.76,0.02c1.41,2.79,2.79,5.62,4.13,8.47
					c4.34,9.3,8.23,18.81,11.77,28.43C139.08,218.42,134.72,217.09,130.31,215.9z"/>
			</g>
		</g>
	</g>
</g>
<g id="OBJECTS">
	<g>
		<g>
			<path class="st1" d="M336.36,0c-17.4,20.81-38.09,32.72-62.25,35.2l6.44,64.8c0.95,25.16,22.09,45.95,55.81,64
				c33.72-18.06,54.85-38.84,55.81-64l6.44-64.8C374.45,32.72,353.76,20.81,336.36,0z"/>
			<path class="st1" d="M336.36,0c-17.4,20.81-38.09,32.72-62.25,35.2l6.44,64.8c0.95,25.16,22.09,45.95,55.81,64
				c33.72-18.06,54.85-38.84,55.81-64l6.44-64.8C374.45,32.72,353.76,20.81,336.36,0z"/>
			<path class="st1" d="M390.94,40.97l-1.46,14.67l-1.7,17.06l-2.49,25.08c-0.83,22.06-19.36,40.28-48.93,56.12
				c-21.05-11.27-36.51-23.76-43.95-37.97c-2.39-4.55-3.96-9.27-4.63-14.19c-0.18-1.3-0.29-2.62-0.34-3.95l-5.64-56.81
				c21.18-2.17,39.32-12.61,54.57-30.86C351.62,28.36,369.76,38.79,390.94,40.97z"/>
		</g>
		<g>
			<path class="st1" d="M337.67,31.83c-0.28-0.21-0.6-0.37-0.92-0.47c-1.55-0.52-3.32-0.33-4.72,0.51
				c-0.94,0.57-1.93,1.89-0.85,2.85c0.36,0.31,0.83,0.47,1.3,0.57c1.36,0.29,2.8,0.22,4.13-0.22c0.45-0.15,0.89-0.34,1.24-0.65
				c0.35-0.31,0.61-0.75,0.61-1.22C338.46,32.63,338.12,32.17,337.67,31.83z"/>
			<path class="st1" d="M372.3,48.26c-0.06-0.34-0.18-0.68-0.33-0.98c-0.75-1.45-2.15-2.55-3.74-2.91c-1.07-0.25-2.7,0.02-2.58,1.45
				c0.03,0.48,0.27,0.91,0.53,1.31c0.77,1.16,1.86,2.1,3.11,2.71c0.42,0.21,0.87,0.37,1.34,0.39c0.47,0.02,0.96-0.11,1.29-0.45
				C372.31,49.38,372.39,48.82,372.3,48.26z"/>
			<path class="st1" d="M353.8,42.52c-0.11-0.21-0.27-0.4-0.43-0.56c-0.41-0.39-0.91-0.69-1.45-0.86c-0.52-0.17-1.07-0.24-1.62-0.18
				c-0.74,0.08-1.74,0.62-1.34,1.51c0.13,0.3,0.38,0.53,0.64,0.73c0.69,0.53,1.51,0.88,2.37,1.02c0.08,0.02,0.16,0.03,0.24,0.04
				c0.31,0.03,0.65,0.05,0.95-0.05c0.3-0.09,0.59-0.29,0.73-0.58C354.06,43.25,353.98,42.86,353.8,42.52z"/>
			<path class="st1" d="M380.11,62.36c-0.87-0.66-2.47-1.09-2.95,0.27c-0.16,0.45-0.13,0.94-0.05,1.42
				c0.23,1.37,0.84,2.68,1.74,3.74c0.3,0.36,0.65,0.7,1.07,0.91c0.42,0.21,0.93,0.29,1.36,0.11c0.52-0.2,0.82-0.69,0.97-1.23
				c0.09-0.34,0.11-0.7,0.1-1.03C382.25,64.92,381.41,63.34,380.11,62.36z"/>
			<path class="st1" d="M381.99,100.6c-0.17-1.09-1.02-2.5-2.31-1.86c-0.43,0.21-0.74,0.59-1.02,0.99c-0.79,1.15-1.26,2.51-1.35,3.9
				c-0.03,0.47-0.02,0.95,0.13,1.39c0.15,0.45,0.47,0.85,0.9,1.03c0.51,0.22,1.07,0.08,1.56-0.22c0.29-0.18,0.57-0.42,0.78-0.67
				C381.75,103.93,382.24,102.22,381.99,100.6z"/>
			<path class="st1" d="M378.51,82.69c-0.35-0.66-1.22-1.38-1.9-0.68c-0.23,0.23-0.35,0.55-0.44,0.86c-0.25,0.91-0.25,1.9,0,2.82
				c0.08,0.31,0.19,0.62,0.39,0.87c0.2,0.25,0.49,0.45,0.81,0.46c0.38,0.02,0.7-0.19,0.95-0.49c0.15-0.18,0.27-0.39,0.35-0.61
				C379.1,84.89,379.03,83.68,378.51,82.69z"/>
			<path class="st1" d="M352.31,118.06c-0.24-0.1-0.51-0.1-0.77-0.07c-0.75,0.09-1.49,0.38-2.1,0.84c-0.21,0.15-0.4,0.33-0.53,0.55
				c-0.13,0.22-0.19,0.5-0.11,0.74c0.1,0.29,0.35,0.47,0.65,0.57c0.18,0.06,0.37,0.09,0.56,0.09c0.89,0,1.78-0.41,2.35-1.09
				C352.75,119.23,353.03,118.36,352.31,118.06z"/>
			<path class="st1" d="M370.13,114.56c-0.44-0.03-0.87,0.13-1.26,0.31c-1.16,0.55-2.16,1.42-2.87,2.49
				c-0.25,0.36-0.46,0.75-0.54,1.17c-0.08,0.42-0.02,0.89,0.24,1.23c0.31,0.41,0.82,0.55,1.34,0.54c0.31-0.01,0.64-0.07,0.94-0.18
				c1.42-0.49,2.6-1.63,3.14-3.03C371.48,116.16,371.45,114.64,370.13,114.56z"/>
			<path class="st1" d="M300.49,49.78c0.33,0.34,0.82,0.47,1.29,0.45c0.47-0.02,0.92-0.19,1.34-0.4c1.25-0.61,2.34-1.55,3.11-2.71
				c0.26-0.4,0.5-0.83,0.54-1.31c0.11-1.44-1.52-1.7-2.59-1.46c-1.59,0.37-3,1.46-3.74,2.92c-0.15,0.3-0.27,0.64-0.33,0.98
				C300.02,48.82,300.1,49.38,300.49,49.78z"/>
			<path class="st1" d="M322.11,40.91c-1.1-0.11-2.26,0.27-3.06,1.05c-0.17,0.16-0.32,0.35-0.43,0.56c-0.19,0.34-0.26,0.73-0.1,1.07
				c0.14,0.29,0.42,0.49,0.73,0.58c0.3,0.09,0.63,0.08,0.95,0.05c0.94-0.11,1.85-0.48,2.61-1.06c0.26-0.19,0.5-0.42,0.63-0.73
				C323.85,41.53,322.86,40.99,322.11,40.91z"/>
			<path class="st1" d="M294.57,68.65c0.36,0.14,0.78,0.08,1.13-0.1c0.35-0.18,0.63-0.46,0.88-0.75c0.75-0.88,1.25-1.97,1.44-3.11
				c0.07-0.39,0.09-0.8-0.04-1.18c-0.4-1.13-1.73-0.78-2.46-0.23c-1.08,0.82-1.78,2.13-1.85,3.48c-0.02,0.28,0.01,0.58,0.08,0.86
				C293.89,68.08,294.14,68.48,294.57,68.65z"/>
			<path class="st1" d="M294.07,106.05c0.43-0.18,0.75-0.59,0.9-1.03c0.15-0.44,0.17-0.92,0.13-1.39c-0.1-1.39-0.57-2.75-1.36-3.9
				c-0.27-0.39-0.59-0.77-1.02-0.98c-1.29-0.64-2.15,0.77-2.31,1.86c-0.25,1.61,0.24,3.33,1.31,4.56c0.22,0.26,0.49,0.49,0.79,0.67
				C293.01,106.13,293.56,106.27,294.07,106.05z"/>
			<path class="st1" d="M295.04,87.02c0.32-0.02,0.61-0.21,0.81-0.46c0.2-0.25,0.31-0.56,0.4-0.87c0.25-0.92,0.25-1.9-0.01-2.82
				c-0.09-0.31-0.21-0.63-0.44-0.86c-0.69-0.7-1.56,0.02-1.91,0.68c-0.52,0.98-0.59,2.2-0.17,3.23c0.09,0.21,0.21,0.43,0.36,0.61
				C294.33,86.83,294.66,87.04,295.04,87.02z"/>
			<path class="st1" d="M322.16,125.34c-0.21-0.36-0.52-0.65-0.86-0.9c-0.98-0.74-2.17-1.22-3.4-1.35
				c-0.42-0.05-0.86-0.05-1.25,0.11c-1.18,0.5-0.73,1.89-0.1,2.63c0.93,1.1,2.37,1.77,3.82,1.77c0.3,0,0.62-0.04,0.91-0.14
				c0.48-0.15,0.9-0.45,1.05-0.91C322.47,126.15,322.37,125.7,322.16,125.34z"/>
			<path class="st1" d="M308.75,115.64c0.19-0.25,0.24-0.6,0.18-0.92c-0.06-0.31-0.22-0.6-0.4-0.87c-0.53-0.79-1.27-1.43-2.13-1.84
				c-0.29-0.14-0.61-0.26-0.94-0.24c-0.98,0.06-1,1.19-0.73,1.89c0.4,1.04,1.28,1.88,2.33,2.25c0.22,0.08,0.46,0.12,0.69,0.13
				C308.15,116.05,308.52,115.94,308.75,115.64z"/>
			<g>
				<path class="st1" d="M379.83,96.38c-1.24,0.05-2.34,0.86-2.83,1.99c-3.78-0.28-7.45-1.63-10.5-3.87
					c1.1-2.95,1.79-6.11,2.01-9.41c0.81-0.14,1.62-0.22,2.44-0.21c0.53,0.01,1.06,0.04,1.58,0.11c0.47,0.07,0.97,0.15,1.41,0.38
					c0.44,0.23,0.72,0.58,0.91,1.02c0.18,0.43,0.31,0.89,0.58,1.27c0.5,0.7,1.47,0.91,2.27,0.67c0.88-0.28,1.51-1.06,1.81-1.91
					c0.35-1.01,0.31-2.16,0.14-3.2c-0.13-0.83-0.41-1.7-1.03-2.3c-0.65-0.62-1.6-0.8-2.44-0.47c-0.79,0.31-1.31,1.08-1.38,1.91
					c-2.03,0.54-4.17,0.6-6.22,0.2c-0.03-3.42-0.58-6.71-1.58-9.8c1.34-1.13,2.83-2.07,4.42-2.8c0.7-0.31,1.43-0.59,2.17-0.82
					c0.67-0.21,1.39-0.4,2.1-0.37c0.72,0.03,1.31,0.31,1.84,0.79c0.51,0.46,0.95,0.99,1.55,1.33c1.1,0.62,2.53,0.3,3.43-0.53
					c1-0.91,1.35-2.34,1.22-3.65c-0.15-1.57-0.93-3.06-1.79-4.34c-0.69-1.02-1.59-2.01-2.79-2.42c-1.25-0.42-2.62-0.07-3.54,0.87
					c-0.86,0.9-1.07,2.25-0.66,3.4c-2.74,2.29-6.07,3.83-9.59,4.43c-1.42-2.98-3.27-5.71-5.46-8.11c0.81-2.08,1.99-4.02,3.47-5.7
					c0.51-0.58,1.06-1.13,1.64-1.63c0.54-0.47,1.11-0.93,1.78-1.2c0.67-0.27,1.32-0.25,2-0.03c0.65,0.21,1.27,0.51,1.96,0.58
					c1.26,0.11,2.43-0.75,2.92-1.88c0.54-1.24,0.28-2.69-0.37-3.83c-0.78-1.37-2.09-2.41-3.41-3.23c-1.04-0.65-2.27-1.19-3.53-1.07
					c-1.31,0.12-2.43,1-2.87,2.24c-0.42,1.17-0.07,2.49,0.79,3.37c-1.7,3.47-4.39,6.42-7.7,8.43c-0.19,0.11-0.38,0.22-0.57,0.33
					c-1.39-1.12-2.89-2.12-4.45-2.99c-0.96-0.54-1.95-1.03-2.97-1.47c0.13-1.27,0.43-2.52,0.92-3.7c0.21-0.49,0.43-0.96,0.69-1.42
					c0.24-0.42,0.51-0.85,0.88-1.17c0.26-0.23,0.55-0.36,0.87-0.42c0.13-0.03,0.27-0.04,0.41-0.05c0.47-0.01,0.94,0.05,1.39-0.06
					c0.84-0.21,1.4-1.03,1.47-1.86c0.07-0.92-0.42-1.79-1.1-2.39c-0.63-0.55-1.43-0.91-2.25-1.15c-0.22-0.07-0.45-0.13-0.67-0.18
					c-0.81-0.18-1.73-0.26-2.51,0.1c-0.82,0.37-1.34,1.19-1.35,2.09c-0.01,0.85,0.51,1.62,1.26,2c-0.31,2.58-1.37,5.06-3.01,7.07
					c-2.57-0.83-5.27-1.36-8.07-1.54c-1-2.21-1.58-4.59-1.68-7.02c-0.03-0.77-0.02-1.54,0.04-2.31c0.05-0.71,0.14-1.44,0.44-2.1
					c0.29-0.66,0.78-1.1,1.42-1.41c0.61-0.3,1.27-0.51,1.81-0.95c0.98-0.79,1.22-2.23,0.79-3.38c-0.47-1.27-1.67-2.13-2.94-2.5
					c-1.51-0.44-3.18-0.28-4.7,0.05c-1.2,0.26-2.46,0.73-3.28,1.69c-0.86,1-1.05,2.41-0.5,3.61c0.51,1.13,1.68,1.84,2.91,1.87
					c1.19,3.67,1.31,7.67,0.34,11.41c-0.1,0.38-0.21,0.77-0.34,1.14c-1.83,0.19-3.62,0.54-5.35,1.02c-1.45-1.94-2.39-4.25-2.69-6.66
					c0.75-0.38,1.27-1.15,1.26-2c-0.01-0.9-0.53-1.71-1.35-2.09c-0.78-0.35-1.7-0.28-2.51-0.1c-1.03,0.23-2.11,0.62-2.91,1.33
					c-0.67,0.59-1.17,1.47-1.1,2.39c0.06,0.83,0.63,1.66,1.46,1.86c0.46,0.11,0.93,0.05,1.39,0.06c0.49,0.01,0.91,0.14,1.29,0.46
					c0.37,0.32,0.63,0.75,0.87,1.17c0.26,0.46,0.49,0.94,0.69,1.42c0.41,0.98,0.69,2,0.84,3.05c-2.99,1.12-5.77,2.66-8.28,4.55
					c-3.13-2-5.69-4.85-7.32-8.18c0.85-0.88,1.2-2.2,0.79-3.37c-0.44-1.24-1.56-2.12-2.87-2.24c-1.25-0.11-2.49,0.42-3.53,1.07
					c-1.32,0.82-2.63,1.87-3.4,3.23c-0.65,1.15-0.91,2.59-0.37,3.83c0.49,1.13,1.66,1.99,2.92,1.88c0.69-0.07,1.31-0.37,1.96-0.58
					c0.68-0.22,1.33-0.24,2,0.03c0.67,0.27,1.24,0.73,1.77,1.2c0.58,0.51,1.13,1.06,1.64,1.64c1.2,1.35,2.17,2.89,2.94,4.52
					c-2.53,2.51-4.67,5.42-6.3,8.64c-2.13-0.66-4.14-1.73-5.86-3.16c0.35-0.96,0.17-2.08-0.55-2.83c-0.76-0.79-1.9-1.08-2.94-0.73
					c-0.99,0.34-1.75,1.17-2.32,2.01c-0.72,1.07-1.36,2.31-1.49,3.61c-0.1,1.09,0.19,2.28,1.01,3.04c0.75,0.69,1.94,0.95,2.85,0.43
					c0.5-0.28,0.87-0.72,1.29-1.1c0.44-0.39,0.93-0.63,1.53-0.66c0.6-0.02,1.19,0.13,1.75,0.31c0.61,0.19,1.21,0.42,1.8,0.69
					c0.61,0.28,1.2,0.59,1.77,0.94c-1.52,3.78-2.36,7.89-2.38,12.21c-1.52,0.11-3.05,0-4.53-0.4c-0.07-0.83-0.6-1.6-1.39-1.91
					c-0.84-0.33-1.79-0.15-2.44,0.48c-0.62,0.59-0.89,1.47-1.03,2.3c-0.17,1.04-0.21,2.19,0.14,3.2c0.3,0.85,0.93,1.63,1.81,1.91
					c0.8,0.25,1.77,0.03,2.27-0.67c0.27-0.38,0.39-0.84,0.58-1.27c0.19-0.45,0.47-0.79,0.91-1.02c0.43-0.22,0.93-0.31,1.41-0.38
					c0.52-0.07,1.05-0.11,1.58-0.11c0.25,0,0.49,0.03,0.74,0.04c0.22,3.68,1.04,7.2,2.37,10.47c-2.76,1.7-5.92,2.74-9.16,2.97
					c-0.5-1.12-1.6-1.94-2.84-1.99c-1.32-0.05-2.55,0.66-3.15,1.83c-0.57,1.12-0.53,2.47-0.32,3.68c0.27,1.53,0.75,3.14,1.73,4.36
					c0.82,1.03,2.07,1.81,3.42,1.78c1.23-0.03,2.47-0.8,2.83-2.01c0.2-0.66,0.14-1.35,0.19-2.03c0.05-0.71,0.27-1.33,0.77-1.85
					c0.49-0.52,1.14-0.88,1.77-1.2c0.69-0.35,1.4-0.65,2.13-0.91c1.41-0.5,2.88-0.82,4.36-0.98c1.37,2.46,3.04,4.72,4.96,6.75
					c-1.05,1.93-2.53,3.62-4.35,4.85c-0.68-0.49-1.6-0.6-2.35-0.21c-0.8,0.42-1.28,1.26-1.24,2.16c0.04,0.86,0.53,1.64,1.07,2.28
					c0.68,0.81,1.51,1.6,2.51,1.99c0.84,0.33,1.84,0.37,2.63-0.12c0.71-0.44,1.19-1.32,0.98-2.15c-0.11-0.46-0.38-0.85-0.58-1.27
					c-0.21-0.44-0.29-0.88-0.18-1.35c0.12-0.48,0.37-0.91,0.64-1.31c0.29-0.44,0.61-0.86,0.95-1.27c0.55-0.65,1.18-1.22,1.85-1.75
					c2.42,2.17,5.15,4.01,8.13,5.4c-0.43,2.94-1.6,5.76-3.38,8.14c-1.04-0.32-2.22-0.06-2.98,0.75c-0.8,0.85-1.04,2.09-0.6,3.18
					c0.42,1.03,1.34,1.79,2.28,2.35c1.18,0.7,2.54,1.31,3.93,1.37c1.17,0.05,2.42-0.33,3.18-1.26c0.69-0.85,0.9-2.13,0.29-3.07
					c-0.33-0.51-0.82-0.89-1.25-1.31c-0.45-0.45-0.73-0.95-0.79-1.59c-0.06-0.63,0.07-1.27,0.23-1.89c0.17-0.66,0.38-1.31,0.62-1.95
					c0.46-1.19,1.06-2.33,1.78-3.38c2.71,0.93,5.58,1.51,8.55,1.69c0.45,1.67,0.66,3.41,0.64,5.15c-0.01,0.77-0.06,1.54-0.17,2.31
					c-0.1,0.7-0.23,1.43-0.56,2.07c-0.33,0.63-0.84,1.05-1.5,1.33c-0.63,0.27-1.3,0.44-1.86,0.84c-1.03,0.74-1.35,2.16-0.99,3.33
					c0.4,1.29,1.55,2.22,2.79,2.66c1.48,0.53,3.16,0.46,4.69,0.22c1.21-0.19,2.5-0.59,3.37-1.49c0.91-0.95,1.19-2.35,0.71-3.58
					c-0.45-1.16-1.57-1.93-2.79-2.04c-0.94-3.54-0.88-7.3,0.14-10.81c3.63-0.25,7.1-1.09,10.32-2.41c0.18,0.34,0.34,0.7,0.49,1.06
					c0.15,0.39,0.28,0.79,0.38,1.21c0.1,0.38,0.18,0.77,0.14,1.16c-0.04,0.39-0.22,0.71-0.49,0.98c-0.26,0.26-0.57,0.49-0.77,0.81
					c-0.37,0.58-0.24,1.37,0.18,1.89c0.47,0.57,1.24,0.81,1.95,0.78c0.86-0.03,1.7-0.41,2.42-0.85c0.58-0.35,1.15-0.81,1.41-1.45
					c0.27-0.67,0.13-1.43-0.37-1.95c-0.46-0.5-1.19-0.66-1.83-0.46c-0.87-1.16-1.5-2.49-1.86-3.9v-0.01
					c2.94-1.4,5.64-3.22,8.02-5.38c1.71,1,3.25,2.29,4.53,3.79c0.46,0.54,0.89,1.11,1.28,1.71c0.36,0.55,0.7,1.13,0.86,1.77
					c0.15,0.64,0.05,1.23-0.24,1.82c-0.27,0.57-0.63,1.09-0.78,1.71c-0.27,1.13,0.37,2.31,1.33,2.91c1.06,0.65,2.41,0.6,3.54,0.16
					c1.35-0.53,2.47-1.59,3.39-2.68c0.73-0.87,1.38-1.92,1.43-3.08c0.06-1.21-0.59-2.34-1.67-2.91c-1.01-0.53-2.26-0.38-3.17,0.28
					c-2.94-1.99-5.27-4.84-6.67-8.1c-0.14-0.33-0.27-0.66-0.39-1c1.27-1.55,2.41-3.22,3.38-4.99c2.03,0.04,4.06,0.41,5.98,1.1
					c0.73,0.26,1.44,0.57,2.13,0.91c0.63,0.32,1.27,0.68,1.77,1.2c0.5,0.52,0.71,1.14,0.77,1.85c0.05,0.68,0,1.37,0.19,2.03
					c0.36,1.21,1.61,1.98,2.83,2.02c1.35,0.03,2.6-0.75,3.42-1.78c0.98-1.23,1.46-2.84,1.73-4.37c0.21-1.21,0.25-2.55-0.32-3.67
					C382.39,97.04,381.15,96.33,379.83,96.38z"/>
				<path class="st1" d="M338.05,129.52c-0.34-0.33-0.81-0.51-1.26-0.64c-1.34-0.37-2.78-0.38-4.13-0.02
					c-0.45,0.12-0.9,0.29-1.27,0.58c-0.37,0.29-0.65,0.71-0.68,1.18c-0.03,0.55,0.27,1.03,0.71,1.4c0.27,0.22,0.58,0.4,0.89,0.53
					c1.51,0.61,3.3,0.53,4.74-0.23C338.01,131.8,339.07,130.54,338.05,129.52z"/>
			</g>
			<path class="st1" d="M341.05,62.77c0,2.68-2.17,4.84-4.84,4.84c-2.68,0-4.84-2.17-4.84-4.84c0-2.68,2.17-4.84,4.84-4.84
				C338.88,57.93,341.05,60.09,341.05,62.77z"/>
			<path class="st1" d="M340.56,82.92c0,1.89-1.46,3.42-3.25,3.42c-1.8,0-3.25-1.53-3.25-3.42c0-1.89,1.46-3.42,3.25-3.42
				C339.11,79.5,340.56,81.03,340.56,82.92z"/>
			<path class="st1" d="M353.49,95.17c0,1.89-1.46,3.42-3.25,3.42s-3.25-1.53-3.25-3.42c0-1.89,1.46-3.42,3.25-3.42
				S353.49,93.28,353.49,95.17z"/>
			<path class="st1" d="M323.15,72.15c0,1.89-1.45,3.42-3.25,3.42c-1.79,0-3.25-1.53-3.25-3.42c0-1.89,1.46-3.42,3.25-3.42
				C321.69,68.73,323.15,70.26,323.15,72.15z"/>
			<path class="st1" d="M313.16,81.72c-0.29,0.9-1.23,1.4-2.08,1.12c-0.85-0.28-1.31-1.24-1.01-2.13c0.29-0.9,1.23-1.4,2.08-1.12
				C313,79.87,313.45,80.83,313.16,81.72z"/>
			<path class="st1" d="M358.43,83.43c-0.29,0.9-1.23,1.4-2.08,1.12c-0.85-0.28-1.31-1.24-1.01-2.13c0.29-0.9,1.23-1.4,2.08-1.12
				C358.27,81.57,358.72,82.53,358.43,83.43z"/>
			<path class="st1" d="M325.09,104.18c-0.29,0.9-1.23,1.4-2.08,1.12c-0.85-0.28-1.31-1.24-1.01-2.13c0.29-0.9,1.23-1.4,2.08-1.12
				C324.93,102.33,325.39,103.28,325.09,104.18z"/>
			<path class="st1" d="M348.54,84.88c-0.29,0.9-1.23,1.4-2.08,1.12c-0.85-0.28-1.31-1.24-1.01-2.13c0.29-0.9,1.23-1.4,2.08-1.12
				C348.38,83.02,348.83,83.98,348.54,84.88z"/>
			<path class="st1" d="M342.16,105.08c0,2.14-2.8,3.87-6.25,3.87c-3.45,0-6.25-1.73-6.25-3.87c0-2.14,2.8-3.87,6.25-3.87
				C339.36,101.2,342.16,102.94,342.16,105.08z"/>
			<path class="st1" d="M358.09,70.09c0,4.04-2.83,7.32-6.31,7.32c-3.49,0-6.31-3.28-6.31-7.32c0-4.04,2.83-7.32,6.31-7.32
				C355.26,62.77,358.09,66.05,358.09,70.09z"/>
			<path class="st1" d="M325.12,89.52c1.32,3.82-0.28,7.84-3.58,8.98c-3.3,1.14-7.04-1.04-8.36-4.86c-1.32-3.82,0.28-7.84,3.58-8.98
				C320.06,83.53,323.8,85.7,325.12,89.52z"/>
			<path class="st1" d="M382.99,98.22c0.57,1.12,0.53,2.47,0.32,3.67c-0.27,1.53-0.75,3.14-1.73,4.37
				c-0.82,1.03-2.07,1.81-3.42,1.78c-1.22-0.04-2.47-0.81-2.83-2.02c-0.19-0.66-0.14-1.35-0.19-2.03c-0.05-0.71-0.27-1.33-0.77-1.85
				c-0.5-0.52-1.14-0.88-1.77-1.2c-0.69-0.35-1.41-0.65-2.13-0.91c-1.92-0.69-3.95-1.06-5.98-1.1c-0.98,1.77-2.11,3.45-3.38,4.99
				c0.12,0.34,0.25,0.67,0.39,1c1.4,3.26,3.74,6.11,6.67,8.1c0.91-0.66,2.17-0.81,3.17-0.28c1.07,0.57,1.73,1.7,1.67,2.91
				c-0.06,1.16-0.71,2.21-1.43,3.08c-0.92,1.09-2.04,2.15-3.39,2.68c-1.13,0.44-2.48,0.49-3.54-0.16c-0.97-0.59-1.6-1.78-1.33-2.91
				c0.15-0.62,0.51-1.14,0.78-1.71c0.29-0.59,0.39-1.18,0.24-1.82c-0.16-0.64-0.5-1.22-0.86-1.77c-0.39-0.59-0.82-1.17-1.28-1.71
				c-1.28-1.51-2.82-2.79-4.53-3.79c-2.38,2.16-5.09,3.98-8.02,5.38v0.01c0.36,1.41,0.99,2.74,1.86,3.9
				c0.64-0.19,1.37-0.03,1.83,0.46c0.5,0.53,0.65,1.29,0.37,1.95c-0.26,0.64-0.83,1.1-1.41,1.45c-0.73,0.43-1.56,0.81-2.42,0.85
				c-0.71,0.03-1.49-0.21-1.95-0.78c-0.42-0.52-0.55-1.31-0.18-1.89c0.21-0.32,0.51-0.54,0.77-0.81c0.27-0.27,0.45-0.59,0.49-0.98
				c0.03-0.39-0.05-0.78-0.14-1.16c-0.1-0.41-0.23-0.81-0.38-1.21c-0.14-0.37-0.3-0.72-0.49-1.06c-3.22,1.33-6.69,2.16-10.32,2.41
				c-1.02,3.51-1.07,7.27-0.14,10.81c1.22,0.11,2.35,0.88,2.79,2.04c0.48,1.23,0.21,2.62-0.71,3.58c-0.87,0.9-2.16,1.3-3.37,1.49
				c-1.53,0.24-3.21,0.31-4.69-0.22c-1.24-0.44-2.39-1.37-2.79-2.66c-0.37-1.17-0.05-2.59,0.99-3.33c0.56-0.4,1.23-0.57,1.86-0.84
				c0.66-0.28,1.17-0.69,1.5-1.33c0.33-0.64,0.46-1.37,0.56-2.07c0.11-0.77,0.17-1.54,0.17-2.31c0.02-1.74-0.19-3.48-0.64-5.15
				c-2.98-0.18-5.85-0.77-8.55-1.69c-0.72,1.06-1.32,2.19-1.78,3.38c-0.25,0.64-0.46,1.29-0.62,1.95c-0.15,0.61-0.29,1.26-0.23,1.89
				c0.06,0.64,0.35,1.14,0.79,1.59c0.43,0.42,0.92,0.79,1.25,1.31c0.61,0.94,0.39,2.22-0.29,3.07c-0.76,0.93-2.01,1.3-3.18,1.26
				c-1.39-0.06-2.75-0.67-3.93-1.37c-0.94-0.56-1.86-1.31-2.28-2.35c-0.44-1.09-0.2-2.33,0.6-3.18c0.75-0.81,1.94-1.07,2.98-0.75
				c1.78-2.38,2.94-5.21,3.38-8.14c-3.57-1.66-6.79-3.93-9.53-6.69c19.26-5.69,29.73-17.84,35.1-31.6c1.5-3.83,2.6-7.79,3.38-11.78
				c0.6-3.02,1.02-6.05,1.28-9.05c1.57,0.87,3.06,1.87,4.45,2.99c0.19-0.11,0.38-0.22,0.57-0.33c3.3-2.01,6-4.95,7.7-8.43
				c-0.86-0.88-1.21-2.2-0.79-3.37c0.45-1.24,1.56-2.12,2.87-2.24c1.26-0.11,2.49,0.42,3.53,1.07c1.31,0.82,2.63,1.86,3.41,3.23
				c0.65,1.15,0.91,2.59,0.37,3.83c-0.49,1.13-1.66,1.99-2.92,1.88c-0.69-0.07-1.31-0.37-1.96-0.58c-0.68-0.22-1.33-0.24-2,0.03
				c-0.67,0.27-1.24,0.73-1.78,1.2c-0.58,0.51-1.13,1.06-1.64,1.63c-1.49,1.68-2.66,3.62-3.47,5.7c2.19,2.41,4.04,5.14,5.46,8.11
				c3.51-0.6,6.85-2.14,9.59-4.43c-0.42-1.15-0.2-2.5,0.66-3.4c0.91-0.95,2.29-1.3,3.54-0.87c1.19,0.41,2.1,1.4,2.79,2.42
				c0.87,1.29,1.64,2.78,1.79,4.34c0.13,1.31-0.22,2.74-1.22,3.65c-0.9,0.83-2.33,1.14-3.43,0.53c-0.6-0.34-1.05-0.87-1.55-1.33
				c-0.53-0.47-1.12-0.76-1.84-0.79c-0.71-0.03-1.43,0.16-2.1,0.37c-0.74,0.23-1.46,0.51-2.17,0.82c-1.59,0.73-3.09,1.67-4.42,2.8
				c0.99,3.09,1.54,6.38,1.58,9.8c2.06,0.4,4.19,0.34,6.22-0.2c0.07-0.83,0.59-1.61,1.38-1.91c0.84-0.33,1.79-0.15,2.44,0.47
				c0.62,0.6,0.9,1.47,1.03,2.3c0.17,1.04,0.21,2.19-0.14,3.2c-0.3,0.85-0.93,1.63-1.81,1.91c-0.8,0.25-1.77,0.03-2.27-0.67
				c-0.27-0.38-0.39-0.84-0.58-1.27c-0.19-0.45-0.47-0.79-0.91-1.02c-0.43-0.22-0.93-0.31-1.41-0.38c-0.53-0.07-1.05-0.1-1.58-0.11
				c-0.82-0.01-1.63,0.06-2.44,0.21c-0.21,3.29-0.9,6.45-2.01,9.41c3.05,2.23,6.72,3.59,10.5,3.87c0.5-1.13,1.59-1.94,2.83-1.99
				C381.15,96.33,382.39,97.04,382.99,98.22z"/>
		</g>
		<path class="st1" d="M394.97,53.53l-1.81,18.25l-102.05,46.25c-2.56-4.87-4.24-9.92-4.96-15.18L394.97,53.53z"/>
		<path class="st1" d="M394.97,53.53l-1.81,18.25l-102.05,46.25c-2.56-4.87-4.24-9.92-4.96-15.18L394.97,53.53z"/>
		<path class="st1" d="M394.97,53.53l-1.81,18.25l-102.05,46.25c-2.56-4.87-4.24-9.92-4.96-15.18L394.97,53.53z"/>
	</g>
	<g>
		<defs>
			<rect id="SVGID_1_" x="58.9" y="37.44" width="554.93" height="333.27"/>
		</defs>
		<clipPath id="SVGID_2_">
			<use xlink:href="#SVGID_1_"  style="overflow:visible;"/>
		</clipPath>
		<g class="st3">
			<g>
				<path class="st4" d="M579.1,346.83c-4.21,4.01-9.03,5.78-14.36,5.72l-18.92-78.23l-1.53-6.32l-1.83-7.57l-4.25-56.92
					c5.08,1.27,9.81,3.45,13.98,6.39c6.81,4.75,12.09,11.45,14.78,19.49c0.24,0.73,0.46,1.43,0.66,2.16
					c3.17,11.45,6.08,23.65,8.79,36.45c3.71,17.54,7.02,36.22,10.07,55.68C587.82,332.14,585.28,340.95,579.1,346.83z"/>
			</g>
			<path class="st5" d="M507.21,678.62l10.42-18.11l-10.42-261.68h-9.08l-47.98,279.78h-63.87c0,0,12.29-17.56,41.37-14.81
				c4.09-103.23,7.85-208.56,17.25-278.54h103.79l-9.66,275.25c0,0,36.21,6.04,37.86,18.11H507.21z"/>
			<path class="st5" d="M548.69,385.27H444.9c2.5-18.58,5.4-34.67,8.8-47.56l-11.35-116.6c0.61-6.23,3.19-10.41,17.9-16.41
				c10.83-4.42,22.44-6.63,34.14-6.63l0,0c4.5,0,8.99,0.33,13.43,1l31.34,4.67c1.86,0.28,3.3,1.78,3.5,3.65l3.88,37.1
				c1.4,13.42,1.23,26.95-0.52,40.33c-1.62,12.44-3.35,26.59-3.15,29.02L548.69,385.27z"/>
			<path class="st6" d="M488.63,251.3h-20.95c-1.72,0-3.12-1.4-3.12-3.12v-0.05c0-1.72,1.4-3.12,3.12-3.12h20.95
				c1.72,0,3.12,1.4,3.12,3.12v0.05C491.75,249.91,490.35,251.3,488.63,251.3z"/>
			<g>
				<path class="st4" d="M479,198.99l0.01,0.24c0.34,12.32,20.39,27.78,20.39,27.78s12.54-15.8,12.6-27.66l-5.83-0.57l-5.7-0.56
					l-3.56-0.07l-0.56-0.01c-2-0.02-4.01-0.01-5.99,0.05c-1.77,0.05-3.55,0.14-5.32,0.25C483.02,198.58,481,198.75,479,198.99z"/>
				<path class="st4" d="M485.12,203.1c0.07,4.38,2.63,8.42,6.58,10.37c1.05,0.49,2.13,0.85,3.19,1
					c6.27,0.94,12.23-4.08,11.73-10.95l0-0.18l-0.04-0.25l-0.03-0.48l-0.32-3.12l-0.74-7.87c-0.09-0.84-0.6-1.59-1.38-1.97
					l-7.11-3.42l-4.82-2.89l-7.26-4.36l-0.33-0.17l0.18,1.93l0.25,14.8l0.01,3.54L485.12,203.1z"/>
				<path class="st7" d="M489.62,182.1c-0.01,9.82,7.04,18.66,17.01,21.42l0-0.18l-0.04-0.25l-0.03-0.48l-0.32-3.12l-0.74-7.87
					c-0.09-0.84-0.6-1.59-1.38-1.97l-7.11-3.42l-4.82-2.89L489.62,182.1z"/>
				<path class="st4" d="M523.56,170.05c-0.59,3.65-1.82,7.96-4.33,12.06c-4.83,7.9-14.39,11.83-23.22,9.03
					c-4.44-1.4-9.72-4.22-15.73-9.44c0,0-6.42-5.45-9.22-14.74c0,0-9.65,0.48-9.29-9.39c0,0,0.35-9.86,8.06-6.41
					c-0.17-0.6-5.67-19.35,5.25-25.23c0,0,15.27-12.96,32.51-1.78c2.9,1.88,5.34,4.37,7.36,7.18c2.87,3.99,6.67,10.35,6.71,16.11
					c0,0-0.41,4.69,1.13,10.22c0.64,2.31,1.01,4.68,1.09,7.06C523.95,166.5,523.84,168.28,523.56,170.05z"/>
				<path class="st8" d="M494.19,159.34c0.3,1.63,1.46,2.79,2.57,2.61c1.12-0.18,1.78-1.65,1.47-3.28c-0.3-1.62-1.46-2.79-2.57-2.61
					C494.54,156.25,493.88,157.72,494.19,159.34z"/>
				<path class="st8" d="M512.51,156.96c0.3,1.63,1.46,2.79,2.57,2.61c1.12-0.18,1.78-1.65,1.47-3.28c-0.3-1.62-1.46-2.79-2.57-2.61
					C512.86,153.87,512.2,155.34,512.51,156.96z"/>
				<g>
					<path class="st8" d="M489.13,154.69c-0.01,0-0.01-0.01-0.01-0.01c-0.08-0.02-0.17-0.01-0.25-0.01
						c0.72-3.05,3.08-5.71,6.07-6.68c0.47-0.15,0.98-0.27,1.46-0.16c0.48,0.11,0.94,0.5,0.97,1c0.03,0.55-0.43,1-0.89,1.31
						c-0.95,0.63-2.05,1-3.12,1.39c-1.07,0.39-2.16,0.82-3.03,1.56C489.8,153.52,489.39,154.08,489.13,154.69z"/>
				</g>
				<g>
					<path class="st8" d="M507.54,146.46c0.3-0.39,0.77-0.63,1.23-0.81c3.07-1.21,6.75-0.54,9.27,1.58
						c-0.46-0.23-0.94-0.41-1.45-0.48c-0.03,0-0.06,0-0.09,0c-0.31-0.06-0.62-0.1-0.93-0.11c-1.14-0.01-2.25,0.35-3.33,0.73
						c-1.08,0.38-2.16,0.79-3.29,0.91c-0.55,0.06-1.19,0-1.51-0.44C507.14,147.45,507.24,146.86,507.54,146.46z"/>
				</g>
				<path class="st7" d="M507.78,168.26c1.02,0.06,2.03-0.1,2.95-0.53c0.44-0.21,0.9-0.48,1.26-0.81c0.06-0.06,0.2-0.19,0.22-0.28
					c-0.01,0.08-0.02,0-0.03-0.04c-0.06-0.25-0.3-0.53-0.43-0.75c-1.19-1.99-2.54-3.88-4.05-5.63c-0.31-0.37-0.39-0.89-0.04-1.26
					c0.31-0.32,0.95-0.4,1.26-0.04c0.95,1.11,1.86,2.25,2.7,3.45c0.4,0.57,0.78,1.14,1.15,1.73c0.38,0.6,0.84,1.24,1.09,1.91
					c0.55,1.48-0.88,2.58-2.04,3.17c-1.23,0.64-2.61,0.95-3.99,0.87c-0.48-0.03-0.9-0.36-0.92-0.87
					C506.9,168.73,507.3,168.23,507.78,168.26z"/>
				<path class="st9" d="M523.88,164.72c-1.57-0.58-3.28-0.91-4.94-1.15c-10.22-1.45-20.62-0.63-30.67,1.54
					c-1.09,0.23-2.17,0.49-3.25,0.75c-0.09-0.05-0.19-0.07-0.3-0.06c-4.25-4.38-8.56-8.74-13.72-12.05
					c-0.54-0.35-1.05,0.52-0.51,0.86c4.45,2.85,8.26,6.52,11.95,10.27c0.44,0.46,0.88,0.91,1.33,1.37c0.18,0.18,0.38,0.46,0.6,0.6
					c0.17,0.71,0.24,1.41,0.24,2.11c0,4-2.41,7.82-3.85,11.45c-0.17,0.42-0.33,0.85-0.48,1.29c6.01,5.22,11.29,8.04,15.73,9.44
					c8.83,2.8,18.39-1.13,23.22-9.03c2.51-4.1,3.74-8.41,4.33-12.06C523.84,168.28,523.95,166.5,523.88,164.72z"/>
				<g>
					<path class="st9" d="M519.5,169.41c-9.92-1.79-20.11-1.74-30.02,0.15c-0.63,0.12-0.36,1.08,0.27,0.96
						c9.72-1.86,19.75-1.91,29.49-0.15C519.87,170.49,520.14,169.53,519.5,169.41z"/>
					<path class="st9" d="M511.08,176.14c-6.13,0.12-12.27-0.25-18.34-1.12c-0.63-0.09-0.9,0.87-0.27,0.96
						c6.16,0.89,12.38,1.28,18.6,1.16C511.72,177.13,511.72,176.13,511.08,176.14z"/>
					<path class="st9" d="M515.05,181.61c-7.63,1.11-15.45,0.76-22.95-1.01c-0.63-0.15-0.89,0.82-0.27,0.96
						c7.69,1.82,15.67,2.15,23.49,1.01C515.95,182.49,515.68,181.52,515.05,181.61z"/>
				</g>
				<path class="st8" d="M463.37,148.89c0.1,0.41,0.25,0.8,0.42,1.16c0.61,1.38,1.61,2.43,2.88,3.3c0.15,0.11,0.3,0.2,0.44,0.31
					c0.98,0.61,2.04,1.19,2.7,2.17c0.23,0.36,0.4,0.76,0.52,1.16c0.25,0.81,0.29,1.71,0.28,2.54c0.02,2.66-0.21,5.33,0.75,7.88
					c0.26,0.69,0.61,1.37,1.03,1.99c0.13,0.21,0.28,0.43,0.45,0.62c0.06,0.09,0.12,0.17,0.2,0.25c0,0.01,0,0.01,0,0.01l0,0.01
					l0.01,0.01c0.71,0.79,1.51,1.43,2.48,1.85c0.95,0.42,2,0.58,3.03,0.47c0.92-0.1,1.84-0.41,2.62-0.97
					c1.94-1.39,2.12-3.67,2.12-5.88c0-0.5,0.04-0.95,0.09-1.43c0-0.01,0-0.01,0-0.03c0.43-3.95,2.54-7.2,4.57-10.64
					c1.09-1.85,2.1-3.76,2.73-5.81c0.4-1.29,0.54-2.59,0.61-3.9c0.06-1.19,0.04-2.39,0.1-3.61c0.05-1.36,0.27-2.76,0.92-3.98
					c0.4-0.75,1.16-1.99,2.15-1.55c0.27,0.12,0.51,0.28,0.7,0.46c1.61,1.44,0.92,4.59,0.92,6.41c-0.01,2.18,0.76,4.39,2.49,5.79
					c1.54,1.24,3.64,1.58,5.46,0.79c1.97-0.86,2.9-2.86,2.72-4.94c-0.1-1.32-0.57-2.52-1.12-3.7c-0.49-1.08-1.16-2.2-1.34-3.39
					c-0.13-0.75-0.02-2.52,1.17-2.08c0.2,0.09,0.38,0.2,0.53,0.36c0.26,0.27,0.44,0.64,0.58,1.04c0.23,0.69,0.35,1.48,0.55,2.03
					c0.43,1.11,1.17,1.99,2.08,2.67c0.4,0.31,0.85,0.57,1.32,0.81c2.96,1.49,7.29,1.81,8.34,5.51c0.09,0.28,0.15,0.55,0.21,0.84
					c0.01,0.01,0.01,0.03,0.01,0.04c0.17,0.71,0.3,1.43,0.55,2.13l0,0.01c0,0.01,0,0.01,0.01,0.03l0,0.01
					c0.27,0.8,0.69,1.51,1.43,2.04c0,0,0.01,0,0.01,0.01c0.67,0.48,1.46,0.67,2.24,0.61c0.92-0.05,1.85-0.47,2.56-1.1
					c0.12-0.11,0.22-0.22,0.32-0.33c1.5-1.67,1.58-4.1,1.33-6.22c0.5-1.22,0.7-2.53,0.66-3.88c-0.23-8.61-6.18-16.9-13.47-21.1
					c-4.45-2.56-9.54-3.57-14.62-3.79c-5.1-0.23-10.36,0.09-15.35,1.19c-4.69,1.04-9.22,3.02-12.73,6.38
					c-3.37,3.25-5.56,7.54-6.98,11.96c-0.73,2.27-1.29,4.61-1.68,6.96C463.04,144.54,462.84,146.78,463.37,148.89z"/>
			</g>
			<g>
				<polygon class="st9" points="527.41,334.72 561.35,344.21 596.67,278.68 585.67,279.39 560.69,281.01 549.6,281.74 				"/>
				<g>
					<path class="st4" d="M533.75,306.38l4.56-0.83c1.2-0.22,2.1,1.06,1.5,2.12l-1.15,2.01l9.13,4.56c2.33,1.16,3.81,3.53,3.84,6.14
						l0.17,14.03c0,0,6.91,3.73,17.82-5.37c6.85,4.97,8.27,12.09,5.15,21.02c0,0-12.73,9.75-35-5.84l-14.41-9.49
						c-1.99-1.31-3.19-3.53-3.19-5.91v-7.55c0-1.73,0.58-3.41,1.66-4.76l6.3-7.95C531.04,307.41,532.32,306.64,533.75,306.38z"/>
					<g>
						<path class="st4" d="M537.31,310.09c-1.04-0.74-1.81,0.15-1.96,1c-0.25,1.38,0.74,2.73,1.58,3.71
							c1.97,2.31,4.59,3.91,7.16,5.47c1.11,0.67,0.09,2.42-1.02,1.74c-3.29-2-6.91-4.18-8.9-7.61c-0.93-1.61-1.29-3.71-0.11-5.3
							c1.09-1.47,3.36-1.84,4.68-0.44C539.62,309.61,538.2,311.03,537.31,310.09L537.31,310.09z"/>
					</g>
				</g>
				<path class="st9" d="M566.78,294.56c6.03,2.71,13.75-1.45,17.27-9.29c0.87-1.96,1.4-3.96,1.62-5.88l-24.98,1.62
					C559.92,286.99,562.17,292.49,566.78,294.56z"/>
			</g>
			<path class="st5" d="M576.42,268.01h-32.13l-1.83-7.57l-4.25-56.92c5.08,1.27,9.81,3.45,13.98,6.39
				c6.81,4.75,12.09,11.45,14.78,19.49c0.24,0.73,0.46,1.43,0.66,2.16C570.81,243.02,573.72,255.22,576.42,268.01z"/>
			<path class="st5" d="M547.4,238.77c-0.2-4.02-0.48-8.03-0.82-12.04c-0.06-0.71-1.18-0.72-1.12,0
				c1.21,14.14,1.54,28.36,0.99,42.55c-0.16,4.02-0.38,8.04-0.68,12.05c-0.05,0.72,1.06,0.71,1.12,0
				C547.94,267.16,548.11,252.94,547.4,238.77z"/>
			<g>
				<path class="st4" d="M458.33,256.58l-12.2,49.78l-0.59,2.38l-0.6,2.46l-7.35,30l-1.59,6.48l-5.64,23h-22.72
					c1.42-15.04,2.97-29.59,4.67-43.41c3.57-28.79,7.86-54.34,13.42-74.26c0-0.02,0-0.03,0.01-0.05
					c4.41-15.78,9.61-28.02,15.88-35.53c3.82-4.59,8.04-7.41,12.72-8.2v0.02L458.33,256.58z"/>
				<path class="st5" d="M458.33,205.5c0,0-36.65,7.42-42.8,79.32c12.41,7.19,24.61,10.83,36.57,10.64l13.32-36.26L458.33,205.5z"/>
			</g>
			<path class="st5" d="M458.17,242.4c-0.04-0.64-1.04-0.65-1.01,0c0.77,13.99-1.32,28.09-6.11,41.26c-1.35,3.72-2.92,7.36-4.7,10.9
				c-0.29,0.58,0.58,1.09,0.87,0.51c6.33-12.65,10.06-26.55,10.91-40.67C458.39,250.4,458.39,246.39,458.17,242.4z"/>
			<g>
				<path class="st5" d="M497.23,231.61c-7.96-5.48-14.65-12.76-19.48-21.13c-1.38-2.39-2.6-4.86-3.66-7.4
					c-0.25-0.59-1.22-0.33-0.97,0.27c3.8,9.12,9.63,17.35,16.99,23.93c2.09,1.87,4.31,3.61,6.62,5.2
					C497.25,232.85,497.76,231.98,497.23,231.61z"/>
				<path class="st5" d="M513.24,206.87c-1.62,8.56-5.66,16.58-11.61,22.96c-0.44,0.47,0.27,1.19,0.71,0.71
					c6.05-6.5,10.21-14.68,11.87-23.41C514.34,206.5,513.36,206.23,513.24,206.87z"/>
			</g>
		</g>
		<g class="st3">
			<g>
				<path class="st8" d="M406.84,193.69c1.29-1.04,2.71-1.66,3.95-2.86c2.14-2.06,3.55-5.7,4.13-9.57c0.58-3.86,0.4-7.93-0.13-11.81
					c-1.2-8.81-4.11-16.78-7.14-24.4c-2.46-6.17-5.07-12.3-8.54-17.08c-3.47-4.77-7.95-8.1-12.53-7.72
					c-6,0.51-11.05,7.13-14.54,14.44c-2.95,6.17-5.13,13.13-7.75,19.65c-2.56,6.39-4.57,13.78-4.54,21.53
					c0.02,6.03,1.67,12.35,4.95,15.37c1.23,1.13,2.62,1.75,3.87,2.84c1.25,1.09,2.4,2.84,2.58,5.08c0.19,2.41-0.8,4.69-2,6.2
					c-1.2,1.51-2.62,2.51-3.82,4.02c-3,3.76-4.19,10.95-2.46,16.37c1.73,5.42,6.36,8.1,9.75,5.29c0.2,5.31,2.46,10.28,5.56,12.26
					c3.1,1.98,6.89,0.87,9.35-2.73c2.45,3.6,6.24,4.71,9.34,2.74c3.1-1.97,5.36-6.93,5.57-12.22c3.35,2.64,7.85,0.18,9.65-5.02
					c1.81-5.2,0.84-12.31-2.01-16.14c-1.24-1.66-2.76-2.74-4.03-4.35c-1.27-1.61-2.33-4.05-2.09-6.6c0.22-2.34,1.46-4.11,2.79-5.2
					C406.77,193.75,406.8,193.72,406.84,193.69z"/>
			</g>
			<path class="st10" d="M408.09,214.77L408.09,214.77c4.22,8.09,16.34,5.96,17.54-3.09l0.12-0.9c0.9-3.02,1.25-6.17,1.01-9.32
				l-0.23-3.3l0-0.56l-0.15-10.67l-22.01-2.39l0.32,8.81c0.06,1.6,0.14,3.26,0.29,4.88c0.02,0.38,0.02,2.19,0.02,4.22
				c-0.01,0.45,0.01,0.92,0.06,1.36C405.25,207.64,406.29,211.37,408.09,214.77z"/>
			<path class="st11" d="M405.94,203.93c3.25,0.41,6.65,0.2,10.01-0.69c0.04-0.01,0.08-0.02,0.12-0.03
				c6.29-1.7,10.44-7.71,10.35-14.22l-0.03-2.05l-22.01-2.39l0.32,8.81c0.06,1.6,0.14,3.26,0.29,4.88c0.02,0.41,0.02,2.44,0.02,4.63
				C405.35,203.25,405.6,203.54,405.94,203.93z"/>
			<path class="st10" d="M449.96,147.71c-1.28-0.08-2.72,0.42-4.12,1.3c-2.07-8.54-6.79-17.57-12.49-23.73
				c-2.41-3.07-5.14-5.04-8.09-6.2c-1.6-0.74-3.21-1.22-4.81-1.32c-1.1-0.07-2.19-0.08-3.26-0.05c-1.07,0.01-2.16,0.07-3.26,0.19
				c-1.6,0.17-3.19,0.73-4.75,1.54c-2.9,1.29-5.54,3.38-7.8,6.55c-5.43,6.41-9.74,15.64-11.43,24.26c-1.44-0.81-2.9-1.25-4.18-1.11
				c-4.26,0.47-5.51,7.27-4.22,12.38c1.64,6.48,6.6,8.41,11.18,9.6c2.18,4.26,5.23,8.41,8.72,11.86c3.66,4.12,8.33,7.14,13.61,8.3
				c0.16,0.04,0.31,0.07,0.47,0.1c0.31,0.06,0.61,0.15,0.92,0.2c0.21,0.03,0.42,0.03,0.63,0.05c0.18,0.02,0.35,0.03,0.53,0.04
				c0.41,0.03,0.81,0.04,1.22,0.03c0.41-0.01,0.82-0.04,1.22-0.08c0.18-0.02,0.35-0.04,0.53-0.06c0.21-0.03,0.42-0.04,0.63-0.08
				c0.31-0.06,0.6-0.16,0.91-0.24c0.15-0.04,0.31-0.08,0.46-0.12c5.22-1.39,9.76-4.61,13.23-8.89c3.33-3.6,6.19-7.88,8.18-12.23
				c4.53-1.4,9.4-3.55,10.74-10.09C455.79,154.73,454.25,147.99,449.96,147.71z"/>
			<g>
				<path class="st8" d="M376.31,140.2c2.39,0.44,4.83-0.74,6.56-2.45c1.72-1.71,2.87-3.9,4.09-6c2.46-4.26,5.35-8.4,9.38-11.22
					c2.67-1.87,5.74-3.09,8.78-4.29c6.26-2.48,12.98-5,19.57-3.63c6.41,1.33,11.47,6.08,16.4,10.39c4.93,4.31,10.63,8.58,17.18,8.59
					c-2.81,0.37-5.61,0.74-8.42,1.11c5.49,3.84,9.2,10.6,8.24,17.23c-0.62,4.25-2.99,8-4.5,12.02c-1.51,4.02-1.99,8.97,0.79,12.24
					c-1.94-0.55-3.6-2.03-4.36-3.89c0.36,3.46-0.92,7.06-3.38,9.53c-2.46,2.46-6.06,3.75-9.52,3.4c2.36-1.15,3.41-4.01,3.39-6.64
					c-0.02-2.62-0.88-5.16-1.33-7.74c-0.4-2.31-0.42-4.85,0.68-6.89c-0.76,1-1.99,1.64-3.24,1.63c3.66-4.99,4.35-11.93,2-17.63
					c-6.42-2.38-12.14-6.69-16.08-12.3c1.71,4.38-0.06,9.84-4,12.4c-1.2-5.72-3.24-11.26-6.02-16.39c0.85,3.74-1.65,7.42-4.49,10
					c-2.83,2.58-6.21,4.75-8.07,8.1c-1.85,3.36-1.28,8.5,2.29,9.88c-2.36,1.24-5.64,0.17-6.82-2.22c2.2,4.24,2.85,9.27,1.8,13.93
					c-0.28,1.22-0.67,2.45-0.53,3.7c0.14,1.24,0.99,2.53,2.24,2.65c-1.42,0.19-2.91-0.37-3.86-1.45c1.6,1.65,2.1,4.27,1.23,6.39
					c-0.87,2.12-3.07,3.63-5.37,3.68c1.92-1.25,1.87-4.23,0.62-6.15c-1.24-1.93-3.29-3.14-5.07-4.59
					c-4.41-3.59-7.34-8.94-7.99-14.59c-0.65-5.65,0.99-11.53,4.48-16.02C380.48,143.58,377.64,142.41,376.31,140.2z"/>
			</g>
			<g>
				<path class="st11" d="M427.63,167.7c-0.34-0.83-0.97-1.51-1.5-2.23c-0.6-0.82-1.1-1.69-1.53-2.6c-0.87-1.83-1.37-3.77-1.55-5.76
					c-0.05-0.55-0.69-0.91-1.17-0.84c-0.57,0.08-0.82,0.61-0.77,1.14c0.3,3.34,1.55,6.57,3.55,9.32c0.77,1.06,1.9,2.2,0.79,3.37
					c-1.11,1.16-3,0.85-4.47,0.66c-1.28-0.16-1.41,1.83-0.13,1.99c1.91,0.24,3.96,0.4,5.55-0.78
					C427.71,171.01,428.3,169.31,427.63,167.7z"/>
				<path class="st8" d="M407.97,158.1c0.25,1.85,1.47,3.27,2.72,3.18c1.25-0.09,2.06-1.66,1.81-3.5c-0.25-1.85-1.47-3.27-2.72-3.18
					C408.53,154.69,407.72,156.26,407.97,158.1z"/>
				<path class="st8" d="M427.69,158.01c0.25,1.85,1.47,3.27,2.72,3.18c1.25-0.09,2.06-1.66,1.81-3.5
					c-0.25-1.85-1.47-3.27-2.72-3.18C428.25,154.6,427.44,156.16,427.69,158.01z"/>
				<g>
					<path class="st8" d="M428.42,144.91c0.44-0.21,0.89-0.2,1.3-0.14c2.76,0.38,4.78,2.77,5.15,5.91
						c-0.17-0.43-0.37-0.83-0.67-1.14c-0.02-0.02-0.04-0.03-0.06-0.04c-0.16-0.21-0.34-0.39-0.55-0.54
						c-0.75-0.56-1.7-0.77-2.64-0.94c-0.94-0.17-1.91-0.32-2.73-0.76c-0.4-0.21-0.79-0.57-0.73-1.13
						C427.56,145.61,427.98,145.12,428.42,144.91z"/>
				</g>
				<g>
					<path class="st8" d="M411.34,144.12c-0.4-0.31-0.84-0.41-1.26-0.45c-2.76-0.28-5.09,1.6-5.9,4.6c0.22-0.38,0.48-0.73,0.82-0.96
						c0.02-0.01,0.04-0.02,0.06-0.03c0.19-0.16,0.39-0.3,0.62-0.41c0.82-0.37,1.78-0.36,2.73-0.3c0.95,0.05,1.92,0.14,2.79-0.1
						c0.42-0.12,0.85-0.38,0.88-0.94C412.09,145.01,411.75,144.43,411.34,144.12z"/>
				</g>
				<path class="st11" d="M411.8,173.92c3.07,2.77,7.51,3.78,11.49,2.71c1.14-0.31,1.56,1.48,0.43,1.78
					c-4.64,1.24-9.7-0.03-13.25-3.24C409.59,174.38,410.93,173.14,411.8,173.92z"/>
			</g>
			<path class="st5" d="M367.62,673.61c0,0,3.36,6.56,2.02,22.19h-12.39v-3.87l-8.96,3.87h-45.05c0,0-1.85-6.22,14.29-5.55
				l30.99-19.84h18.77L367.62,673.61z"/>
			<path class="st5" d="M437.49,673.61c0,0-3.36,6.56-2.02,22.19h12.39v-3.87l8.96,3.87h45.05c0,0,1.85-6.22-14.29-5.55
				l-30.99-19.84h-18.77L437.49,673.61z"/>
			<g>
				<path class="st8" d="M472.64,331.27V483.7l-1,11.64l-15.05,175.06l-19.36-0.26c0,0-15.76-119.51-6.52-180.68
					c0.52-3.4,1.1-6.62,1.78-9.62l-5.01-92.25h-12.69l-17.26,106.04l-29.5,181.23h-21.78l6.01-185.71l0.39-11.86
					c0,0,3.85-113.44,30.11-153.15l-36.43-94.45l51.25-35.11l19.98,6.85l18.86-6.85l25.79,11.37L472.64,331.27z"/>
				<path class="st9" d="M472.64,331.27V483.7l-1,11.64c-17.09,2.56-31.73-1.81-40.93-5.88c-6.52-2.88-10.3-5.6-10.3-5.6
					c-7.33,5.24-15.16,8.26-22.88,9.78c-18.44,3.62-36.29-1.25-45.27-4.48l0.39-11.86c0,0,3.85-113.44,30.11-153.15l-36.43-94.45
					l51.25-35.11l19.98,6.85l18.86-6.85l25.79,11.37L472.64,331.27z"/>
				<path class="st9" d="M429.04,289.99c-11.91,0.12-23.82,0.24-35.74,0.36c-1.09,0.01-1.1,1.71,0,1.7
					c11.91-0.12,23.82-0.24,35.74-0.36C430.13,291.68,430.13,289.98,429.04,289.99z"/>
				<g>
					<path class="st9" d="M414.89,265.89h-29.88c-0.5,0-0.8,0.31-0.91,0.69c-0.15,0.16-0.25,0.36-0.25,0.64v8.59
						c0,0.45,0.25,0.73,0.56,0.86c0.08,0.42,0.38,0.79,0.93,0.79h28.56c0.25,0,0.44-0.09,0.59-0.21c0.52,0.03,1.07-0.28,1.07-0.95
						v-8.68C416.1,267.07,415.88,265.89,414.89,265.89z M413.57,275.47h-27.73v-7.59h27.73V275.47z"/>
					<g>
						<path class="st5" d="M393.21,256.79h-2.24c-0.81,0-1.47,0.66-1.47,1.47v7.63h5.17v-7.63
							C394.67,257.45,394.02,256.79,393.21,256.79z"/>
						<path class="st8" d="M398.38,256.79h-2.24c-0.81,0-1.47,0.66-1.47,1.47v7.63h5.17v-7.63
							C399.85,257.45,399.19,256.79,398.38,256.79z"/>
						<path class="st5" d="M403.55,256.79h-2.24c-0.81,0-1.47,0.66-1.47,1.47v7.63h5.17v-7.63
							C405.02,257.45,404.36,256.79,403.55,256.79z"/>
						<path class="st8" d="M408.73,256.79h-2.24c-0.81,0-1.47,0.66-1.47,1.47v7.63h5.17v-7.63
							C410.19,257.45,409.54,256.79,408.73,256.79z"/>
					</g>
				</g>
			</g>
			<path class="st9" d="M445.4,335.39c-0.52-20.23-2.97-40.5-8.58-59.98c-2.62-9.08-5.64-18.04-9.08-26.84
				c-1.94-4.96-4-9.87-6.18-14.72c-0.32-0.71-1.36-0.88-1.98-0.52c-0.73,0.43-0.84,1.27-0.52,1.98c7.63,17,13.72,34.69,18.18,52.79
				c6.16,25.01,6.17,51.71,4.94,77.3c-0.03,0.66-0.07,1.33-0.1,1.99c-0.65,12.19-1.83,24.36-3.58,36.45
				c-1.75,12.1-4.04,24.12-6.88,36.02c-2.85,11.95-6.24,23.77-10.17,35.41c-0.48,1.42-0.97,2.84-1.46,4.25
				c-0.62,1.76,2.18,2.52,2.79,0.77c4.06-11.6,7.58-23.37,10.56-35.29c2.98-11.92,5.42-23.97,7.3-36.11
				c1.89-12.15,3.24-24.39,4.04-36.66C445.48,359.96,445.72,347.67,445.4,335.39z"/>
			<path class="st9" d="M346.33,229.69c-3.63,4.7-4.45,13.78-0.78,29.83c4.28,18.76,4.94,85.82,27.2,85.82
				c0,0,23.15,4.21,78.89-41.44l-14.4-15.8L381,305.34l-7.4-33.65c-2.07-9.4-0.13-14.86-6.94-21.67L346.33,229.69z"/>
			<path class="st9" d="M428.7,321.27c0,0,62.57,10.75,68.22-13.48c0.33-1.42,0.32-2.89,0.14-4.33
				c-1.12-8.82-6.48-47.33-18.51-83.42c0,0-2.58-8.03-16.34-14.1l5.05,85.7L428.7,321.27z"/>
			<path class="st10" d="M440.01,291.14l11.63,12.76l15.62-12.25C453.68,277.47,440.01,291.14,440.01,291.14z"/>
			<path class="st9" d="M483.28,295.09c-3.77-3.83-9.49-5.45-14.71-4.27c2.7-5.53,7.39-10,13.14-12.27c0.86-0.34,0.48-1.74-0.38-1.4
				c-6.45,2.54-11.77,7.6-14.51,13.98c-0.03,0.07-0.04,0.14-0.05,0.22c-0.01,0-0.03,0.01-0.04,0.01c-0.87,0.32-0.49,1.72,0.39,1.4
				c5.19-1.92,11.26-0.6,15.14,3.36C482.91,296.78,483.93,295.76,483.28,295.09z"/>
			<g>
				<path class="st9" d="M383.15,303c-3.12-11.69-6.18-23.41-9.37-35.08c-1.39-5.09-2.94-10.18-5.32-14.9
					c-2.32-4.6-9.41-16.43-16.58-19.39c-0.86-0.36-1.5,0.73-0.73,1.25c8.39,5.65,10.33,8.42,15.33,17.48
					c2.57,4.66,4.19,9.77,5.61,14.87c1.53,5.51,2.96,11.05,4.44,16.57c1.74,6.53,3.48,13.06,5.23,19.59
					C382,304.29,383.39,303.91,383.15,303z"/>
				<path class="st10" d="M380.43,288.8c0,0-15.01-1.92-20.07-4.3c-1.04-0.49-2.35-0.08-2.79,0.97c-0.33,0.8-0.26,1.91,0.96,3.39
					c0.99,1.21,2.35,2.06,3.83,2.57l3.7,1.26C366.05,292.7,378.29,295.5,380.43,288.8z"/>
				<path class="st10" d="M392.57,291.05l4.17,9.48l-15.39,4.39c0,0-15.84,13.92-25.35,12.3c-1.27-0.22-1.61-2-0.67-2.88
					c0.36-0.34,0.84-0.73,1.48-1.17c0,0-1.44,1.83-3.28,1.89c-0.81,0.02-1.3-0.9-0.82-1.56l1.84-2.55c0,0-1.59,1.62-3.04,1.69
					c-0.78,0.03-1.26-0.84-0.85-1.5c1.97-3.14,9.2-14.11,18.09-20.55C368.73,290.58,374.24,286.03,392.57,291.05z"/>
				<path class="st9" d="M436.63,287.8c-11.23,3.97-22.46,7.94-33.7,11.9c-1.03,0.36-0.48,1.97,0.55,1.61
					c11.23-3.97,22.46-7.94,33.7-11.9C438.21,289.05,437.66,287.44,436.63,287.8z"/>
				<path class="st12" d="M368.47,301.56c-4.44,4.04-8.87,8.09-13.31,12.13c-0.68,0.62,0.21,1.76,0.9,1.13
					c4.44-4.04,8.87-8.09,13.31-12.13C370.06,302.07,369.16,300.93,368.47,301.56z"/>
				<path class="st12" d="M366.24,297.34c-4.73,4.47-9.16,9.24-13.27,14.28c-0.59,0.72,0.57,1.59,1.16,0.87
					c4.03-4.95,8.37-9.63,13.01-14.01C367.81,297.84,366.91,296.7,366.24,297.34z"/>
				<path class="st9" d="M470.98,321.16c-13.92,2.01-28.14,1.78-41.99-0.68c-0.05-0.01-0.1,0-0.15,0c1.82-1.32,3.64-2.65,5.43-3.99
					c5.38-4.02,10.63-8.21,15.75-12.56c0.71-0.6-0.32-1.62-1.02-1.02c-8.98,7.63-18.37,14.76-28.14,21.34
					c-9.63,6.49-19.64,12.9-30.69,16.7c-6.35,2.19-13.01,3.46-19.75,3.27c-0.93-0.03-0.93,1.42,0,1.45
					c11.98,0.33,23.5-3.85,33.9-9.49c8.26-4.48,16.17-9.7,23.82-15.2c-0.14,0.37-0.03,0.8,0.46,0.89
					c14.12,2.51,28.56,2.73,42.76,0.68C472.28,322.42,471.89,321.03,470.98,321.16z"/>
				<path class="st9" d="M466.17,241.72c-2.29-3.89-4.86-7.6-7.46-11.29c-0.47-0.66-1.31-0.97-2.05-0.54
					c-0.65,0.38-1.01,1.39-0.54,2.05c4.45,6.32,9,12.8,11.83,20.04c1.35,3.47,2.33,7.12,2.59,10.85c0.28,4.12-0.3,8.2-1.36,12.17
					c-1.23,4.63-3.05,9.09-4.86,13.52c-0.31,0.75,0.33,1.65,1.05,1.85c0.86,0.24,1.54-0.3,1.85-1.05c3.26-7.96,6.59-16.25,6.39-25
					C473.41,256.23,470.22,248.61,466.17,241.72z"/>
			</g>
			<g>
				<polygon class="st5" points="432.58,194.26 427.47,194.26 417.56,200.75 407.66,194.26 402.55,194.26 407.99,213.24 
					417.56,227.9 427.13,213.24 				"/>
			</g>
			<path class="st9" d="M426.09,201.47l-0.01,0.64l-8.67,23.47l-9.6-23.47l-0.01-0.42c-0.12-6.05-4.37-11.23-10.28-12.53l-0.79-0.18
				v10.41l7.01,28.51h26l6.33-28.51v-10.41l0,0C430.3,190.39,426.2,195.52,426.09,201.47z"/>
			<g>
				<path class="st5" d="M452.62,202.32c-4.73-3.97-10.48-6.68-16.54-8.04v1.65c6.35,1.49,12.39,4.49,17.06,9
					c5.89,5.7,9.34,14.08,7.83,22.28c-0.19,1,1.33,1.42,1.52,0.43C464.25,218.08,459.91,208.46,452.62,202.32z"/>
				<g>
					<path class="st8" d="M450.07,235.18v28.71c0,0.32,0.17,0.53,0.39,0.65c0.01,0.01,0.01,0.01,0.02,0.02
						c1.97,1.41,3.94,2.82,5.9,4.23l0,0c0.02,0.04,0.06,0.07,0.09,0.1c-0.17,0.41-0.15,0.9,0.01,1.3c0.21,0.54,0.54,0.96,1,1.31
						c0.81,0.61,1.99,0.72,2.8,0.06c0.47-0.38,0.62-1.08,0.42-1.64c-0.19-0.52-0.57-0.97-0.94-1.38c-0.37-0.41-0.82-0.74-1.34-0.93
						c-0.36-0.14-0.74-0.16-1.11-0.1l-5.65-4.05v-27.97c3.5-2.54,7-5.08,10.5-7.62c0.82-0.59,0.03-1.97-0.8-1.37
						c-3.55,2.58-7.1,5.16-10.65,7.73c-0.12,0.09-0.19,0.19-0.25,0.3C450.24,234.65,450.07,234.86,450.07,235.18z"/>
					<path class="st8" d="M473.27,234.53c-0.06-0.11-0.13-0.21-0.25-0.3c-3.55-2.58-7.1-5.16-10.65-7.73
						c-0.83-0.6-1.62,0.77-0.8,1.37c3.5,2.54,7,5.08,10.5,7.62v27.97l-5.65,4.05c-0.37-0.06-0.75-0.04-1.11,0.1
						c-0.52,0.2-0.96,0.52-1.34,0.93c-0.37,0.41-0.74,0.85-0.94,1.38c-0.21,0.56-0.06,1.26,0.42,1.64c0.81,0.66,1.99,0.55,2.8-0.06
						c0.46-0.35,0.79-0.77,1-1.31c0.16-0.4,0.18-0.89,0.01-1.3c0.03-0.04,0.07-0.06,0.09-0.1l0,0c1.97-1.41,3.94-2.82,5.9-4.23
						c0.01,0,0.01-0.01,0.02-0.02c0.22-0.12,0.39-0.33,0.39-0.65v-28.71C473.65,234.86,473.49,234.65,473.27,234.53z"/>
				</g>
				<path class="st5" d="M368.48,252.23c-0.12,1.07,1.55,1.07,1.67,0c1.19-10.66-0.79-21.73,2.44-32.14
					c2.39-7.67,7.75-14.26,14.5-18.56c3.04-1.94,6.35-3.39,9.79-4.36v-1.74c-4.46,1.22-8.7,3.17-12.46,5.9
					c-6.88,4.99-12.04,12.21-14.05,20.53C367.98,231.81,369.6,242.14,368.48,252.23z"/>
				<g>
					<path class="st8" d="M364.44,253.89c0,2.6,2.11,4.71,4.71,4.71c2.6,0,4.71-2.11,4.71-4.71s-2.11-4.71-4.71-4.71
						C366.55,249.18,364.44,251.29,364.44,253.89z"/>
					<circle class="st5" cx="369.15" cy="253.89" r="3.33"/>
				</g>
			</g>
			<path class="st9" d="M396.25,195.26c-0.07,4.83-0.13,9.67-0.2,14.5c-0.01,0.96,1.48,0.96,1.49,0c0.07-4.83,0.13-9.67,0.2-14.5
				C397.76,194.29,396.26,194.29,396.25,195.26z"/>
			<path class="st9" d="M434.65,193.52c-0.07,4.83-0.13,9.67-0.2,14.5c-0.01,0.96,1.48,0.96,1.49,0c0.07-4.83,0.13-9.67,0.2-14.5
				C436.16,192.56,434.66,192.56,434.65,193.52z"/>
		</g>
		<g class="st3">
			<g>
				<path class="st9" d="M198.24,194.99l-0.38-11.39c-0.08-2.44-2.75-3.9-4.85-2.66l-13.01,7.69c-9.81,5.8-17.06,15.09-20.3,26.02
					l0,0l6.89,13.82L198.24,194.99z"/>
				<g>
					<path class="st9" d="M122.97,451.55c0,0,4.34,0.73,11.64,1.73c24.53,3.23,67.27,7.98,102.56-2.93
						c-6.46-42.06-9.59-84.5-9.59-126.99c0-18.92,0.61-37.85,1.84-56.75c0.68-10.64,0.8-19.35,0.14-23.67
						c-3.09-20.1-14.75-35.47-23.19-44.22c-5.14-5.37-9.07-8.28-9.07-8.28s-23.26,6.46-35.22,20.07c-0.05,0.05-0.09,0.07-0.11,0.11
						c-2.43,2.8-5.14,6.87-8.03,11.57c-2.91,4.82-5.93,10.32-8.75,15.75c-9.8,18.76-13.71,40.01-11.34,61.04l0.39,3.68
						c0.5,4.34,3.59,45.51,3.59,45.51L122.97,451.55z"/>
				</g>
				<path class="st4" d="M171.51,217.43c4.11-0.89,8.07-2.32,11.73-4.36c9.25-5.16,17.16-12.82,20.85-16.64
					c-3.39-3.32-5.93-5.34-6.62-5.84c-1.23,0.34-4.75,1.34-9.18,3.05c-0.48,0.2-0.96,0.39-1.46,0.59
					c-4.37,1.75-9.39,4.14-13.98,7.16c-0.39,0.36-0.75,0.73-1.11,1.11c-2,4.21-3.18,8.28-3.84,11.23
					C167.39,215.91,169.32,217.91,171.51,217.43z"/>
				<g>
					<path class="st4" d="M197.27,198.54c0.19,4.55-2.49,8.91-6.89,11.17c-1.17,0.57-2.39,1.02-3.59,1.24
						c-7.1,1.35-14.22-3.49-14.07-10.65l-0.01-0.19l0.03-0.26l0.01-0.5l0.17-3.26l0.36-8.21c0.06-0.88,0.59-1.69,1.45-2.13
						l7.91-3.98l5.33-3.3l8.02-4.97l0.36-0.2l-0.09,2.01l0.62,15.39l0.21,3.68L197.27,198.54z"/>
					<path class="st7" d="M190.85,177.01c0.62,10.2-6.91,19.8-18.12,23.29l-0.01-0.19l0.03-0.26l0.01-0.5l0.17-3.26l0.36-8.21
						c0.06-0.88,0.59-1.69,1.45-2.13l7.91-3.98l5.33-3.3L190.85,177.01z"/>
					<g>
						<path class="st4" d="M218.7,150.26c0,0-0.98-10.82-9.05-6.53c0,0,5.11-21.51-7.15-27.41c0,0-17.16-13.3-34.96,0.02
							c-3,2.24-5.47,5.13-7.46,8.34c-2.83,4.55-6.51,11.77-6.21,18.1c0,0,0.73,5.12-0.59,11.29c-0.96,4.5-1.03,9.15-0.07,13.65
							c0.85,3.98,2.43,8.63,5.37,12.98c5.66,8.39,16.16,12.12,25.45,8.51c4.67-1.81,10.16-5.22,16.28-11.32c0,0,6.55-6.38,9-16.74
							C209.32,161.14,219.68,161.08,218.7,150.26z"/>
						<g>
							<path class="st8" d="M189.32,152.91c0.01,0,0.01-0.01,0.02-0.01c0.08-0.03,0.18-0.03,0.27-0.03
								c-0.96-3.23-3.64-5.94-6.91-6.8c-0.52-0.14-1.07-0.23-1.58-0.08c-0.51,0.15-0.97,0.6-0.98,1.13c0,0.59,0.52,1.05,1.03,1.35
								c1.06,0.62,2.26,0.95,3.43,1.3c1.17,0.36,2.36,0.75,3.35,1.49C188.52,151.69,189,152.27,189.32,152.91z"/>
						</g>
						<g>
							<path class="st8" d="M169.08,145.19c-0.35-0.4-0.86-0.63-1.37-0.79c-3.36-1.11-7.27-0.17-9.84,2.25
								c0.48-0.27,0.98-0.5,1.53-0.6c0.03-0.01,0.06,0,0.09-0.01c0.32-0.09,0.66-0.15,0.99-0.17c1.22-0.08,2.44,0.24,3.61,0.58
								c1.18,0.34,2.36,0.72,3.59,0.78c0.59,0.03,1.28-0.07,1.6-0.57C169.57,146.22,169.43,145.59,169.08,145.19z"/>
						</g>
						<path class="st7" d="M183.2,172.48c-3.24,2.95-7.89,4-12.06,2.82c-1.19-0.34-1.65,1.57-0.46,1.91
							c4.86,1.37,10.17,0.04,13.91-3.38C185.52,172.99,184.12,171.64,183.2,172.48z"/>
						<path class="st7" d="M169.82,168.47c-1.08,0.13-2.18,0.02-3.2-0.41c-0.49-0.2-0.99-0.47-1.4-0.81
							c-0.07-0.06-0.23-0.19-0.26-0.29c0.02,0.09,0.03,0,0.03-0.04c0.05-0.28,0.29-0.6,0.41-0.85c1.15-2.25,2.49-4.41,4-6.43
							c0.31-0.42,0.36-1-0.04-1.39c-0.35-0.34-1.04-0.38-1.36,0.04c-0.95,1.27-1.85,2.59-2.68,3.95c-0.39,0.65-0.77,1.3-1.13,1.97
							c-0.37,0.69-0.82,1.41-1.05,2.16c-0.5,1.66,1.1,2.77,2.38,3.36c1.36,0.62,2.85,0.89,4.33,0.72c0.51-0.06,0.95-0.45,0.93-1.01
							C170.8,168.93,170.34,168.41,169.82,168.47z"/>
						<path class="st8" d="M184.16,157.83c-0.23,1.76-1.39,3.08-2.6,2.95c-1.21-0.13-2.01-1.66-1.78-3.42
							c0.23-1.76,1.39-3.08,2.6-2.95C183.59,154.54,184.39,156.07,184.16,157.83z"/>
						<path class="st8" d="M164.38,156.38c-0.23,1.76-1.39,3.08-2.6,2.95c-1.21-0.13-2.01-1.66-1.78-3.42
							c0.23-1.76,1.39-3.08,2.6-2.95C163.81,153.08,164.61,154.62,164.38,156.38z"/>
					</g>
					<g>
						<path class="st10" d="M144.25,125.15c0.99-4.66,5.21-8.45,9.96-8.93c1.89-8.3,10.71-14.38,19.14-13.21
							c6.24-4.37,14.42-5.84,21.78-3.93c3.15,0.82,6.59,2.83,6.8,6.07c4.93,0.55,9.66,2.7,13.31,6.06c1.16,1.07,2.25,2.31,2.7,3.83
							c0.46,1.51,0.14,3.35-1.11,4.32c4.65,1.66,8.53,5.37,10.4,9.95c0.6,1.46,1,3.07,0.65,4.61c-0.35,1.54-1.62,2.95-3.2,3.03
							c2.7,2.73,4.07,6.71,3.62,10.52c-0.44,3.81-2.7,7.37-5.95,9.4c2.26,2.99,2.16,7.54-0.23,10.43c-2.39,2.89-6.84,3.84-10.2,2.17
							c-0.04,2.87-0.92,5.9-3.13,7.73c-2.21,1.82-5.97,1.87-7.68-0.43c-3.2-0.67-5.93-3.25-6.78-6.41
							c-0.85-3.16,0.22-6.76,2.66-8.94c-4.03-5.8-4.49-13.81-1.43-20.15c-1.04,0.97-10.84,3.78-12.65-5.51
							c-1.69,2.49-4.86,3.89-7.85,3.46c-2.98-0.43-5.63-2.66-6.55-5.53c-0.25,2.43-2.08,4.63-4.43,5.31
							c-2.35,0.68-5.07-0.19-6.59-2.11c1.42,2.99-0.13,7.02-3.18,8.29c0.77,3.31,0.17,6.92-1.61,9.82c-2.81-1.34-4.53-4.3-5.36-7.3
							c-0.83-3-0.95-6.15-1.5-9.21C145.04,134.06,143.3,129.57,144.25,125.15z"/>
					</g>
				</g>
				<path class="st9" d="M206.36,198.72l-0.38-11.39c-0.08-2.44-2.75-3.9-4.85-2.66l-13.01,7.69c-9.81,5.8-17.06,15.09-20.3,26.02
					l0,0l6.89,13.82L206.36,198.72z"/>
				<path class="st9" d="M160.79,233.16c0.61-1.57,1.25-3.13,1.93-4.68c1.07-4.48,1.7-9.05,1.82-13.66c0.02-0.71,1.13-0.72,1.11,0
					c-0.08,3.08-0.38,6.16-0.88,9.2c1.16-2.4,2.38-4.76,3.7-7.07c0.17-0.31,0.5-0.32,0.74-0.19c0.05-0.14,0.16-0.27,0.34-0.34
					c8.83-3.25,17.36-7.29,25.47-12.06c2.3-1.35,4.57-2.77,6.8-4.24c0.6-0.39,1.16,0.57,0.56,0.96
					c-7.93,5.22-16.33,9.73-25.07,13.45c-2.46,1.05-4.95,2.03-7.46,2.96c-0.16,0.06-0.29,0.04-0.4-0.02c-0.01,0.01,0,0.02-0.01,0.03
					c-2.06,3.63-3.92,7.36-5.59,11.19c-0.2,0.84-0.41,1.67-0.64,2.5c-0.08,0.3-0.33,0.4-0.57,0.38c-0.26,0.63-0.52,1.25-0.77,1.89
					C161.61,234.11,160.54,233.83,160.79,233.16z"/>
				<g>
					<g>
						<polygon class="st5" points="165.03,355.27 93.95,361.38 78.08,264.99 93.58,263.51 133.88,259.61 148.13,258.23 						"/>
						<path class="st5" d="M133.04,270.61c-3.86,10.56-15.55,15.97-26.11,12.1c-8.28-3.03-13.4-10.88-13.35-19.21l40.31-3.9
							C134.6,263.16,134.38,266.95,133.04,270.61z"/>
					</g>
					<path class="st9" d="M216.4,302.52l-36.04,0.27l5.15,29.55l43.49-3.49c2.72,0.38,5.34,0.1,7.68-0.69l0.01-0.01
						c4.83-1.62,8.64-5.4,10.37-10.13c1.11-3.03,1.36-6.42,0.45-9.9l-9.31-35.92l-7.41-28.52c-1.95-7.52-4.73-14.81-8.29-21.7
						l-26.86,27.06l13.91,35.72l6.92,17.76l-0.05,0L216.4,302.52z"/>
					<g>
						<polygon class="st4" points="153.73,303 155.46,320.36 163.16,321.24 163.59,321.29 183.99,323.65 180.36,302.8 165.76,302.9 
							164.96,302.9 						"/>
					</g>
					<polygon class="st13" points="153.73,303 155.46,320.36 163.16,321.24 163.59,321.29 183.99,323.65 180.36,302.8 165.76,302.9 
						164.96,302.9 					"/>
					<g>
						<g>
							<path class="st4" d="M158.7,317.55c1.23-0.43,2.06-1.79,1.88-3.08c-0.18-1.29-1.35-2.37-2.65-2.44
								c1.11-0.1,2.09-1.06,2.21-2.17c0.1-0.93-1.21-2.27-2-2.76c0.65-1.25,1.49-2.42,0.7-3.6c-0.83-1.23-2.3-1.89-3.77-2.07
								c-1.47-0.18-2.95,0.05-4.41,0.29c-5.45,0.88-10.9,1.76-16.28,3c-0.78,0.18-1.57,0.38-2.21,0.85
								c-0.64,0.47-1.09,1.29-0.89,2.06c0.25,0.98,1.3,1.37,2.35,1.54c-1.15,0.07-2.27,1.08-2.23,2.27
								c0.03,0.98,0.83,1.79,1.76,2.05c-0.61,0.3-1.11,0.93-1.14,1.62c-0.07,1.18,0.9,2.25,2.04,2.6c0.88,0.27,1.83,0.17,2.72-0.1
								c-0.66,0.5-0.93,1.6-0.57,2.42c0.48,1.08,1.6,1.7,2.67,2.19c4.98,2.3,10.64,3.5,15.99,2.29c1.66-0.38,3.37-1.05,4.36-2.43
								C160.22,320.69,160.15,318.46,158.7,317.55z"/>
						</g>
						<path class="st13" d="M150.45,306.37c-5.78,0.92-11.57,1.74-17.37,2.46c-0.64,0.08-0.6,1.09,0.04,1.01
							c5.81-0.72,11.6-1.54,17.37-2.46C151.12,307.28,151.09,306.27,150.45,306.37z"/>
						<path class="st13" d="M151.56,311.1c-6.09,1.26-12.28,1.95-18.49,2.07c-0.65,0.01-0.61,1.02,0.04,1.01
							c6.3-0.12,12.58-0.84,18.75-2.11C152.49,311.93,152.19,310.97,151.56,311.1z"/>
						<path class="st13" d="M151.46,316.51c-4.82,1.11-9.81,1.37-14.72,0.76c-0.64-0.08-0.86,0.9-0.22,0.98
							c5.09,0.63,10.24,0.37,15.24-0.78C152.39,317.33,152.09,316.36,151.46,316.51z"/>
					</g>
					<g>
						<g>
							<path class="st4" d="M75.9,317.01c-1.23-0.43-2.06-1.79-1.88-3.08c0.18-1.29,1.35-2.37,2.65-2.44
								c-1.11-0.1-2.09-1.06-2.21-2.17c-0.1-0.93,1.21-2.27,2-2.76c-0.65-1.25-1.49-2.42-0.7-3.6c0.83-1.23,2.3-1.89,3.77-2.07
								c1.47-0.18,2.95,0.05,4.41,0.29c5.45,0.88,10.9,1.76,16.28,3c0.78,0.18,1.57,0.38,2.21,0.85c0.64,0.47,1.09,1.29,0.89,2.06
								c-0.25,0.98-1.3,1.37-2.35,1.54c1.15,0.07,2.27,1.08,2.23,2.27c-0.03,0.98-0.83,1.79-1.76,2.05c0.61,0.3,1.11,0.93,1.14,1.62
								c0.07,1.18-0.9,2.25-2.04,2.6c-0.88,0.27-1.83,0.17-2.72-0.1c0.66,0.5,0.93,1.6,0.57,2.42c-0.48,1.08-1.6,1.7-2.67,2.19
								c-4.98,2.3-10.64,3.5-15.99,2.29c-1.66-0.38-3.37-1.05-4.36-2.43C74.39,320.15,74.46,317.91,75.9,317.01z"/>
						</g>
						<path class="st13" d="M84.16,305.83c5.78,0.92,11.57,1.74,17.37,2.46c0.64,0.08,0.6,1.09-0.04,1.01
							c-5.81-0.72-11.6-1.54-17.37-2.46C83.49,306.73,83.52,305.73,84.16,305.83z"/>
						<path class="st13" d="M83.04,310.56c6.09,1.26,12.28,1.95,18.49,2.07c0.65,0.01,0.61,1.02-0.04,1.01
							c-6.3-0.12-12.58-0.84-18.75-2.11C82.11,311.39,82.41,310.43,83.04,310.56z"/>
						<path class="st13" d="M83.14,315.96c4.82,1.11,9.81,1.37,14.72,0.76c0.64-0.08,0.86,0.9,0.22,0.98
							c-5.09,0.63-10.24,0.37-15.24-0.78C82.22,316.78,82.51,315.82,83.14,315.96z"/>
					</g>
					<path class="st9" d="M198.82,238.49c4.2,15.29,8.39,30.58,12.59,45.88c1.19,4.32,2.37,8.65,3.56,12.97
						c0.19,0.69-0.91,0.88-1.09,0.2c-4.2-15.29-8.39-30.58-12.59-45.88c-1.19-4.32-2.37-8.65-3.56-12.97
						C197.53,238,198.63,237.81,198.82,238.49z"/>
				</g>
				<g class="st14">
					<path class="st10" d="M200.83,142.7c0.63-1.29,2.54-0.16,1.92,1.12c-2.07,4.25-2.39,9.2-0.98,13.7
						c0.43,1.37-1.72,1.95-2.14,0.59C198.03,153.03,198.5,147.48,200.83,142.7z"/>
					<path class="st10" d="M208.55,163c1.83-0.25,3.58-1.18,4.65-2.73c1.18-1.72,1.45-3.87,0.81-5.84c-0.44-1.36,1.7-1.95,2.14-0.59
						c0.81,2.49,0.45,5.38-1.03,7.55c-1.37,2-3.56,3.42-5.97,3.75c-0.59,0.08-1.19-0.14-1.37-0.78
						C207.63,163.85,207.95,163.08,208.55,163z"/>
					<path class="st10" d="M202.3,164.22c0.59-0.13,1.2,0.18,1.37,0.78c0.33,1.15,0.66,2.29,0.98,3.44
						c0.16,0.56-0.19,1.23-0.78,1.37c-0.59,0.13-1.2-0.18-1.37-0.78c-0.33-1.15-0.66-2.29-0.98-3.44
						C201.36,165.03,201.72,164.36,202.3,164.22z"/>
					<path class="st10" d="M158.07,128.86c0.46-0.42,1.11-0.42,1.57,0c1.35,1.23,2.7,2.46,4.06,3.69c0.43,0.39,0.43,1.18,0,1.57
						c-0.46,0.42-1.11,0.42-1.57,0c-1.35-1.23-2.7-2.46-4.06-3.69C157.64,130.04,157.64,129.25,158.07,128.86z"/>
					<path class="st10" d="M150.15,133.84c0.03-0.6,0.49-1.11,1.11-1.11c0.58,0,1.14,0.51,1.11,1.11c-0.15,3.21,0.13,6.41,0.85,9.55
						c0.32,1.39-1.82,1.99-2.14,0.59C150.31,140.66,149.99,137.24,150.15,133.84z"/>
					<path class="st10" d="M171.09,127.95c0.52-0.28,1.22-0.15,1.52,0.4c1.43,2.6,3.13,4.79,5.31,6.81c0.43,0.4,0.43,1.18,0,1.57
						c-0.46,0.42-1.12,0.42-1.57,0c-2.26-2.1-4.18-4.56-5.66-7.26C170.41,128.96,170.55,128.23,171.09,127.95z"/>
					<path class="st10" d="M186.39,129.3c0.62-0.17,1.16,0.21,1.37,0.78c1.12,3.1,3.23,5.94,5.9,7.89c0.48,0.35,0.72,0.97,0.4,1.52
						c-0.28,0.48-1.03,0.75-1.52,0.4c-3.19-2.32-5.58-5.5-6.92-9.22C185.41,130.1,185.84,129.45,186.39,129.3z"/>
					<path class="st10" d="M207.64,149.92c1.63-4.45,2.11-9.26,1.28-13.93c-0.1-0.59,0.16-1.2,0.78-1.37
						c0.54-0.15,1.26,0.18,1.37,0.78c0.9,5.06,0.49,10.28-1.28,15.11C209.29,151.84,207.15,151.27,207.64,149.92z"/>
					<g>
						<path class="st10" d="M148.34,124.4c0.68-1.22,1.77-2.28,3.06-2.83c0.53-0.23,1.22-0.18,1.52,0.4
							c0.25,0.48,0.17,1.28-0.4,1.52c-0.26,0.11-0.51,0.23-0.74,0.38c-0.07,0.04-0.14,0.09-0.21,0.14
							c-0.01,0.01-0.03,0.02-0.06,0.04c-0.03,0.02-0.11,0.08-0.11,0.09c-0.05,0.04-0.11,0.09-0.16,0.14
							c-0.21,0.19-0.39,0.4-0.57,0.61c0,0,0,0,0,0c0,0,0,0,0,0c-0.05,0.07-0.1,0.14-0.14,0.21c-0.08,0.12-0.15,0.23-0.22,0.36
							c-0.07,0.12-0.13,0.24-0.2,0.37c-0.03,0.06-0.05,0.12-0.08,0.17c0,0.01,0,0.01-0.01,0.02c-0.09,0.26-0.18,0.53-0.24,0.8
							c-0.02,0.08-0.03,0.15-0.04,0.23c0-0.01,0-0.02,0-0.03c0,0.01,0,0.03,0,0.04l0,0.01c-0.02,0.1-0.01,0.07,0,0.03
							c0,0.12-0.03,0.27-0.04,0.38c-0.01,0.14-0.01,0.28,0,0.42c0,0.07,0.01,0.14,0.01,0.21c0.01,0.07,0.04,0.33,0,0.04
							c0.08,0.57-0.14,1.22-0.78,1.37c-0.53,0.12-1.28-0.16-1.37-0.78C147.35,127.22,147.6,125.74,148.34,124.4z"/>
						<path class="st10" d="M149.74,127.05c0,0.02,0,0.03,0,0.05c0-0.01,0-0.03,0-0.04C149.74,127.05,149.74,127.05,149.74,127.05z"
							/>
					</g>
					<path class="st10" d="M196.25,126.19c0.4-0.4,1.18-0.46,1.57,0c1.99,2.3,3.39,5.08,3.96,8.07c0.11,0.59-0.17,1.2-0.78,1.37
						c-0.54,0.15-1.25-0.18-1.37-0.78c-0.25-1.32-0.67-2.64-1.22-3.77c-0.59-1.21-1.34-2.36-2.17-3.32
						C195.86,127.31,195.8,126.64,196.25,126.19z"/>
				</g>
				<g>
					<path class="st9" d="M192.01,252.76h-33.2c-0.56,0-0.89,0.35-1.01,0.76c-0.16,0.17-0.28,0.4-0.28,0.71v9.54
						c0,0.5,0.27,0.81,0.62,0.96c0.08,0.47,0.42,0.88,1.03,0.88h31.73c0.28,0,0.48-0.1,0.65-0.23c0.58,0.04,1.19-0.31,1.19-1.05
						v-9.65C193.36,254.08,193.12,252.76,192.01,252.76z M190.54,263.4h-30.81v-8.43h30.81V263.4z"/>
					<g>
						<path class="st5" d="M168.08,242.65h-2.81c-0.81,0-1.47,0.66-1.47,1.47v8.64h5.75v-8.64
							C169.55,243.31,168.89,242.65,168.08,242.65z"/>
						<path class="st8" d="M173.83,242.65h-2.81c-0.81,0-1.47,0.66-1.47,1.47v8.64h5.75v-8.64
							C175.3,243.31,174.64,242.65,173.83,242.65z"/>
						<path class="st5" d="M179.58,242.65h-2.81c-0.81,0-1.47,0.66-1.47,1.47v8.64h5.75v-8.64
							C181.05,243.31,180.39,242.65,179.58,242.65z"/>
						<path class="st8" d="M185.33,242.65h-2.81c-0.81,0-1.47,0.66-1.47,1.47v8.64h5.75v-8.64
							C186.79,243.31,186.14,242.65,185.33,242.65z"/>
					</g>
				</g>
			</g>
		</g>
		<g class="st3">
			<g>
				<path class="st4" d="M311.86,155.89c-7.88-7.68-5.59-22.5-12.03-31.67c-4.8-6.83-13.45-8.62-20.86-8.23
					c-11.92,0.63-29.47,5.85-35.57,18.51c-2.56,5.33-3.54,11.38-5.11,17.15c-1.57,5.78-3.97,11.65-8.44,15.1
					c2.78,0.16,5.61-0.92,7.71-2.94c-4.1,6.4-4.96,15.17-2.21,22.4c0.99,2.61,2.41,5,3.38,7.62c0.97,2.62,1.46,5.63,0.52,8.26
					c1.98-2.02,3.31-4.79,3.73-7.73c2.03,6.51,7.88,11.33,14.1,11.64c1.44-3.19,3.81-5.87,6.66-7.54c-0.06,5.08,4.27,9.7,8.87,9.44
					c-0.78-3.76-0.18-7.84,1.63-11.14c3.23,1.79,5.28,5.89,4.94,9.87c6.51-4.29,10.63-12.67,10.36-21.03
					c2.11,7.52,9.81,12.54,16.79,10.94c-2.95-1.88-6.25-4.37-6.44-8.12c-0.14-2.76,1.5-5.19,2.8-7.54
					c4.54-8.16,5.75-18.49,3.24-27.67C307.41,155.05,309.66,156.07,311.86,155.89z"/>
			</g>
			<path class="st5" d="M324.02,499.32c-6.75,47.17-16.74,97.64-25.45,146.81l-12.7-0.06l-1.39-150l-1.11-119.24h-10.82
				l-1.15,130.87l-1.24,141.43l-17.32,0.6c-6.17-53.03-13.03-107.53-17.47-156.84c-7.73-85.49-8.17-155.41,14.76-175.15l59.32-6.95
				C337.75,349.51,335.45,419.72,324.02,499.32z"/>
			<path class="st5" d="M319.77,680.31h-32.11c-2.53,0-4.68-1.84-5.05-4.33c-1.05-7.11-2.23-21.2,3.3-28.59l-0.04-1.32l12.75-0.43
				c-0.02,0.16-0.03,0.33-0.04,0.49l12.04,26.58C310.61,672.72,319.44,672.09,319.77,680.31z"/>
			<path class="st5" d="M271.58,680.31h-7.7v-10.67c0-1.39-1.94-1.7-2.41-0.37c-2.5,7.2-7.62,11.3-15.23,11.04h-31.23
				c-2.2,0-3.08-2.87-1.23-4.08c13.31-3.89,33.34-16.72,39.05-26.49l17.32-0.6l-0.46,1.72
				C271.58,655.31,274.21,666.87,271.58,680.31z"/>
			<path class="st10" d="M249.6,303.16l-21.53,42.1L221.03,359l-16.04,31.38c1.83,12.11,1.82,18.39,1.28,21.64
				c-0.26,1.54-2.44,1.65-2.83,0.15l-2.44-9.24l-1.32,13.55c4.11,3.09,6.55,6.01,7.92,8.09c0.79,1.21-0.49,2.67-1.81,2.1
				c-1.43-0.61-2.8-1.24-4.09-1.83c-5.21-2.46-8.38-7.83-7.96-13.58l1.63-22.21l11.77-39.71l4.12-13.91l11.88-40.11
				c-0.45-6.57-0.2-14.35,0.44-22.46c1.34-17.02,4.44-35.5,6.66-47.36c0.7-3.78,2.38-7.23,4.78-10.04c2.5-2.97,5.8-5.25,9.61-6.55
				l0.35,6.55l3.02,57.41L249.6,303.16z"/>
			<path class="st5" d="M248,272.87h-24.41c1.34-17.02,4.44-35.5,6.66-47.36c0.7-3.78,2.38-7.23,4.78-10.04h9.96L248,272.87z"/>
			<path class="st5" d="M328.69,220.43c-6.19,31.74-18.4,61.14-32.96,92.24l-45.6,5.07l-11.4-40.52l-6.55-8.67
				c-3.27-4.35-4.49-9.9-3.33-15.22l1.66-7.61c0.26-1.18,0.39-2.39,0.39-3.6c0-1.64-0.25-3.28-0.73-4.87
				c-3.34-11.09,1.8-23.04,12.21-28.11c3.02-1.46,6.07-2.67,9.06-3.64c15.75-5.16,30.02-4.27,30.02-4.27
				c7.15,0.36,13.52,1.43,19.08,2.87c13.81,3.54,22.73,9.32,26.51,12.16C328.37,217.24,329,218.85,328.69,220.43z"/>
			<path class="st6" d="M301.6,257.37h-21.05c-1.75,0-3.17-1.42-3.17-3.17v-0.05c0-1.75,1.42-3.17,3.17-3.17h21.05
				c1.75,0,3.17,1.42,3.17,3.17v0.05C304.76,255.96,303.35,257.37,301.6,257.37z"/>
			<g>
				<path class="st5" d="M266.18,240.75c-5.63-7.31-10.5-15.19-14.51-23.49c-1.15-2.37-2.22-4.78-3.22-7.21
					c-0.27-0.66-1.35-0.37-1.08,0.3c3.54,8.62,7.95,16.86,13.19,24.56c1.49,2.18,3.04,4.32,4.65,6.41
					C265.65,241.88,266.62,241.32,266.18,240.75z"/>
				<path class="st5" d="M303.29,206.06c-8.07,9.15-16.61,17.89-25.58,26.17c-2.59,2.39-5.22,4.74-7.88,7.06
					c-0.54,0.47,0.08,1.4,0.62,0.93c9.31-8.1,18.21-16.66,26.64-25.67c2.38-2.55,4.72-5.13,7.03-7.74
					C304.61,206.25,303.77,205.52,303.29,206.06z"/>
			</g>
			<path class="st10" d="M300.57,204.11c-7.09,6.51-33.39,31.57-33.39,31.57s-10.19-19.35-15.72-30.18
				c15.75-5.16,30.02-4.27,30.02-4.27C288.63,201.6,295,202.67,300.57,204.11z"/>
			<g>
				<path class="st10" d="M283.32,175.44v28.63c0,4.24-1.84,8.19-4.88,10.51l0,0c-7.16,5.45-16.65-0.54-16.65-10.51v-28.63H283.32z"
					/>
				<path class="st11" d="M283.38,175.92v7.01c-1.92,8.97-7.22,20.3-21.53,22.24v-29.25H283.38z"/>
				<g>
					<path class="st10" d="M244.7,162.28c0.39-3.56,0.77-7.1,0.91-10.67c0.19-5.13,3.11-10.34,6.02-14.71
						c1.85-2.78,4.11-5.29,6.81-7.25c7.2-5.22,17.95-6.36,26.14-3.13c11.46,4.52,12.85,15.99,9.97,26.37
						c7.22-3.76,7.74,5.55,7.74,5.55c0.52,9.31-8.58,9.46-8.58,9.46c-2.47,8.95-8.42,14.5-8.42,14.5c-5.56,5.31-10.5,8.29-14.65,9.9
						c-8.27,3.19-17.37,0.06-22.08-7.11c-3.87-5.91-4.94-12.69-4.2-19.64C244.46,164.45,244.58,163.37,244.7,162.28z"/>
					<path class="st11" d="M255.4,171.15c0.33-0.71,0.89-1.29,1.37-1.9c0.54-0.69,1.01-1.44,1.42-2.22
						c0.81-1.57,1.31-3.25,1.53-4.98c0.06-0.47,0.63-0.77,1.05-0.69c0.5,0.09,0.7,0.55,0.64,1.02c-0.37,2.9-1.55,5.68-3.38,8.02
						c-0.7,0.9-1.72,1.86-0.79,2.91c0.93,1.05,2.59,0.83,3.88,0.71c1.12-0.1,1.17,1.64,0.06,1.74c-1.67,0.15-3.46,0.23-4.82-0.85
						C255.23,174.03,254.77,172.53,255.4,171.15z"/>
					<path class="st8" d="M272.83,163.37c-0.27,1.6-1.38,2.81-2.47,2.69c-1.09-0.11-1.75-1.51-1.47-3.11
						c0.28-1.6,1.38-2.81,2.47-2.69C272.44,160.38,273.1,161.77,272.83,163.37z"/>
					<path class="st8" d="M255.64,162.7c-0.28,1.6-1.38,2.81-2.47,2.69c-1.09-0.11-1.75-1.51-1.47-3.11
						c0.27-1.6,1.38-2.81,2.47-2.69C255.25,159.7,255.91,161.1,255.64,162.7z"/>
					<g>
						<path class="st8" d="M255.4,151.25c-0.38-0.2-0.77-0.2-1.13-0.16c-2.41,0.25-4.25,2.27-4.67,5c0.16-0.37,0.35-0.71,0.62-0.97
							c0.02-0.02,0.03-0.02,0.05-0.04c0.15-0.18,0.31-0.33,0.49-0.46c0.67-0.46,1.5-0.62,2.33-0.74c0.83-0.12,1.67-0.22,2.4-0.58
							c0.35-0.17,0.7-0.47,0.67-0.97C256.13,151.89,255.77,151.45,255.4,151.25z"/>
					</g>
					<g>
						<path class="st8" d="M270.31,151.08c0.36-0.26,0.75-0.33,1.11-0.35c2.42-0.16,4.39,1.55,5,4.18c-0.18-0.34-0.4-0.65-0.68-0.86
							c-0.02-0.01-0.04-0.02-0.05-0.03c-0.16-0.15-0.33-0.28-0.52-0.37c-0.7-0.35-1.54-0.36-2.37-0.35
							c-0.83,0.02-1.68,0.06-2.43-0.17c-0.36-0.11-0.73-0.35-0.74-0.85C269.63,151.83,269.95,151.34,270.31,151.08z"/>
					</g>
					<path class="st11" d="M272.26,175.74c-2.76,2.93-6.9,4.33-10.73,3.71c-1.1-0.18-1.4,1.56-0.31,1.73
						c4.46,0.72,9.18-0.99,12.37-4.39C274.38,175.96,273.04,174.91,272.26,175.74z"/>
				</g>
			</g>
			<path class="st5" d="M250.99,318.35c-3.43-12.41-6.77-24.86-10.3-37.24c-0.76-2.66-1.67-5.32-3.27-7.6
				c-1.35-1.92-3.02-3.57-4.6-5.31c-1.58-1.74-3.11-3.63-3.8-5.91c-0.7-2.32-0.43-4.75,0.12-7.07c1.21-5.08,3.89-10.31,2.24-15.62
				c-0.29-0.91-1.73-0.52-1.44,0.4c1.47,4.71-0.84,9.5-2.04,14.01c-0.59,2.24-1,4.58-0.7,6.89c0.3,2.28,1.32,4.31,2.7,6.13
				c1.42,1.86,3.1,3.49,4.64,5.24c1.82,2.08,3.13,4.34,4.02,6.97c0.99,2.93,1.72,5.96,2.54,8.94c0.86,3.12,1.72,6.23,2.58,9.35
				c1.95,7.07,3.91,14.14,5.86,21.21C249.8,319.67,251.24,319.28,250.99,318.35z"/>
			<g>
				<polygon class="st9" points="359.06,328.68 300.87,355.83 257.64,279.28 270.28,273.23 303.14,257.46 314.75,251.89 				"/>
				<path class="st9" d="M305.83,267.03c0,10.12-8.2,18.31-18.32,18.31c-7.93,0-14.69-5.05-17.23-12.1l32.86-15.76
					C304.84,260.24,305.83,263.52,305.83,267.03z"/>
			</g>
			<path class="st15" d="M307.84,318.9l-6.79,1.64l-6.82-14.14l9.45-3.55C306.4,306.5,308.51,311.74,307.84,318.9z"/>
			<g>
				<g>
					<path class="st10" d="M302.92,317.16c0.91-0.74,1.19-2.15,0.64-3.18c-0.55-1.03-1.88-1.58-3-1.24c0.91-0.43,1.44-1.54,1.2-2.52
						c-0.2-0.82-1.73-1.54-2.55-1.71c0.16-1.26,0.51-2.51-0.52-3.26c-1.08-0.78-2.53-0.89-3.83-0.59c-1.3,0.3-2.48,0.96-3.64,1.61
						c-4.33,2.43-8.67,4.86-12.83,7.57c-0.6,0.39-1.21,0.8-1.61,1.4c-0.39,0.6-0.52,1.43-0.11,2.02c0.51,0.75,1.52,0.76,2.46,0.57
						c-0.95,0.42-1.58,1.62-1.18,2.61c0.33,0.82,1.26,1.26,2.13,1.19c-0.43,0.44-0.65,1.12-0.47,1.72c0.31,1.02,1.46,1.63,2.53,1.57
						c0.83-0.05,1.6-0.42,2.27-0.92c-0.41,0.62-0.29,1.64,0.27,2.22c0.74,0.76,1.88,0.94,2.93,1.03c4.92,0.4,10.08-0.34,14.22-3.01
						c1.29-0.83,2.52-1.93,2.93-3.41C305.17,319.35,304.42,317.48,302.92,317.16z"/>
				</g>
				<path class="st11" d="M292.48,310.27c-4.6,2.57-9.24,5.05-13.92,7.45c-0.52,0.26-0.17,1.1,0.35,0.84
					c4.69-2.4,9.33-4.89,13.92-7.45C293.33,310.82,292.99,309.98,292.48,310.27z"/>
				<path class="st11" d="M294.89,313.92c-4.76,2.95-9.78,5.44-14.99,7.47c-0.54,0.21-0.2,1.05,0.35,0.84
					c5.29-2.05,10.37-4.6,15.19-7.59C295.93,314.33,295.38,313.61,294.89,313.92z"/>
				<path class="st11" d="M296.48,318.52c-3.73,2.43-7.87,4.19-12.21,5.2c-0.56,0.13-0.45,1.03,0.12,0.9
					c4.5-1.04,8.77-2.85,12.64-5.37C297.52,318.92,296.97,318.2,296.48,318.52z"/>
			</g>
			<path class="st10" d="M377.75,290.23c0,4.53-2.06,8.9-5.63,11.77l-0.01,0.01c-1.74,1.4-3.87,2.45-6.28,2.96l-57.62,13.84
				l-0.38,0.09l-6.78,1.64l-6.83-14.14l9.45-3.55l0.68-0.26l42.68-15.98l0.03-0.01l0.03-0.01l-11.34-12.87l-22.8-25.89l14.32-31.18
				l0,0c5.15,4.74,9.75,10.03,13.73,15.79l15.08,21.81l18.98,27.47C376.9,284.38,377.75,287.33,377.75,290.23z"/>
			<path class="st5" d="M356.09,254.24c-6.86,6.6-14.6,14.02-20.32,19.47l-22.8-25.89l14.32-31.18l0,0
				c5.15,4.74,9.75,10.03,13.73,15.79L356.09,254.24z"/>
			<path class="st5" d="M322.43,257.83c-5.34-5.57-10.68-11.14-16.01-16.71c-0.67-0.7-1.72,0.36-1.06,1.06
				c5.34,5.57,10.68,11.14,16.01,16.71C322.04,259.58,323.09,258.52,322.43,257.83z"/>
			<g>
				<path class="st4" d="M296.6,131.88c-4.6-7.17-12.95-11.99-21.46-11.63c-7.94,0.33-15.15,4.87-20.89,10.36
					c-2.6,2.48-5,5.22-6.71,8.39c-1.7,3.16-2.68,6.8-2.3,10.37l-1.51,7.47c5.82-4.39,10.77-9.93,14.5-16.2
					c-0.48,3.67,1.68,7.53,5.06,9.04c3.43-4.07,5.72-9.09,6.56-14.34c-0.29,3.88,2.65,7.17,5.45,9.87c2.81,2.69,5.9,5.73,6.05,9.62
					c0.15,4.02-2.94,7.52-3.22,11.53c-0.29,4.2,3.05,8.33,7.22,8.92c-1.12-1.4-0.85-3.55,0.2-5.01c1.05-1.45,2.7-2.34,4.36-3.04
					c1.65-0.7,3.38-1.27,4.85-2.3c2.77-1.93,4.27-5.21,5.16-8.47C302.17,148.25,301.2,139.04,296.6,131.88z"/>
			</g>
			<g class="st16">
				<path class="st4" d="M287.68,148.62c-1.64-4.69-5.87-7.43-8.86-11.16c-1.82-2.26-3.3-5.15-2.76-8.13c0.13-0.7-0.95-1-1.08-0.3
					c-0.92,5.06,2.74,9.14,6.06,12.43c1.72,1.71,3.48,3.42,4.69,5.55c1.15,2.02,1.67,4.35,1.58,6.67c-0.1,2.61-0.99,5.13-2.56,7.21
					c-0.43,0.57,0.54,1.13,0.96,0.56C288.43,157.85,289.17,152.88,287.68,148.62z"/>
				<path class="st4" d="M294.55,144.09c-0.34-4.25-2.26-8.28-5.32-11.24c-0.52-0.5-1.31,0.29-0.79,0.79
					c2.84,2.75,4.68,6.5,4.99,10.45c0.32,4.1-0.95,8.26-3.5,11.48c-0.44,0.56,0.34,1.35,0.79,0.79
					C293.46,152.91,294.9,148.5,294.55,144.09z"/>
				<path class="st4" d="M286.74,138.77c-3.35-1.9-4.11-6.01-4.73-9.49c-0.12-0.71-1.2-0.41-1.08,0.3
					c0.67,3.79,1.61,8.09,5.24,10.16C286.8,140.09,287.37,139.13,286.74,138.77z"/>
				<path class="st4" d="M291.96,125.67c-0.45-0.56-1.24,0.24-0.79,0.79c5.03,6.19,7.17,14.56,5.73,22.4c-0.13,0.7,0.95,1,1.08,0.3
					C299.49,140.89,297.26,132.2,291.96,125.67z"/>
				<path class="st4" d="M268.26,129.66c-0.88,4.05-2.65,7.89-5.19,11.17c-0.44,0.56,0.35,1.36,0.79,0.79
					c2.67-3.44,4.55-7.41,5.48-11.66C269.49,129.25,268.41,128.96,268.26,129.66z"/>
				<path class="st4" d="M262.79,126.75c-2.32,4.29-2.94,9.33-1.73,14.05c0.18,0.7,1.26,0.4,1.08-0.3
					c-1.14-4.43-0.56-9.17,1.61-13.19C264.09,126.68,263.13,126.12,262.79,126.75z"/>
				<path class="st4" d="M252.87,138.62c-2.5,4.37-5.48,8.43-8.91,12.12c-0.49,0.53,0.3,1.32,0.79,0.79
					c3.49-3.75,6.54-7.9,9.08-12.34C254.2,138.56,253.23,137.99,252.87,138.62z"/>
				<path class="st4" d="M249.2,131.58c-4.41,3.52-7.16,8.84-7.56,14.45c-0.05,0.72,1.07,0.71,1.12,0
					c0.38-5.34,3.06-10.33,7.23-13.66C250.55,131.92,249.76,131.14,249.2,131.58z"/>
				<path class="st4" d="M240.8,179.94c-1.58-5.24-0.37-10.8,1.12-15.91c0.2-0.69-0.88-0.99-1.08-0.3
					c-1.47,5.06-2.64,10.53-1.33,15.76c1.17,4.65,4.69,8.56,5.01,13.44c0.05,0.71,1.16,0.72,1.12,0
					C245.33,188.16,242.14,184.4,240.8,179.94z"/>
				<path class="st4" d="M254.7,197.05c-3.33-1.17-5.83-4.4-6.12-7.92c-0.06-0.71-1.18-0.72-1.12,0c0.33,4.05,3.1,7.65,6.94,9
					C255.08,198.36,255.37,197.29,254.7,197.05z"/>
				<path class="st4" d="M258.71,198.15c-0.41-1.48-0.96-2.92-1.63-4.3c-0.13-0.27-0.52-0.34-0.76-0.2
					c-0.28,0.16-0.33,0.49-0.2,0.76c0.63,1.3,1.14,2.65,1.52,4.04c0.08,0.29,0.4,0.47,0.69,0.39
					C258.61,198.76,258.79,198.45,258.71,198.15z"/>
				<path class="st4" d="M238.76,186.67c-1.09-3.88-1.68-7.88-1.77-11.91c-0.02-0.72-1.13-0.72-1.12,0
					c0.09,4.13,0.7,8.23,1.81,12.21C237.87,187.66,238.95,187.37,238.76,186.67z"/>
				<path class="st4" d="M302.05,168.11c-1.03,6.84-5.75,12.68-5.76,19.73c0,0.72,1.12,0.72,1.12,0c0.01-6.92,4.7-12.71,5.72-19.44
					C303.23,167.7,302.15,167.4,302.05,168.11z"/>
				<path class="st4" d="M294.55,172.8c-1.53,2.81-2.29,5.99-2.16,9.19c0.03,0.72,1.15,0.72,1.12,0c-0.12-3.01,0.57-5.99,2.01-8.63
					C295.86,172.73,294.9,172.17,294.55,172.8z"/>
				<path class="st4" d="M286.92,188.02c-0.01-0.3-0.25-0.56-0.56-0.56c-0.3,0-0.57,0.26-0.56,0.56c0.03,1.36,0.06,2.72,0.09,4.08
					c0.01,0.3,0.25,0.56,0.56,0.56c0.3,0,0.57-0.26,0.56-0.56C286.98,190.73,286.95,189.37,286.92,188.02z"/>
			</g>
		</g>
	</g>
	<path class="st8" d="M553.63,374.95H119.1c-1.17,0-2.12-0.95-2.12-2.12v-0.03c0-1.17,0.95-2.12,2.12-2.12h434.53
		c1.17,0,2.12,0.95,2.12,2.12v0.03C555.75,374,554.8,374.95,553.63,374.95z"/>
	<g>
	</g>
</g>
</svg>
